<svg width="300" height="291" viewBox="0 0 300 291" fill="none" xmlns="http://www.w3.org/2000/svg">
<path d="M215.07 290.535C261.976 290.535 300 287.026 300 282.698C300 278.37 261.976 274.861 215.07 274.861C168.164 274.861 130.14 278.37 130.14 282.698C130.14 287.026 168.164 290.535 215.07 290.535Z" fill="white"/>
<path opacity="0.1" d="M215.07 290.535C261.976 290.535 300 287.026 300 282.698C300 278.37 261.976 274.861 215.07 274.861C168.164 274.861 130.14 278.37 130.14 282.698C130.14 287.026 168.164 290.535 215.07 290.535Z" fill="#292A2E"/>
<path d="M74.0814 166.158H47.0096V174.035H74.0814V166.158Z" fill="#F4F4F4"/>
<path opacity="0.05" d="M54.1944 166.158H50.6472V174.035H54.1944V166.158Z" fill="#292A2E"/>
<path d="M70.6223 167.87H55.8727V172.538H70.6223V167.87Z" fill="white"/>
<path d="M95.6749 167.186L70.5206 156.199L67.3678 163.418L92.5222 174.404L95.6749 167.186Z" fill="#F4F4F4"/>
<path opacity="0.05" d="M95.6749 167.186L70.5206 156.199L67.3678 163.418L92.5222 174.404L95.6749 167.186Z" fill="#292A2E"/>
<path d="M92.2976 165.71L89.0016 164.271L85.8488 171.489L89.1449 172.929L92.2976 165.71Z" fill="white"/>
<path d="M86.7547 165.158L73.0501 159.172L71.1818 163.45L84.8864 169.436L86.7547 165.158Z" fill="white"/>
<path opacity="0.05" d="M95.7228 265.944H88.9196V270.487H95.7228V265.944Z" fill="#292A2E"/>
<path opacity="0.05" d="M26.1672 265.944H19.364V270.487H26.1672V265.944Z" fill="#292A2E"/>
<path d="M101.959 174.404H13.1281V265.789H101.959V174.404Z" fill="#F4F4F4"/>
<path opacity="0.03" d="M101.959 174.404H13.1281V265.789H101.959V174.404Z" fill="#292A2E"/>
<path d="M118.42 174.404H29.5894V265.789H118.42V174.404Z" fill="#F4F4F4"/>
<path opacity="0.05" d="M112.185 265.944H105.381V270.487H112.185V265.944Z" fill="#292A2E"/>
<path opacity="0.05" d="M42.6297 265.944H35.8265V270.487H42.6297V265.944Z" fill="#292A2E"/>
<path opacity="0.7" d="M115.086 178.685H32.924V196.242H115.086V178.685Z" fill="white"/>
<path opacity="0.7" d="M115.086 200.539H32.924V218.096H115.086V200.539Z" fill="white"/>
<path opacity="0.7" d="M115.086 222.393H32.924V239.95H115.086V222.393Z" fill="white"/>
<path opacity="0.05" d="M74.0049 189.92C75.3616 189.92 76.4614 188.82 76.4614 187.463C76.4614 186.107 75.3616 185.007 74.0049 185.007C72.6481 185.007 71.5483 186.107 71.5483 187.463C71.5483 188.82 72.6481 189.92 74.0049 189.92Z" fill="#292A2E"/>
<path opacity="0.05" d="M74.0049 211.774C75.3616 211.774 76.4614 210.674 76.4614 209.318C76.4614 207.961 75.3616 206.861 74.0049 206.861C72.6481 206.861 71.5483 207.961 71.5483 209.318C71.5483 210.674 72.6481 211.774 74.0049 211.774Z" fill="#292A2E"/>
<path opacity="0.05" d="M74.0049 233.628C75.3616 233.628 76.4614 232.528 76.4614 231.172C76.4614 229.815 75.3616 228.715 74.0049 228.715C72.6481 228.715 71.5483 229.815 71.5483 231.172C71.5483 232.528 72.6481 233.628 74.0049 233.628Z" fill="#292A2E"/>
<path opacity="0.7" d="M115.086 244.74H32.924V262.297H115.086V244.74Z" fill="white"/>
<path opacity="0.05" d="M74.0049 255.975C75.3616 255.975 76.4614 254.875 76.4614 253.518C76.4614 252.162 75.3616 251.062 74.0049 251.062C72.6481 251.062 71.5483 252.162 71.5483 253.518C71.5483 254.875 72.6481 255.975 74.0049 255.975Z" fill="#292A2E"/>
<path d="M44.6614 83.7014H97.1877L97.1877 15.3322H44.6614L44.6614 83.7014Z" fill="#F4F4F4"/>
<path d="M44.6609 15.3319H42.9569V83.7011H44.6609V15.3319Z" fill="#F4F4F4"/>
<path opacity="0.05" d="M44.6609 15.3319H42.9569V83.7011H44.6609V15.3319Z" fill="#292A2E"/>
<path opacity="0.05" d="M54.2302 71.2466H87.6196V27.7859L54.2302 27.7859L54.2302 71.2466Z" fill="#292A2E"/>
<path opacity="0.03" d="M54.23 71.2466H55.9701L55.9701 27.7859H54.23L54.23 71.2466Z" fill="#292A2E"/>
<path d="M1.70383 143.866H44.6617L44.6617 100.514H1.70383L1.70383 143.866Z" fill="#F4F4F4"/>
<path opacity="0.05" d="M9.52901 135.969H36.8361V108.412H9.52901L9.52901 135.969Z" fill="#292A2E"/>
<path d="M1.704 100.514H0V143.867H1.704V100.514Z" fill="#F4F4F4"/>
<path opacity="0.05" d="M1.704 100.514H0V143.867H1.704V100.514Z" fill="#292A2E"/>
<path opacity="0.03" d="M9.52848 135.969H11.2685L11.2685 108.412H9.52848L9.52848 135.969Z" fill="#292A2E"/>
<path d="M263.654 15.1696H154.041V124.783H263.654V15.1696Z" fill="#F4F4F4"/>
<path d="M154.042 15.1696H152.785V124.783H154.042V15.1696Z" fill="#F4F4F4"/>
<path opacity="0.05" d="M154.042 15.1696H152.785V124.783H154.042V15.1696Z" fill="#292A2E"/>
<path opacity="0.05" d="M180.596 90.702V62.0232H204.088V78.685H240.477V108.186H255.943V124.783H240.477H237.497H159.314V90.702H180.596Z" fill="#292A2E"/>
<path opacity="0.34" d="M201.072 65.1373H183.964V68.2511H201.072V65.1373Z" fill="#FFFFFA"/>
<path opacity="0.34" d="M201.071 71.59H183.964V74.7037H201.071V71.59Z" fill="#FFFFFA"/>
<path opacity="0.34" d="M201.071 78.0424H183.964V81.1561H201.071V78.0424Z" fill="#FFFFFA"/>
<path opacity="0.34" d="M165.5 93.7247H162.347V96.8385H165.5V93.7247Z" fill="#FFFFFA"/>
<path opacity="0.34" d="M165.5 100.177H162.347V103.291H165.5V100.177Z" fill="#FFFFFA"/>
<path opacity="0.34" d="M165.5 106.629H162.347V109.743H165.5V106.629Z" fill="#FFFFFA"/>
<path opacity="0.34" d="M171.334 93.7245H168.18V96.8383H171.334V93.7245Z" fill="#FFFFFA"/>
<path opacity="0.34" d="M171.334 100.177H168.18V103.291H171.334V100.177Z" fill="#FFFFFA"/>
<path opacity="0.34" d="M171.334 106.629H168.18V109.743H171.334V106.629Z" fill="#FFFFFA"/>
<path opacity="0.34" d="M177.009 93.7245H173.856V96.8383H177.009V93.7245Z" fill="#FFFFFA"/>
<path opacity="0.34" d="M177.009 100.177H173.856V103.291H177.009V100.177Z" fill="#FFFFFA"/>
<path opacity="0.34" d="M177.009 106.629H173.856V109.743H177.009V106.629Z" fill="#FFFFFA"/>
<path d="M154.041 69.3614H176.096V15.1692H177.921V69.3614H237.497V15.1692H239.321V69.3614H263.654V71.1854H239.321V124.783H237.497V71.1854H177.921V124.783H176.096V71.1854H154.041V69.3614Z" fill="white"/>
<path d="M268.021 124.65H149.673V128.296H268.021V124.65Z" fill="#F4F4F4"/>
<path opacity="0.1" d="M268.021 124.65H149.673V128.296H268.021V124.65Z" fill="#292A2E"/>
<path opacity="0.1" d="M149.674 124.65H147.965V128.296H149.674V124.65Z" fill="#292A2E"/>
<path opacity="0.1" d="M149.674 124.65H147.965V128.296H149.674V124.65Z" fill="#292A2E"/>
<path d="M244.86 143.429C228.078 143.429 214.474 148.007 214.474 153.655V165.829H275.245V153.655C275.245 148.007 261.641 143.429 244.86 143.429Z" fill="#367CFF"/>
<path opacity="0.49" d="M244.86 143.429C228.078 143.429 214.474 148.007 214.474 153.655V165.829H275.245V153.655C275.245 148.007 261.641 143.429 244.86 143.429Z" fill="white"/>
<path opacity="0.49" d="M266.966 153.656V165.828H214.472V153.656C214.472 148.48 225.898 144.203 240.719 143.527C255.543 144.203 266.966 148.48 266.966 153.656Z" fill="white"/>
<path d="M275.244 284.116H276.264L275.244 164.749L274.233 165.769L274.954 249.15L238.955 249.761L238.229 165.76L237.218 165.769L237.944 249.779L216.213 250.148L215.483 165.76L214.472 164.758L215.492 284.116L216.495 284.107L216.222 251.159L237.953 250.79L238.229 284.116L239.24 284.107L238.964 250.773L274.962 250.161L275.244 284.116Z" fill="#292A2E"/>
<path d="M183.591 266.245C183.591 266.245 181.784 275.612 173.014 276.134C164.243 276.656 166.145 283.643 166.145 283.643H199.661V266.898L183.591 266.245Z" fill="#367CFF"/>
<path d="M202.713 238.07C202.713 238.07 205.226 247.273 197.587 251.613C189.948 255.953 194.738 261.383 194.738 261.383L224.811 246.587L217.42 231.562L202.713 238.07Z" fill="#367CFF"/>
<path d="M199.531 244.153L176.871 158.653C175.152 149.208 177.74 145.114 181.727 141.136C188.733 134.149 217.761 119.277 217.761 119.277L252.586 119.182C261.82 119.182 270.897 128.287 270.897 137.521C270.897 146.755 261.51 154.586 252.276 154.586L209.392 158.866L221.017 237.152L199.531 244.153Z" fill="#262626"/>
<path d="M221.016 237.152L216.44 206.332L193.255 220.474L199.531 244.153L221.016 237.152Z" fill="#0C0C0C"/>
<path d="M226.271 136.579C226.271 136.579 211.632 139.841 197.133 154.34C188.342 163.13 189.063 179.038 190.382 209.634L204.782 188.365L220.576 159.879L226.271 136.579Z" fill="#0C0C0C"/>
<path d="M276.96 119.172L253.309 119.06L253.3 119.372H246.139C246.139 119.372 228.2 135.878 213.758 146.28C203.253 153.845 196.845 161.058 196.29 168.92C194.938 188.083 179.692 269.813 179.692 269.813L202.637 273.288L222.774 175.614C222.774 175.614 254.259 161.098 261.541 156.048C268.399 151.291 273.243 149.452 275.513 144.261C279.432 135.296 276.96 119.172 276.96 119.172Z" fill="#262626"/>
<path d="M250.426 125.129L212.06 125.637L233.582 138.491L251.49 129.244C251.921 129.012 252.262 128.642 252.459 128.194C252.655 127.745 252.695 127.243 252.573 126.769C252.45 126.295 252.172 125.876 251.783 125.578C251.394 125.281 250.916 125.123 250.426 125.129Z" fill="#292A2E"/>
<path opacity="0.2" d="M250.426 125.129L212.06 125.637L233.582 138.491L251.49 129.244C251.921 129.012 252.262 128.642 252.459 128.194C252.655 127.745 252.695 127.243 252.573 126.769C252.45 126.295 252.172 125.876 251.783 125.578C251.394 125.281 250.916 125.123 250.426 125.129Z" fill="white"/>
<path d="M212.279 56.2985L201.427 91.4606L179.691 119.92L192.388 134.495L218.248 105.633C219.439 104.691 220.371 103.462 220.956 102.06L221.359 101.085L236.296 64.9448L212.279 56.2985Z" fill="#367CFF"/>
<path d="M228.996 18.9748C228.996 18.9748 224.623 15.672 223.54 8.07542C222.701 2.19333 228.127 6.00407 228.127 6.00407C228.127 6.00407 227.564 1.76261 230.655 2.18356C233.745 2.6045 235.474 7.05997 235.474 7.05997" fill="#0C0C0C"/>
<path d="M246.627 2.67957C246.627 2.67957 261.96 4.32323 256.417 25.1001L255.06 25.1911L252.306 25.3758" fill="#0C0C0C"/>
<path d="M231.565 46.799C231.632 46.7902 232.38 59.2015 246.798 58.1207C256.781 57.3728 260.341 46.7815 260.569 46.7815C259.493 46.5526 258.163 46.2055 257.634 46.0865C256.482 45.8192 255.439 45.2073 254.643 44.3325C253.847 43.4576 253.336 42.3611 253.179 41.1889C252.887 39.4296 253.381 30.4284 253.23 28.6482L237.908 32.0683C238.122 35.8282 239.621 44.544 234.369 46.0865C233.495 46.3413 232.553 46.5772 231.565 46.799Z" fill="#E98862"/>
<path opacity="0.52" d="M237.694 42.5242C237.934 41.7506 238.088 40.9531 238.155 40.1458C238.323 38.3038 238.289 36.4489 238.054 34.6142C241.168 34.1945 244.103 32.9095 246.523 30.9053C246.808 31.9561 248.373 36.5477 247.939 37.5447C247.121 39.432 243.272 42.5242 237.694 42.5242Z" fill="#0C0C0C"/>
<path d="M240.856 40.0678C246.901 39.5256 254.137 35.7061 254.242 27.4998L254.336 20.0954C254.44 11.8895 250.214 5.18238 242.488 5.08397C234.762 4.98589 228.902 11.5646 228.797 19.7708L228.756 23.0487C228.761 24.1745 228.843 25.2986 229.001 26.4133C229.398 29.3622 230.012 33.8457 232.014 36.8786C233.903 39.7419 236.994 40.414 240.856 40.0678Z" fill="#E98862"/>
<path opacity="0.52" d="M238.051 32.5664C236.804 32.6229 235.56 32.3854 234.421 31.8731C234.375 31.8521 234.338 31.8137 234.32 31.7662C234.301 31.7186 234.302 31.6657 234.322 31.6188C234.342 31.5718 234.38 31.5346 234.427 31.5151C234.474 31.4955 234.527 31.4952 234.574 31.5142C237.028 32.5606 239.256 32.4076 241.017 31.0713C241.053 31.0432 241.09 31.017 241.128 30.9928C241.172 30.972 241.223 30.9685 241.269 30.9832C241.316 30.9979 241.356 31.0296 241.38 31.072C241.405 31.1144 241.412 31.1645 241.401 31.2122C241.391 31.26 241.362 31.302 241.322 31.3298C241.308 31.3386 241.285 31.3565 241.255 31.3807C240.329 32.0861 239.213 32.4989 238.051 32.5664Z" fill="#0C0C0C"/>
<path opacity="0.52" d="M238.109 34.4156C237.884 34.4295 237.657 34.4241 237.433 34.3994C237.407 34.3967 237.383 34.389 237.36 34.3768C237.338 34.3646 237.318 34.348 237.302 34.3281C237.286 34.3082 237.274 34.2854 237.267 34.2608C237.259 34.2363 237.257 34.2105 237.26 34.1851C237.262 34.1596 237.27 34.135 237.282 34.1125C237.294 34.09 237.311 34.0702 237.331 34.0541C237.351 34.038 237.374 34.026 237.398 34.0187C237.423 34.0115 237.449 34.0092 237.474 34.0119C238.824 34.1551 239.469 33.5366 239.496 33.51C239.533 33.4734 239.582 33.4528 239.634 33.4528C239.686 33.4527 239.735 33.4732 239.772 33.5097C239.808 33.5462 239.829 33.5958 239.829 33.6475C239.829 33.6992 239.809 33.7488 239.772 33.7854C239.307 34.1813 238.72 34.404 238.109 34.4156Z" fill="#0C0C0C"/>
<path d="M231.349 24.627C231.875 24.627 232.301 24.2008 232.301 23.6751C232.301 23.1493 231.875 22.7231 231.349 22.7231C230.823 22.7231 230.397 23.1493 230.397 23.6751C230.397 24.2008 230.823 24.627 231.349 24.627Z" fill="#0C0C0C"/>
<path d="M240.647 24.0433C241.173 24.0433 241.599 23.6172 241.599 23.0914C241.599 22.5657 241.173 22.1395 240.647 22.1395C240.121 22.1395 239.695 22.5657 239.695 23.0914C239.695 23.6172 240.121 24.0433 240.647 24.0433Z" fill="#0C0C0C"/>
<path d="M253.73 29.9955C256.078 30.0255 258.013 27.5376 258.044 25.1895C258.074 22.8414 256.186 21.5223 253.838 21.4927L252.608 23.0504L251.712 29.9699L253.73 29.9955Z" fill="#E98862"/>
<path d="M251.394 26.2209C251.394 26.2209 250.601 14.6094 247.08 13.8922C244.735 13.4147 239.048 16.7411 233.781 15.7364C231.476 15.2983 229.289 15.8672 229.066 16.9558C228.978 17.3868 227.543 11.1927 231.151 6.4932C234.024 2.75222 243.426 1.69396 247.704 2.92073C259.548 6.31862 254.322 22.0021 254.322 22.0021L253.793 26.0052L251.394 26.2209Z" fill="#0C0C0C"/>
<g opacity="0.52">
<path d="M236.633 29.8264C236.628 29.8267 236.623 29.8267 236.618 29.8264C235.862 29.819 234.593 29.7216 234.598 29.1557C234.604 28.6866 235.938 23.6369 236.09 23.0626C236.104 23.0132 236.136 22.971 236.18 22.9453C236.224 22.9196 236.277 22.9125 236.326 22.9256C236.376 22.9387 236.418 22.9709 236.444 23.0151C236.469 23.0593 236.476 23.1119 236.463 23.1614C235.87 25.3979 234.987 28.8409 234.984 29.1604C235.057 29.2952 235.838 29.4341 236.622 29.4422C236.671 29.4432 236.718 29.4632 236.753 29.498C236.788 29.5328 236.809 29.5798 236.81 29.6292C236.812 29.6786 236.794 29.7266 236.761 29.7635C236.728 29.8003 236.682 29.8231 236.633 29.827V29.8264Z" fill="#0C0C0C"/>
</g>
<path d="M234.05 18.514C233.255 18.2951 232.415 18.2951 231.62 18.514C231.23 18.6191 230.857 18.7822 230.515 18.998C230.177 19.2093 229.866 19.4625 229.592 19.7516C229.541 19.8031 229.512 19.8721 229.511 19.9444C229.51 20.0166 229.537 20.0865 229.586 20.1394C229.635 20.1924 229.703 20.2244 229.775 20.2287C229.847 20.2331 229.918 20.2094 229.973 20.1627L229.99 20.1479C230.245 19.9122 230.528 19.7097 230.833 19.545C231.132 19.381 231.455 19.2633 231.789 19.1958C232.447 19.0578 233.131 19.096 233.77 19.3067L233.796 19.3161C233.901 19.3498 234.015 19.3414 234.113 19.2927C234.211 19.2439 234.287 19.1587 234.324 19.0551C234.36 18.9515 234.355 18.8377 234.309 18.7379C234.263 18.6382 234.18 18.5602 234.077 18.5208L234.05 18.514Z" fill="#0C0C0C"/>
<path d="M239.681 18.9924C240.286 18.6984 240.958 18.5695 241.629 18.6187C241.97 18.6408 242.305 18.7144 242.623 18.8371C242.947 18.9599 243.254 19.123 243.538 19.3224L243.556 19.3345C243.617 19.3737 243.69 19.3879 243.761 19.3741C243.832 19.3604 243.895 19.3197 243.937 19.2606C243.979 19.2015 243.996 19.1286 243.986 19.057C243.975 18.9855 243.937 18.9208 243.88 18.8765C243.569 18.6266 243.228 18.417 242.864 18.2527C242.496 18.0844 242.105 17.9724 241.704 17.9204C240.887 17.809 240.055 17.9204 239.296 18.2429C239.245 18.265 239.199 18.297 239.16 18.3369C239.122 18.3768 239.091 18.4239 239.071 18.4756C239.051 18.5272 239.041 18.5823 239.042 18.6378C239.043 18.6933 239.055 18.7481 239.077 18.799C239.121 18.9018 239.205 18.9826 239.309 19.0237C239.361 19.044 239.416 19.054 239.472 19.053C239.527 19.0521 239.582 19.0402 239.633 19.018L239.656 19.0069L239.681 18.9924Z" fill="#0C0C0C"/>
<path d="M239.296 6.54571C239.831 3.98763 238.855 1.61952 237.117 1.2564C235.379 0.893279 233.537 2.67266 233.002 5.23074C232.468 7.78882 233.443 10.1569 235.181 10.52C236.919 10.8832 238.762 9.10379 239.296 6.54571Z" fill="#0C0C0C"/>
<path d="M213.649 74.0785C214.104 79.4143 217.323 112.705 217.761 119.278H276.934C277.274 113.35 278.8 87.4287 280.09 75.8351C281.321 64.7732 283.045 59.7394 281.628 56.3021C279.128 50.239 271.17 47.5317 265.781 46.8021C262.491 46.3565 257.541 46.0374 257.541 46.0374C257.541 46.0374 257.122 54.5145 247.13 54.9864C233.528 55.6267 234.437 46.0374 234.369 46.0374C232.165 46.0374 220.171 47.6399 217.172 49.5946C212.936 52.3556 211.683 56.1184 211.634 59.5753C211.577 63.5566 213.135 68.0259 213.649 74.0785Z" fill="#367CFF"/>
<path d="M216.65 106.158C216.607 106.158 216.567 106.142 216.535 106.114C216.504 106.085 216.485 106.046 216.481 106.004L214.239 80.3633C214.235 80.3188 214.249 80.2746 214.278 80.2403C214.307 80.2061 214.348 80.1846 214.392 80.1807C214.414 80.1784 214.437 80.1806 214.458 80.1871C214.479 80.1937 214.499 80.2044 214.516 80.2187C214.533 80.233 214.547 80.2506 214.557 80.2704C214.567 80.2902 214.573 80.3118 214.575 80.334L216.817 105.975C216.821 106.019 216.807 106.063 216.778 106.098C216.749 106.132 216.708 106.153 216.664 106.157C216.659 106.158 216.654 106.158 216.65 106.158Z" fill="#0C0C0C"/>
<path d="M220.94 121.052L229.065 114.46L227.698 114.847C227.254 114.963 226.783 114.906 226.379 114.687C225.976 114.469 225.67 114.106 225.524 113.671C225.457 113.444 225.436 113.206 225.464 112.97C225.491 112.735 225.567 112.508 225.685 112.303C225.804 112.098 225.962 111.919 226.152 111.777C226.342 111.635 226.559 111.533 226.789 111.478L243.858 107.327L245.327 112.764C245.783 114.452 245.725 116.238 245.159 117.894C244.594 119.549 243.547 120.997 242.153 122.054L235.828 126.827C235.504 127.081 235.103 127.215 234.691 127.207C234.28 127.199 233.884 127.05 233.57 126.783C233.291 126.537 233.099 126.207 233.021 125.844C232.943 125.48 232.983 125.101 233.136 124.761C233.109 124.753 233.084 124.738 233.065 124.717C233.048 124.696 233.036 124.672 233.031 124.646C233.025 124.62 233.027 124.593 233.034 124.568L231.869 125.45C231.509 125.734 231.055 125.871 230.597 125.833C230.14 125.795 229.715 125.585 229.406 125.245C229.142 124.932 228.996 124.535 228.995 124.125C228.994 123.715 229.137 123.318 229.4 123.003C229.382 123 229.364 122.994 229.348 122.985L228.869 123.347C228.545 123.601 228.144 123.736 227.732 123.728C227.321 123.72 226.925 123.571 226.611 123.304C226.273 123.005 226.064 122.587 226.028 122.137C225.992 121.687 226.132 121.241 226.418 120.892C226.411 120.882 226.405 120.871 226.401 120.86L223.017 123.605C222.849 123.741 222.656 123.843 222.449 123.905C222.242 123.966 222.025 123.986 221.81 123.964C221.596 123.941 221.387 123.877 221.197 123.774C221.007 123.671 220.84 123.532 220.704 123.364C220.567 123.196 220.466 123.004 220.404 122.796C220.343 122.589 220.323 122.372 220.345 122.157C220.367 121.943 220.432 121.734 220.535 121.544C220.638 121.355 220.777 121.187 220.945 121.051L220.94 121.052Z" fill="#E98862"/>
<path opacity="0.2" d="M226.602 120.958C226.62 120.952 226.637 120.942 226.652 120.93L229.907 118.226C229.924 118.212 229.937 118.195 229.947 118.176C229.957 118.157 229.964 118.136 229.966 118.115C229.967 118.093 229.965 118.072 229.959 118.051C229.952 118.031 229.942 118.011 229.928 117.995C229.915 117.978 229.898 117.965 229.879 117.955C229.86 117.945 229.839 117.939 229.817 117.937C229.796 117.935 229.774 117.937 229.754 117.943C229.733 117.95 229.714 117.96 229.698 117.974L226.442 120.678C226.413 120.703 226.393 120.737 226.386 120.775C226.379 120.813 226.386 120.852 226.405 120.885C226.424 120.919 226.454 120.944 226.49 120.958C226.526 120.971 226.566 120.971 226.602 120.958Z" fill="#0A0A0A"/>
<path opacity="0.2" d="M229.472 123.001C229.49 122.995 229.506 122.986 229.52 122.974L232.096 120.868C232.129 120.841 232.151 120.801 232.155 120.758C232.159 120.714 232.146 120.671 232.119 120.637C232.091 120.604 232.052 120.582 232.008 120.578C231.965 120.574 231.922 120.587 231.888 120.614L229.313 122.72C229.283 122.744 229.263 122.779 229.256 122.817C229.248 122.855 229.255 122.894 229.274 122.928C229.293 122.961 229.323 122.987 229.36 123.001C229.396 123.014 229.436 123.014 229.472 123.001Z" fill="#0A0A0A"/>
<path opacity="0.2" d="M233.241 124.767C233.26 124.76 233.277 124.75 233.292 124.737L234.485 123.714C234.502 123.7 234.515 123.683 234.525 123.663C234.534 123.644 234.54 123.623 234.542 123.602C234.544 123.581 234.541 123.559 234.534 123.539C234.528 123.518 234.517 123.499 234.503 123.483C234.489 123.467 234.472 123.453 234.453 123.443C234.434 123.434 234.413 123.428 234.391 123.426C234.37 123.425 234.348 123.427 234.328 123.434C234.308 123.441 234.289 123.451 234.272 123.465L233.079 124.488C233.05 124.513 233.031 124.547 233.025 124.585C233.018 124.623 233.025 124.662 233.044 124.695C233.064 124.728 233.094 124.753 233.13 124.766C233.166 124.779 233.205 124.779 233.241 124.767Z" fill="#0A0A0A"/>
<path d="M292.751 104.906L292.689 104.629L281.888 56.8586L260.521 61.6889L268.951 98.977L235.181 107.275L239.337 126.33L284.339 117.746C284.44 117.726 284.59 117.696 284.692 117.673C286.06 117.364 287.353 116.788 288.498 115.979C289.643 115.17 290.618 114.144 291.366 112.958C292.114 111.773 292.622 110.452 292.859 109.07C293.097 107.688 293.06 106.273 292.751 104.906Z" fill="#367CFF"/>
<path d="M235.016 107.311C235.007 107.269 235.015 107.224 235.038 107.187C235.061 107.15 235.098 107.124 235.14 107.113L268.759 98.8561L263.293 74.713C263.287 74.691 263.285 74.668 263.288 74.6453C263.291 74.6227 263.299 74.6009 263.311 74.5813C263.322 74.5617 263.338 74.5446 263.356 74.5312C263.375 74.5178 263.396 74.5083 263.418 74.5032C263.44 74.4981 263.463 74.4977 263.486 74.5018C263.508 74.5059 263.53 74.5146 263.549 74.5273C263.568 74.5399 263.584 74.5563 263.596 74.5754C263.609 74.5945 263.617 74.616 263.621 74.6385L269.124 98.943C269.134 98.9863 269.127 99.0318 269.104 99.0697C269.081 99.1075 269.043 99.1347 269 99.1453L235.379 107.402C235.379 107.402 235.604 108.385 235.668 108.717C235.673 108.76 235.661 108.803 235.634 108.837C235.607 108.871 235.567 108.893 235.524 108.898C235.481 108.903 235.437 108.891 235.403 108.864C235.369 108.837 235.347 108.798 235.342 108.755C235.265 108.391 235.016 107.311 235.016 107.311Z" fill="#0C0C0C"/>
<path d="M236.334 133.919L223.35 94.0077C223.122 93.3063 222.677 92.6951 222.081 92.2617C221.484 91.8283 220.765 91.5949 220.028 91.595H167.131C166.579 91.5949 166.036 91.7254 165.544 91.9758C165.053 92.2262 164.628 92.5893 164.304 93.0354C163.98 93.4816 163.766 93.9981 163.68 94.5428C163.594 95.0874 163.638 95.6447 163.808 96.1691L176.793 136.081C177.021 136.782 177.465 137.393 178.062 137.826C178.659 138.26 179.377 138.493 180.115 138.493H233.011C233.563 138.493 234.106 138.363 234.598 138.112C235.089 137.862 235.514 137.499 235.838 137.053C236.162 136.607 236.376 136.09 236.462 135.545C236.548 135.001 236.504 134.444 236.334 133.919Z" fill="#292A2E"/>
<path opacity="0.2" d="M236.334 133.919L223.35 94.0077C223.122 93.3063 222.677 92.6951 222.081 92.2617C221.484 91.8283 220.765 91.5949 220.028 91.595H167.131C166.579 91.5949 166.036 91.7254 165.544 91.9758C165.053 92.2262 164.628 92.5893 164.304 93.0354C163.98 93.4816 163.766 93.9981 163.68 94.5428C163.594 95.0874 163.638 95.6447 163.808 96.1691L176.793 136.081C177.021 136.782 177.465 137.393 178.062 137.826C178.659 138.26 179.377 138.493 180.115 138.493H233.011C233.563 138.493 234.106 138.363 234.598 138.112C235.089 137.862 235.514 137.499 235.838 137.053C236.162 136.607 236.376 136.09 236.462 135.545C236.548 135.001 236.504 134.444 236.334 133.919Z" fill="white"/>
<path d="M198.548 120.592C201.612 120.592 204.096 118.108 204.096 115.044C204.096 111.98 201.612 109.496 198.548 109.496C195.484 109.496 193 111.98 193 115.044C193 118.108 195.484 120.592 198.548 120.592Z" fill="white"/>
<path d="M146.322 4.21741H41.334C36.4701 4.21741 32.5272 8.16034 32.5272 13.0242V140.477C32.5272 145.341 36.4701 149.284 41.334 149.284H146.322C151.185 149.284 155.128 145.341 155.128 140.477V13.0242C155.128 8.16034 151.185 4.21741 146.322 4.21741Z" fill="#292A2E"/>
<path d="M150.202 0.336792H45.2144C40.3505 0.336792 36.4076 4.27973 36.4076 9.14359V136.596C36.4076 141.46 40.3505 145.403 45.2144 145.403H150.202C155.066 145.403 159.009 141.46 159.009 136.596V9.14359C159.009 4.27973 155.066 0.336792 150.202 0.336792Z" fill="white"/>
<path d="M150.203 145.74H45.2153C42.791 145.738 40.4667 144.773 38.7525 143.059C37.0383 141.345 36.0741 139.02 36.0715 136.596V9.14382C36.0742 6.71955 37.0384 4.39534 38.7526 2.68112C40.4669 0.9669 42.7911 0.00267619 45.2153 0L150.203 0C152.627 0.00276538 154.951 0.967028 156.665 2.68124C158.38 4.39545 159.344 6.71961 159.346 9.14382V136.596C159.344 139.02 158.38 141.345 156.665 143.059C154.951 144.773 152.627 145.738 150.203 145.74ZM45.2153 0.67405C42.9698 0.676547 40.8169 1.5697 39.2291 3.15755C37.6412 4.7454 36.7481 6.89826 36.7456 9.14382V136.596C36.7481 138.842 37.6412 140.995 39.2291 142.582C40.8169 144.17 42.9698 145.063 45.2153 145.066H150.203C152.448 145.063 154.601 144.17 156.189 142.582C157.777 140.995 158.67 138.842 158.672 136.596V9.14382C158.67 6.89829 157.777 4.74543 156.189 3.15757C154.601 1.56971 152.448 0.676548 150.203 0.67405H45.2153Z" fill="#292A2E"/>
<path d="M34.9932 163.64C47.069 163.64 56.8583 153.851 56.8583 141.775C56.8583 129.7 47.069 119.91 34.9932 119.91C22.9174 119.91 13.128 129.7 13.128 141.775C13.128 153.851 22.9174 163.64 34.9932 163.64Z" fill="#292A2E"/>
<path d="M30.453 138.922C30.1652 138.922 29.8891 138.808 29.6856 138.604C29.482 138.401 29.3676 138.125 29.3675 137.837V132.582C29.3675 129.677 31.8908 127.312 34.9921 127.312C38.0934 127.312 40.6167 129.677 40.6167 132.582V137.476C40.6192 137.62 40.593 137.764 40.5396 137.897C40.4862 138.031 40.4067 138.153 40.3057 138.256C40.2046 138.359 40.0841 138.441 39.9512 138.496C39.8182 138.552 39.6755 138.581 39.5313 138.581C39.3871 138.581 39.2444 138.552 39.1115 138.496C38.9785 138.441 38.858 138.359 38.757 138.256C38.6559 138.153 38.5764 138.031 38.523 137.897C38.4696 137.764 38.4434 137.62 38.4459 137.476V132.582C38.4459 130.874 36.8956 129.483 34.9921 129.483C33.0886 129.483 31.5383 130.874 31.5383 132.582V137.837C31.5381 138.125 31.4237 138.401 31.2202 138.604C31.0167 138.808 30.7408 138.922 30.453 138.922Z" fill="white"/>
<path d="M41.9176 136.928H28.0685C27.2609 136.928 26.6062 137.583 26.6062 138.39V151.435C26.6062 152.243 27.2609 152.898 28.0685 152.898H41.9176C42.7252 152.898 43.3799 152.243 43.3799 151.435V138.39C43.3799 137.583 42.7252 136.928 41.9176 136.928Z" fill="white"/>
<path d="M33.6142 143.622C33.6141 143.881 33.6867 144.134 33.8238 144.353C33.9608 144.573 34.1568 144.749 34.3894 144.863V146.981C34.3894 147.141 34.4528 147.294 34.5657 147.407C34.6785 147.52 34.8316 147.583 34.9913 147.583C35.1509 147.583 35.304 147.52 35.4169 147.407C35.5298 147.294 35.5932 147.141 35.5932 146.981V144.863C35.8147 144.755 36.0034 144.59 36.1397 144.385C36.2759 144.18 36.3548 143.943 36.368 143.697C36.3813 143.451 36.3285 143.206 36.2151 142.987C36.1018 142.769 35.9319 142.585 35.7233 142.454C35.5147 142.323 35.2748 142.251 35.0287 142.244C34.7826 142.237 34.5392 142.297 34.3238 142.416C34.1083 142.535 33.9288 142.71 33.8037 142.922C33.6786 143.134 33.6126 143.376 33.6125 143.622H33.6142Z" fill="#292A2E"/>
<path d="M141.034 72.7206H54.3823C52.3138 72.7206 50.6369 74.3974 50.6369 76.4659V88.6137C50.6369 90.6822 52.3138 92.359 54.3823 92.359H141.034C143.102 92.359 144.779 90.6822 144.779 88.6137V76.4659C144.779 74.3974 143.102 72.7206 141.034 72.7206Z" fill="white"/>
<path d="M141.034 92.6959H54.3824C53.3001 92.6947 52.2624 92.2641 51.4971 91.4988C50.7318 90.7335 50.3013 89.6959 50.3 88.6135V76.4661C50.3013 75.3838 50.7318 74.3461 51.4971 73.5807C52.2624 72.8153 53.3001 72.3848 54.3824 72.3834H141.034C142.116 72.3847 143.154 72.8152 143.919 73.5806C144.684 74.346 145.115 75.3837 145.116 76.4661V88.6135C145.115 89.6959 144.684 90.7336 143.919 91.4989C143.154 92.2643 142.116 92.6947 141.034 92.6959ZM54.3824 73.0575C53.4787 73.0585 52.6123 73.4179 51.9733 74.057C51.3343 74.696 50.975 75.5624 50.9741 76.4661V88.6135C50.9751 89.5172 51.3345 90.3835 51.9734 91.0225C52.6124 91.6615 53.4788 92.0209 54.3824 92.0219H141.034C141.937 92.0209 142.804 91.6615 143.443 91.0225C144.082 90.3836 144.441 89.5172 144.442 88.6135V76.4661C144.441 75.5624 144.082 74.696 143.443 74.0569C142.804 73.4179 141.937 73.0585 141.034 73.0575H54.3824Z" fill="#292A2E"/>
<path d="M141.034 100.787H54.3824C52.3139 100.787 50.6371 102.464 50.6371 104.532V116.68C50.6371 118.748 52.3139 120.425 54.3824 120.425H141.034C143.102 120.425 144.779 118.748 144.779 116.68V104.532C144.779 102.464 143.102 100.787 141.034 100.787Z" fill="white"/>
<path d="M141.034 120.762H54.3824C53.2999 120.761 52.2621 120.33 51.4968 119.565C50.7314 118.799 50.301 117.761 50.3 116.679V104.532C50.3013 103.45 50.7318 102.412 51.4971 101.647C52.2624 100.882 53.3001 100.451 54.3824 100.45H141.034C142.116 100.451 143.154 100.881 143.919 101.647C144.684 102.412 145.115 103.45 145.116 104.532V116.679C145.115 117.761 144.685 118.799 143.919 119.565C143.154 120.33 142.116 120.761 141.034 120.762ZM54.3824 101.124C53.4788 101.125 52.6124 101.484 51.9734 102.123C51.3345 102.762 50.9751 103.629 50.9741 104.532V116.679C50.9751 117.582 51.3345 118.449 51.9734 119.088C52.6124 119.727 53.4788 120.086 54.3824 120.087H141.034C141.937 120.086 142.804 119.727 143.443 119.088C144.082 118.449 144.441 117.582 144.442 116.679V104.532C144.441 103.629 144.082 102.762 143.443 102.123C142.804 101.484 141.937 101.125 141.034 101.124H54.3824Z" fill="#292A2E"/>
<path d="M97.708 58.1137C108.819 58.1137 117.826 49.1064 117.826 37.9953C117.826 26.8843 108.819 17.877 97.708 17.877C86.597 17.877 77.5897 26.8843 77.5897 37.9953C77.5897 49.1064 86.597 58.1137 97.708 58.1137Z" fill="white"/>
<path d="M97.7076 58.4504C93.6619 58.4504 89.7071 57.2508 86.3432 55.0031C82.9793 52.7554 80.3575 49.5607 78.8093 45.823C77.2611 42.0853 76.856 37.9724 77.6453 34.0044C78.4345 30.0365 80.3827 26.3917 83.2435 23.5309C86.1042 20.6702 89.749 18.722 93.717 17.9327C97.6849 17.1435 101.798 17.5485 105.536 19.0968C109.273 20.645 112.468 23.2668 114.716 26.6307C116.963 29.9945 118.163 33.9494 118.163 37.9951C118.157 43.4183 116 48.6177 112.165 52.4525C108.33 56.2873 103.131 58.4444 97.7076 58.4504ZM97.7076 18.2137C93.7952 18.2137 89.9707 19.3739 86.7177 21.5475C83.4647 23.7211 80.9292 26.8105 79.432 30.4251C77.9348 34.0396 77.5431 38.017 78.3064 41.8542C79.0696 45.6914 80.9536 49.2161 83.7201 51.9826C86.4866 54.7491 90.0113 56.633 93.8485 57.3963C97.6857 58.1596 101.663 57.7678 105.278 56.2706C108.892 54.7734 111.982 52.238 114.155 48.985C116.329 45.732 117.489 41.9074 117.489 37.9951C117.483 32.7505 115.397 27.7225 111.689 24.0141C107.98 20.3056 102.952 18.2196 97.7076 18.2137Z" fill="#292A2E"/>
<path opacity="0.5" d="M117.38 37.9948C117.385 42.6514 115.733 47.1579 112.719 50.707C110.862 48.5425 108.559 46.8052 105.968 45.6143C103.377 44.4234 100.559 43.807 97.7069 43.8075C94.8552 43.8081 92.0373 44.4254 89.4466 45.6173C86.8559 46.8091 84.5536 48.5472 82.6977 50.7124C80.6508 48.2965 79.2173 45.4221 78.519 42.3336C77.8207 39.245 77.8783 36.0335 78.6868 32.972C79.4954 29.9105 81.0311 27.0893 83.1633 24.7483C85.2956 22.4073 87.9614 20.6157 90.9344 19.5255C93.9073 18.4353 97.0995 18.0789 100.24 18.4866C103.38 18.8942 106.375 20.0538 108.971 21.8669C111.567 23.68 113.687 26.0929 115.151 28.9008C116.615 31.7086 117.38 34.8283 117.38 37.9948Z" fill="#367CFF"/>
<path d="M112.719 50.7073C110.872 52.8877 108.573 54.6396 105.981 55.8415C103.389 57.0433 100.566 57.6661 97.7094 57.6666C94.8523 57.6671 92.0294 57.0453 89.437 55.8444C86.8446 54.6435 84.5449 52.8924 82.6977 50.7127C84.5536 48.5475 86.8559 46.8094 89.4466 45.6176C92.0373 44.4257 94.8552 43.8084 97.7069 43.8079C100.559 43.8073 103.377 44.4237 105.968 45.6146C108.559 46.8055 110.862 48.5428 112.719 50.7073Z" fill="white"/>
<path d="M97.7087 40.137C102.1 40.137 105.66 36.577 105.66 32.1856C105.66 27.7941 102.1 24.2341 97.7087 24.2341C93.3173 24.2341 89.7573 27.7941 89.7573 32.1856C89.7573 36.577 93.3173 40.137 97.7087 40.137Z" fill="white"/>
<g opacity="0.4">
<path d="M57.9307 112.997C59.2515 112.997 60.3222 111.927 60.3222 110.606C60.3222 109.285 59.2515 108.214 57.9307 108.214C56.6098 108.214 55.5391 109.285 55.5391 110.606C55.5391 111.927 56.6098 112.997 57.9307 112.997Z" fill="#292A2E"/>
<path d="M65.4119 112.997C66.7327 112.997 67.8034 111.927 67.8034 110.606C67.8034 109.285 66.7327 108.214 65.4119 108.214C64.0911 108.214 63.0204 109.285 63.0204 110.606C63.0204 111.927 64.0911 112.997 65.4119 112.997Z" fill="#292A2E"/>
<path d="M72.8919 112.997C74.2127 112.997 75.2834 111.927 75.2834 110.606C75.2834 109.285 74.2127 108.214 72.8919 108.214C71.5711 108.214 70.5003 109.285 70.5003 110.606C70.5003 111.927 71.5711 112.997 72.8919 112.997Z" fill="#292A2E"/>
<path d="M80.3733 112.997C81.6941 112.997 82.7648 111.927 82.7648 110.606C82.7648 109.285 81.6941 108.214 80.3733 108.214C79.0525 108.214 77.9818 109.285 77.9818 110.606C77.9818 111.927 79.0525 112.997 80.3733 112.997Z" fill="#292A2E"/>
<path d="M87.8537 112.997C89.1745 112.997 90.2452 111.927 90.2452 110.606C90.2452 109.285 89.1745 108.214 87.8537 108.214C86.5328 108.214 85.4621 109.285 85.4621 110.606C85.4621 111.927 86.5328 112.997 87.8537 112.997Z" fill="#292A2E"/>
<path d="M95.334 112.997C96.6548 112.997 97.7255 111.927 97.7255 110.606C97.7255 109.285 96.6548 108.214 95.334 108.214C94.0132 108.214 92.9425 109.285 92.9425 110.606C92.9425 111.927 94.0132 112.997 95.334 112.997Z" fill="#292A2E"/>
<path d="M102.816 112.997C104.137 112.997 105.208 111.927 105.208 110.606C105.208 109.285 104.137 108.214 102.816 108.214C101.496 108.214 100.425 109.285 100.425 110.606C100.425 111.927 101.496 112.997 102.816 112.997Z" fill="#292A2E"/>
</g>
<g opacity="0.3">
<path d="M60.3026 82.3954V83.2042H57.2313V82.3954H60.3026Z" fill="black"/>
<path d="M64.1186 82.3954V83.2042H61.0473V82.3954H64.1186Z" fill="black"/>
<path d="M67.9357 82.3954V83.2042H64.8644V82.3954H67.9357Z" fill="black"/>
<path d="M71.7522 82.3954V83.2042H68.6809V82.3954H71.7522Z" fill="black"/>
<path d="M75.5689 82.3954V83.2042H72.4972V82.3954H75.5689Z" fill="black"/>
<path d="M82.4567 86.9591C81.7736 87.31 81.0124 87.4815 80.2448 87.4575C78.2055 87.4575 76.4769 85.9652 76.4769 83.5777C76.4769 81.0163 78.2553 78.8027 81.0156 78.8027C83.1793 78.8027 84.6342 80.3193 84.6342 82.3964C84.6342 84.2619 83.5894 85.3558 82.4206 85.3558C81.9235 85.3558 81.4635 85.0188 81.5005 84.2619H81.4507C81.2899 84.5897 81.0405 84.8659 80.7307 85.0593C80.421 85.2526 80.0633 85.3554 79.6981 85.3558C78.9769 85.3558 78.3551 84.7714 78.3551 83.7893C78.3537 83.4019 78.429 83.018 78.5766 82.6598C78.7243 82.3016 78.9413 81.9762 79.2152 81.7022C79.4892 81.4283 79.8147 81.2112 80.1729 81.0636C80.5311 80.916 80.9149 80.8407 81.3024 80.8421C81.7593 80.8354 82.2125 80.9244 82.6329 81.1033L82.21 83.3539C82.0236 84.2976 82.1729 84.7357 82.5831 84.7468C83.2173 84.759 83.9261 83.9134 83.9261 82.4712C83.9261 80.6682 82.8443 79.375 80.9168 79.375C78.8899 79.375 77.1863 80.9789 77.1863 83.5032C77.1863 85.58 78.5418 86.8607 80.3823 86.8607C81.0348 86.8758 81.6805 86.7262 82.2599 86.4256L82.4567 86.9591ZM81.7729 81.5872C81.571 81.5279 81.3615 81.4986 81.151 81.5003C80.0567 81.5003 79.1741 82.5322 79.1741 83.7385C79.1741 84.2854 79.4477 84.6821 79.9947 84.6821C80.7159 84.6821 81.3748 83.762 81.5113 82.9909L81.7729 81.5872Z" fill="black"/>
<path d="M88.5486 82.3954V83.2042H85.4773V82.3954H88.5486Z" fill="black"/>
<path d="M92.3659 82.3954V83.2042H89.2942V82.3954H92.3659Z" fill="black"/>
<path d="M96.1817 82.3954V83.2042H93.1104V82.3954H96.1817Z" fill="black"/>
</g>
</svg>
