<svg width="637" height="136" viewBox="0 0 637 136" fill="none" xmlns="http://www.w3.org/2000/svg">
<path d="M172.111 31.311H172.11H152.159V11V10.5H151.659H107.329H106.829V11V31.311H86.9238H86.9231C85.4741 31.313 84.0956 31.946 83.0865 33.0534C82.0788 34.1592 81.5188 35.6493 81.5171 37.195V37.1955L81.5171 109.811L81.5171 109.811C81.5189 111.357 82.0788 112.847 83.0865 113.953C84.0956 115.06 85.4742 115.693 86.9231 115.695H86.9238H172.11H172.111C173.56 115.693 174.939 115.06 175.948 113.953C176.955 112.847 177.515 111.357 177.517 109.811V109.811V37.1955V37.195C177.515 35.6493 176.955 34.1592 175.948 33.0534C174.939 31.946 173.56 31.313 172.111 31.311ZM159.618 67.6152H133.339V57.9563V57.4563H132.839H126.195H125.695V57.9563V67.6152H99.4165L89.1608 56.3616V39.6018H169.873V56.3616L159.618 67.6152ZM162.96 75.7428L169.873 68.1564V107.405H89.1608V68.1564L96.0742 75.7428L96.2229 75.906H96.4437H125.695V85.6736V86.1736H126.195H132.839H133.339V85.6736V75.906H162.59H162.811L162.96 75.7428ZM114.168 18.4565H144.82V31.311H114.168V18.4565Z" fill="#50A8EA" stroke="#50A8EA"/>
<path d="M43.9773 28.7273H54.5455V91.1136C54.5455 96.6818 53.5227 101.412 51.4773 105.304C49.4318 109.196 46.5483 112.151 42.8267 114.168C39.1051 116.185 34.7159 117.193 29.6591 117.193C24.8864 117.193 20.6392 116.327 16.9176 114.594C13.196 112.832 10.2699 110.332 8.1392 107.094C6.00852 103.855 4.94318 100.006 4.94318 95.5455H15.3409C15.3409 98.017 15.9517 100.176 17.1733 102.023C18.4233 103.841 20.1278 105.261 22.2869 106.284C24.446 107.307 26.9034 107.818 29.6591 107.818C32.6989 107.818 35.2841 107.179 37.4148 105.901C39.5455 104.622 41.1648 102.747 42.2727 100.276C43.4091 97.7756 43.9773 94.7216 43.9773 91.1136V28.7273ZM210.724 116V28.7273H241.236C247.315 28.7273 252.33 29.7784 256.278 31.8807C260.227 33.9545 263.168 36.7528 265.099 40.2756C267.031 43.7699 267.997 47.6477 267.997 51.9091C267.997 55.6591 267.33 58.7557 265.994 61.1989C264.688 63.642 262.955 65.5739 260.795 66.9943C258.665 68.4148 256.349 69.4659 253.849 70.1477V71C256.52 71.1705 259.205 72.108 261.903 73.8125C264.602 75.517 266.861 77.9602 268.679 81.142C270.497 84.3239 271.406 88.2159 271.406 92.8182C271.406 97.1932 270.412 101.128 268.423 104.622C266.435 108.116 263.295 110.886 259.006 112.932C254.716 114.977 249.134 116 242.259 116H210.724ZM221.293 106.625H242.259C249.162 106.625 254.063 105.29 256.96 102.619C259.886 99.9205 261.349 96.6534 261.349 92.8182C261.349 89.8636 260.597 87.1364 259.091 84.6364C257.585 82.108 255.44 80.0909 252.656 78.5852C249.872 77.0511 246.577 76.2841 242.77 76.2841H221.293V106.625ZM221.293 67.0795H240.895C244.077 67.0795 246.946 66.4545 249.503 65.2045C252.088 63.9545 254.134 62.1932 255.639 59.9205C257.173 57.6477 257.94 54.9773 257.94 51.9091C257.94 48.0739 256.605 44.821 253.935 42.1506C251.264 39.4517 247.031 38.1023 241.236 38.1023H221.293V67.0795ZM288.771 116V28.7273H319.283C325.362 28.7273 330.376 29.7784 334.325 31.8807C338.274 33.9545 341.214 36.7528 343.146 40.2756C345.078 43.7699 346.044 47.6477 346.044 51.9091C346.044 55.6591 345.376 58.7557 344.041 61.1989C342.734 63.642 341.001 65.5739 338.842 66.9943C336.712 68.4148 334.396 69.4659 331.896 70.1477V71C334.567 71.1705 337.251 72.108 339.95 73.8125C342.649 75.517 344.908 77.9602 346.726 81.142C348.544 84.3239 349.453 88.2159 349.453 92.8182C349.453 97.1932 348.459 101.128 346.47 104.622C344.482 108.116 341.342 110.886 337.053 112.932C332.763 114.977 327.18 116 320.305 116H288.771ZM299.339 106.625H320.305C327.209 106.625 332.109 105.29 335.007 102.619C337.933 99.9205 339.396 96.6534 339.396 92.8182C339.396 89.8636 338.643 87.1364 337.138 84.6364C335.632 82.108 333.487 80.0909 330.703 78.5852C327.919 77.0511 324.624 76.2841 320.817 76.2841H299.339V106.625ZM299.339 67.0795H318.942C322.124 67.0795 324.993 66.4545 327.55 65.2045C330.135 63.9545 332.18 62.1932 333.686 59.9205C335.22 57.6477 335.987 54.9773 335.987 51.9091C335.987 48.0739 334.652 44.821 331.982 42.1506C329.311 39.4517 325.078 38.1023 319.283 38.1023H299.339V67.0795ZM372.784 116.682C370.682 116.682 368.878 115.929 367.372 114.423C365.866 112.918 365.114 111.114 365.114 109.011C365.114 106.909 365.866 105.105 367.372 103.599C368.878 102.094 370.682 101.341 372.784 101.341C374.886 101.341 376.69 102.094 378.196 103.599C379.702 105.105 380.455 106.909 380.455 109.011C380.455 110.403 380.099 111.682 379.389 112.847C378.707 114.011 377.784 114.949 376.619 115.659C375.483 116.341 374.205 116.682 372.784 116.682ZM399.865 116V28.7273H452.536V38.1023H410.433V67.5909H449.808V76.9659H410.433V106.625H453.217V116H399.865ZM471.584 116V28.7273H501.072C507.891 28.7273 513.487 29.892 517.862 32.2216C522.237 34.5227 525.476 37.6903 527.578 41.7244C529.68 45.7585 530.732 50.3466 530.732 55.4886C530.732 60.6307 529.68 65.1903 527.578 69.1676C525.476 73.1449 522.251 76.2699 517.905 78.5426C513.558 80.7869 508.004 81.9091 501.243 81.9091H477.379V72.3636H500.902C505.561 72.3636 509.311 71.6818 512.152 70.3182C515.021 68.9545 517.095 67.0227 518.374 64.5227C519.68 61.9943 520.334 58.983 520.334 55.4886C520.334 51.9943 519.68 48.9403 518.374 46.3267C517.067 43.7131 514.979 41.696 512.109 40.2756C509.24 38.8267 505.447 38.1023 500.732 38.1023H482.152V116H471.584ZM512.663 76.7955L534.141 116H521.868L500.732 76.7955H512.663Z" fill="white"/>
</svg>
