<svg width="195" height="47" viewBox="0 0 195 47" fill="none" xmlns="http://www.w3.org/2000/svg">
<path d="M16.858 11.5455H20.9091V35.4602C20.9091 37.5947 20.517 39.4079 19.733 40.8999C18.9489 42.3918 17.8435 43.5244 16.4169 44.2976C14.9903 45.0708 13.3078 45.4574 11.3693 45.4574C9.53977 45.4574 7.9117 45.1252 6.48509 44.4609C5.05848 43.7857 3.93679 42.8274 3.12003 41.5859C2.30327 40.3445 1.89489 38.8688 1.89489 37.1591H5.88068C5.88068 38.1065 6.11482 38.9342 6.5831 39.642C7.06226 40.339 7.71567 40.8835 8.54332 41.2756C9.37098 41.6676 10.313 41.8636 11.3693 41.8636C12.5346 41.8636 13.5256 41.6186 14.3423 41.1286C15.1591 40.6385 15.7798 39.9197 16.2045 38.9723C16.6402 38.014 16.858 36.8433 16.858 35.4602V11.5455ZM67.8402 45V11.5455H79.5362C81.8667 11.5455 83.7888 11.9484 85.3026 12.7543C86.8163 13.5492 87.9434 14.6219 88.6839 15.9723C89.4245 17.3118 89.7947 18.7983 89.7947 20.4318C89.7947 21.8693 89.5388 23.0563 89.027 23.9929C88.526 24.9295 87.8617 25.67 87.0341 26.2145C86.2173 26.759 85.3298 27.1619 84.3714 27.4233V27.75C85.3951 27.8153 86.4242 28.1747 87.4588 28.8281C88.4934 29.4815 89.3591 30.4181 90.0561 31.6378C90.7531 32.8575 91.1016 34.3494 91.1016 36.1136C91.1016 37.7907 90.7204 39.299 89.9581 40.6385C89.1958 41.978 87.9924 43.0398 86.348 43.8239C84.7036 44.608 82.5637 45 79.9283 45H67.8402ZM71.8913 41.4062H79.9283C82.5746 41.4062 84.4531 40.8944 85.5639 39.8707C86.6856 38.8362 87.2464 37.5838 87.2464 36.1136C87.2464 34.9811 86.9579 33.9356 86.3807 32.9773C85.8035 32.008 84.9813 31.2348 83.9141 30.6577C82.8468 30.0696 81.5836 29.7756 80.1243 29.7756H71.8913V41.4062ZM71.8913 26.2472H79.4055C80.6252 26.2472 81.7251 26.0076 82.7053 25.5284C83.6963 25.0492 84.4804 24.3741 85.0575 23.5028C85.6456 22.6316 85.9396 21.608 85.9396 20.4318C85.9396 18.9616 85.4278 17.7147 84.4041 16.6911C83.3804 15.6565 81.7578 15.1392 79.5362 15.1392H71.8913V26.2472ZM97.7582 45V11.5455H109.454C111.785 11.5455 113.707 11.9484 115.221 12.7543C116.734 13.5492 117.861 14.6219 118.602 15.9723C119.342 17.3118 119.713 18.7983 119.713 20.4318C119.713 21.8693 119.457 23.0563 118.945 23.9929C118.444 24.9295 117.78 25.67 116.952 26.2145C116.135 26.759 115.248 27.1619 114.289 27.4233V27.75C115.313 27.8153 116.342 28.1747 117.377 28.8281C118.411 29.4815 119.277 30.4181 119.974 31.6378C120.671 32.8575 121.02 34.3494 121.02 36.1136C121.02 37.7907 120.638 39.299 119.876 40.6385C119.114 41.978 117.91 43.0398 116.266 43.8239C114.622 44.608 112.482 45 109.846 45H97.7582ZM101.809 41.4062H109.846C112.493 41.4062 114.371 40.8944 115.482 39.8707C116.604 38.8362 117.164 37.5838 117.164 36.1136C117.164 34.9811 116.876 33.9356 116.299 32.9773C115.721 32.008 114.899 31.2348 113.832 30.6577C112.765 30.0696 111.502 29.7756 110.042 29.7756H101.809V41.4062ZM101.809 26.2472H109.324C110.543 26.2472 111.643 26.0076 112.623 25.5284C113.614 25.0492 114.398 24.3741 114.975 23.5028C115.564 22.6316 115.858 21.608 115.858 20.4318C115.858 18.9616 115.346 17.7147 114.322 16.6911C113.298 15.6565 111.676 15.1392 109.454 15.1392H101.809V26.2472ZM129.963 45.2614C129.157 45.2614 128.466 44.9728 127.888 44.3956C127.311 43.8184 127.023 43.1269 127.023 42.321C127.023 41.5152 127.311 40.8236 127.888 40.2464C128.466 39.6693 129.157 39.3807 129.963 39.3807C130.769 39.3807 131.46 39.6693 132.038 40.2464C132.615 40.8236 132.903 41.5152 132.903 42.321C132.903 42.8546 132.767 43.3447 132.495 43.7912C132.234 44.2377 131.88 44.5971 131.433 44.8693C130.998 45.1307 130.508 45.2614 129.963 45.2614ZM140.344 45V11.5455H160.534V15.1392H144.395V26.4432H159.489V30.0369H144.395V41.4062H160.796V45H140.344ZM167.836 45V11.5455H179.14C181.754 11.5455 183.899 11.9919 185.576 12.8849C187.253 13.767 188.495 14.9813 189.301 16.5277C190.107 18.0741 190.51 19.8329 190.51 21.804C190.51 23.7751 190.107 25.523 189.301 27.0476C188.495 28.5722 187.259 29.7701 185.593 30.6413C183.926 31.5017 181.797 31.9318 179.206 31.9318H170.058V28.2727H179.075C180.861 28.2727 182.298 28.0114 183.387 27.4886C184.487 26.9659 185.282 26.2254 185.772 25.267C186.273 24.2978 186.524 23.1435 186.524 21.804C186.524 20.4645 186.273 19.2938 185.772 18.2919C185.271 17.29 184.471 16.5168 183.371 15.9723C182.271 15.4169 180.817 15.1392 179.01 15.1392H171.887V45H167.836ZM183.583 29.9716L191.816 45H187.112L179.01 29.9716H183.583Z" fill="white"/>
<path d="M58.2962 17.0879H58.2956H51.6915V11V10.5H51.1915H35.7925H35.2925V11V17.0879L28.7044 17.0879L28.7038 17.0879C28.1195 17.0886 27.5594 17.3211 27.1463 17.7342C26.7331 18.1474 26.5007 18.7075 26.5 19.2918V19.2924L26.5 42.2793L26.5 42.28C26.5008 42.8642 26.7332 43.4243 27.1463 43.8374C27.5594 44.2506 28.1196 44.483 28.7038 44.4838H28.7044H58.2956H58.2962C58.8804 44.483 59.4406 44.2506 59.8537 43.8374C60.2668 43.4243 60.4992 42.8642 60.5 42.28V42.2793V19.2924V19.2918C60.4993 18.7075 60.2669 18.1474 59.8537 17.7342C59.4406 17.3211 58.8805 17.0886 58.2962 17.0879ZM53.8256 28.5802H45.1539V25.8644V25.3644H44.6539H42.3461H41.8461V25.8644V28.5802H33.1744L29.8078 25.2137V20.3958H57.1922V25.2137L53.8256 28.5802ZM55.3422 31.7417L57.1922 29.8917V41.1759H29.8078V29.8917L31.6578 31.7417L31.8042 31.8882H32.0114H41.8461V34.6385V35.1385H42.3461H44.6539H45.1539V34.6385V31.8882H54.9886H55.1958L55.3422 31.7417ZM38.4947 13.7021H48.4894V17.0879H38.4947V13.7021Z" fill="#50A8EA" stroke="#50A8EA"/>
</svg>
