<svg width="639" height="539" viewBox="0 0 639 539" fill="none" xmlns="http://www.w3.org/2000/svg">
<g clip-path="url(#clip0_17_203)">
<path d="M612.743 537.428H0C6.714 517.614 19.113 500.806 36.592 495.819C62.16 488.534 89.219 508.566 114.731 501.033C129.225 496.759 140.631 484.302 152.631 473.958C197.866 434.929 259.853 423.393 313.386 444.05C341.365 454.843 366.86 473.717 395.521 481.741C432.584 492.121 471.343 483.513 509.457 482.095C546.569 480.713 599.754 498.219 612.743 537.428Z" fill="#F3F5FD"/>
<path d="M111.503 381.924L70.8013 536.661L76.6039 538.187L117.305 383.45L111.503 381.924Z" fill="#C1D8ED"/>
<path d="M183.632 382.219L177.705 383.148L201.967 537.888L207.894 536.959L183.632 382.219Z" fill="#C1D8ED"/>
<path d="M106.056 234.254C106.056 234.254 56.491 231.123 56.491 274.428C56.491 317.733 63.791 378.254 100.317 385.036C136.843 391.818 190.798 389.774 203.325 387.651C218.716 385.042 225.425 349.34 204.925 346.951C146.751 340.168 174.925 238.95 106.056 234.254Z" fill="#C1D8ED"/>
<path d="M211.276 508.282L209.39 532.741" stroke="#E98862" stroke-width="21" stroke-miterlimit="10"/>
<path d="M246.465 537.241C247.004 537.239 247.538 537.13 248.035 536.922C248.533 536.713 248.984 536.408 249.364 536.025C249.743 535.642 250.044 535.188 250.248 534.689C250.452 534.19 250.556 533.655 250.554 533.116C250.554 533.016 250.554 532.916 250.541 532.816C250.48 532.036 250.197 531.289 249.727 530.664C249.256 530.039 248.616 529.561 247.883 529.287L223.44 521.1C222.966 520.943 222.465 520.891 221.969 520.946C221.473 521.001 220.995 521.163 220.568 521.42C217.208 523.752 213.188 524.944 209.1 524.82C205.916 524.594 202.86 523.477 200.28 521.597C200.053 521.411 199.778 521.294 199.487 521.259C199.196 521.223 198.901 521.271 198.636 521.397C198.371 521.523 198.148 521.721 197.991 521.969C197.835 522.217 197.752 522.504 197.752 522.797V534.749C197.752 535.459 198.034 536.14 198.536 536.643C199.039 537.145 199.72 537.427 200.43 537.427H200.441L246.465 537.241Z" fill="#C1D8ED"/>
<path d="M294.58 508.282L298.694 532.741" stroke="#E98862" stroke-width="21" stroke-miterlimit="10"/>
<path d="M315.634 511.9L269.526 334.512C268.496 330.549 266.179 327.039 262.94 324.533C259.7 322.028 255.721 320.668 251.626 320.667H150.578V320.732H93.969V338.08C93.9689 343.082 94.9539 348.034 96.8678 352.655C98.7817 357.276 101.587 361.475 105.124 365.012C108.66 368.549 112.859 371.354 117.48 373.268C122.101 375.183 127.053 376.168 132.055 376.168H159.665V376.277H207.865L194.593 517.391L231.431 520.855L244.264 384.4L279.824 521.205L315.634 511.9Z" fill="#262626"/>
<path d="M238.644 235.952C238.644 235.952 238.794 223.941 247.379 224.566C252.795 224.96 278.53 223.766 278.913 226.11C279.861 231.91 256.321 233.328 254.185 238.732L238.644 235.952Z" fill="#E98862"/>
<path d="M244.339 224.951C244.339 224.951 256.288 221.051 259.225 221.751C261.825 222.369 256.405 226.601 256.405 226.601L244.339 224.951Z" fill="#E98862"/>
<path d="M213.963 288.655L256.6 239.021L238.226 228.689L204.084 267.1L177.384 219.309C174.858 211.756 169.104 206.696 157.364 206.19C156.734 206.17 155.724 206.14 154.424 206.12C154.164 211.62 120.094 211.6 119.374 205.99C109.754 206 101.854 208.96 97.2941 213.52C81.5441 229.27 100.874 256.11 100.874 277.11C100.874 298.11 91.3741 307.53 92.0741 318.31C93.1741 335.25 175.504 331.25 179.694 321.62C182.504 315.168 179.781 310.32 177.638 298.783H213.962L213.963 288.655ZM175.635 273.106C175.676 269.573 175.949 265.876 176.324 262.114L184.624 276.974H175.638C175.625 275.723 175.62 274.445 175.638 273.106H175.635Z" fill="#367CFF"/>
<path d="M154.425 206.116C154.165 211.616 151.165 219.706 141.945 220.306C129.635 221.126 120.095 211.596 119.375 205.986H119.415C131.515 205.986 147.355 206.006 154.425 206.116Z" fill="#E98862"/>
<path d="M332.769 537.241C333.308 537.238 333.842 537.13 334.34 536.921C334.837 536.712 335.288 536.408 335.668 536.024C336.048 535.641 336.348 535.187 336.552 534.687C336.757 534.188 336.86 533.653 336.858 533.114C336.858 533.014 336.858 532.914 336.845 532.814C336.784 532.034 336.501 531.287 336.03 530.662C335.559 530.037 334.919 529.559 334.186 529.285L309.744 521.1C309.27 520.943 308.768 520.891 308.272 520.946C307.777 521.001 307.299 521.163 306.871 521.42C303.511 523.752 299.492 524.943 295.404 524.82C292.22 524.594 289.163 523.477 286.583 521.597C286.356 521.411 286.081 521.294 285.79 521.258C285.499 521.223 285.204 521.271 284.939 521.396C284.674 521.522 284.451 521.721 284.294 521.969C284.138 522.217 284.055 522.504 284.056 522.797V534.749C284.056 535.459 284.338 536.14 284.84 536.643C285.342 537.145 286.024 537.427 286.734 537.427H286.745L332.769 537.241Z" fill="#C1D8ED"/>
<path d="M46.069 308.471H36.678V537.428H46.069V308.471Z" fill="#DEE8F5"/>
<path d="M499.043 308.471H489.652V537.428H499.043V308.471Z" fill="#C1D8ED"/>
<path d="M499.043 305.602H414.348V521.773H499.043V305.602Z" fill="#C1D8ED"/>
<path d="M406.83 506.117H397.439V537.428H406.83V506.117Z" fill="#C1D8ED"/>
<path d="M512.027 299.015H23.6951V311.928H512.027V299.015Z" fill="#DEE8F5"/>
<path d="M419.043 308.471H409.652V537.428H419.043V308.471Z" fill="#DEE8F5"/>
<path d="M326.83 308.471H317.439V537.428H326.83V308.471Z" fill="#DEE8F5"/>
<path d="M414.348 311.946H322.135V521.773H414.348V311.946Z" fill="#DEE8F5"/>
<path d="M244.086 290.105C238.356 289.768 228.195 288.827 223.956 286.312C226.105 285.656 228.987 284.585 228.716 283.623C228.005 281.092 218.042 282.665 215.062 282.665L213.977 282.71V295.515C213.977 295.515 233.611 302.877 245.167 293.451C245.461 293.211 245.676 292.887 245.783 292.523C245.89 292.159 245.885 291.771 245.768 291.409C245.652 291.048 245.429 290.73 245.128 290.498C244.828 290.265 244.465 290.128 244.086 290.105Z" fill="#E98862"/>
<path d="M300.158 241.22L288.016 292.192C287.685 293.584 287.921 295.051 288.671 296.269C289.421 297.488 290.624 298.359 292.016 298.692C292.424 298.789 292.843 298.838 293.263 298.839H364.847C366.029 298.839 367.179 298.45 368.12 297.733C369.06 297.016 369.739 296.01 370.053 294.87L384.048 243.9C384.267 243.099 384.299 242.257 384.141 241.442C383.982 240.626 383.638 239.858 383.134 239.198C382.63 238.537 381.981 238.001 381.237 237.633C380.492 237.264 379.673 237.072 378.842 237.072H305.41C304.195 237.072 303.017 237.481 302.064 238.234C301.111 238.987 300.439 240.039 300.158 241.22Z" fill="#9EBCEA"/>
<path d="M262.532 298.841H349.051C349.467 298.841 349.88 298.759 350.265 298.599C350.65 298.44 350.999 298.206 351.294 297.912C351.588 297.617 351.822 297.267 351.981 296.882C352.141 296.498 352.223 296.085 352.223 295.669C352.223 295.252 352.141 294.84 351.981 294.455C351.822 294.07 351.588 293.72 351.294 293.426C350.999 293.131 350.65 292.897 350.265 292.738C349.88 292.579 349.467 292.497 349.051 292.497H262.532C261.691 292.497 260.884 292.831 260.289 293.426C259.694 294.02 259.36 294.827 259.36 295.669C259.36 296.085 259.442 296.498 259.601 296.882C259.761 297.267 259.994 297.617 260.289 297.912C260.583 298.206 260.933 298.44 261.318 298.599C261.703 298.759 262.115 298.841 262.532 298.841Z" fill="#9EBCEA"/>
<path d="M338.963 275.92C343.638 275.92 347.429 272.129 347.429 267.454C347.429 262.778 343.638 258.988 338.963 258.988C334.287 258.988 330.497 262.778 330.497 267.454C330.497 272.129 334.287 275.92 338.963 275.92Z" fill="white"/>
<path d="M155.886 187.266C161.179 187.266 165.47 182.975 165.47 177.682C165.47 172.389 161.179 168.098 155.886 168.098C150.593 168.098 146.302 172.389 146.302 177.682C146.302 182.975 150.593 187.266 155.886 187.266Z" fill="#DEE8F5"/>
<path d="M157.555 178.8C157.913 178.73 158.244 178.564 158.515 178.32C158.785 178.076 158.983 177.762 159.088 177.413C159.338 176.583 161.98 157.052 154.333 145.284C153.113 143.259 151.428 141.553 149.418 140.307C147.409 139.062 145.132 138.312 142.775 138.12C142.513 138.092 142.249 138.116 141.997 138.191C141.745 138.266 141.509 138.389 141.305 138.555C141.101 138.721 140.931 138.925 140.806 139.156C140.681 139.388 140.602 139.641 140.575 139.903C140.461 141.003 141.26 140.986 142.359 141.103C147.69 141.655 148.498 143.749 151.001 147.503C157.748 157.633 155.31 176.075 155.255 176.26C155.155 176.59 155.143 176.941 155.218 177.277C155.294 177.614 155.455 177.925 155.687 178.181C155.918 178.436 156.212 178.628 156.539 178.737C156.867 178.845 157.217 178.867 157.555 178.801V178.8Z" fill="#C1D8ED"/>
<path d="M153.411 187.04C158.704 187.04 162.995 182.749 162.995 177.456C162.995 172.163 158.704 167.872 153.411 167.872C148.118 167.872 143.827 172.163 143.827 177.456C143.827 182.749 148.118 187.04 153.411 187.04Z" fill="#C1D8ED"/>
<path d="M150.211 207.937L149.431 208.027H124.781C126.781 204.707 128.941 198.197 127.941 186.027L143.921 183.067C143.921 183.067 142.121 201.947 150.211 207.937Z" fill="#E98862"/>
<path opacity="0.15" d="M146.935 203.994L133.662 193.84L144.087 193.732C144.389 197.3 145.355 200.781 146.935 203.994Z" fill="black"/>
<path d="M118.88 177.866C119.986 184.254 123.472 190.304 129.107 192.366C135.249 194.804 141.895 195.703 148.465 194.982C165.954 193.548 162.495 153.782 154.191 146.055C145.887 138.328 121.518 143.223 118.554 156.143C117.021 162.826 117.827 171.785 118.88 177.866Z" fill="#E98862"/>
<path d="M159.96 147.429C159.438 146.601 158.707 145.925 157.84 145.47C150.074 141.246 135.68 139.785 128.767 141.853C120.747 144.253 110.691 150.976 113.267 167.279C113.376 167.965 113.493 168.627 113.614 169.279C111.081 168.846 108.478 169.119 106.09 170.067C103.701 171.015 101.62 172.602 100.074 174.654C98.5275 176.707 97.5759 179.145 97.3232 181.702C97.0706 184.26 97.5266 186.837 98.6413 189.152C99.756 191.467 101.486 193.431 103.643 194.828C105.8 196.226 108.299 197.002 110.868 197.073C113.436 197.145 115.975 196.507 118.206 195.232C120.436 193.956 122.273 192.091 123.514 189.841C124.704 190.869 125.989 191.781 127.353 192.564C128.31 193.133 128.541 192.67 128.873 191.607C130.033 187.896 131.173 173.219 130.263 162.562L149.109 161.91L152.393 152.568L155.085 161.91H161.503C162.364 156.845 163.252 151.107 159.96 147.429Z" fill="#0F1011"/>
<path d="M143.898 172.945C144.698 172.945 145.347 172.296 145.347 171.496C145.347 170.696 144.698 170.047 143.898 170.047C143.098 170.047 142.449 170.696 142.449 171.496C142.449 172.296 143.098 172.945 143.898 172.945Z" fill="#0F1011"/>
<path d="M155.33 172.007C156.13 172.007 156.779 171.358 156.779 170.558C156.779 169.758 156.13 169.109 155.33 169.109C154.53 169.109 153.881 169.758 153.881 170.558C153.881 171.358 154.53 172.007 155.33 172.007Z" fill="#0F1011"/>
<path d="M157.841 167.471H157.832L153.993 167.422C153.817 167.414 153.651 167.339 153.53 167.211C153.408 167.083 153.341 166.913 153.342 166.737C153.343 166.561 153.413 166.392 153.536 166.266C153.659 166.14 153.826 166.067 154.002 166.061H154.011L157.849 166.109C158.03 166.11 158.202 166.183 158.329 166.311C158.456 166.44 158.527 166.613 158.526 166.794C158.525 166.975 158.452 167.147 158.324 167.274C158.195 167.401 158.022 167.472 157.841 167.471Z" fill="#0F1011"/>
<path d="M140.77 168.87C140.604 168.87 140.443 168.808 140.319 168.697C140.194 168.587 140.115 168.434 140.095 168.269C140.076 168.103 140.118 167.936 140.213 167.8C140.308 167.663 140.45 167.566 140.612 167.527L144.396 166.617C144.483 166.595 144.574 166.59 144.664 166.603C144.753 166.616 144.838 166.647 144.916 166.694C144.993 166.74 145.06 166.802 145.113 166.874C145.167 166.947 145.205 167.03 145.226 167.117C145.247 167.205 145.251 167.296 145.236 167.385C145.222 167.474 145.19 167.559 145.143 167.636C145.095 167.713 145.033 167.779 144.96 167.831C144.886 167.884 144.803 167.921 144.715 167.941L140.931 168.851C140.878 168.864 140.824 168.87 140.77 168.87Z" fill="#0F1011"/>
<path d="M136.361 175.041C136.432 175.848 136.343 176.661 136.098 177.433C135.854 178.205 135.459 178.921 134.937 179.54C134.415 180.159 133.775 180.669 133.055 181.04C132.335 181.411 131.549 181.635 130.742 181.701C129.934 181.767 129.122 181.673 128.352 181.424C127.581 181.175 126.867 180.775 126.251 180.249C125.636 179.723 125.13 179.081 124.763 178.358C124.397 177.636 124.177 176.849 124.116 176.041C124.036 175.234 124.12 174.42 124.361 173.646C124.602 172.873 124.997 172.155 125.521 171.537C126.046 170.919 126.689 170.413 127.413 170.049C128.137 169.684 128.927 169.47 129.736 169.417C134.114 169.278 136.083 171.66 136.361 175.041Z" fill="#E98862"/>
<g opacity="0.15">
<path d="M150.33 179.533C150.21 179.533 150.094 179.49 150.003 179.412C149.913 179.334 149.853 179.226 149.835 179.107C149.817 178.989 149.843 178.868 149.906 178.767C149.97 178.665 150.068 178.59 150.183 178.555L153.131 177.65L151.069 173.059C151.04 172.999 151.023 172.933 151.019 172.866C151.016 172.8 151.026 172.733 151.049 172.67C151.071 172.607 151.107 172.549 151.152 172.5C151.198 172.451 151.253 172.412 151.314 172.384C151.375 172.357 151.441 172.342 151.508 172.34C151.575 172.339 151.642 172.351 151.704 172.376C151.766 172.401 151.823 172.438 151.87 172.485C151.918 172.532 151.955 172.588 151.981 172.65L154.275 177.757C154.304 177.822 154.319 177.892 154.319 177.963C154.319 178.034 154.304 178.104 154.274 178.168C154.245 178.233 154.203 178.29 154.149 178.337C154.096 178.384 154.034 178.419 153.966 178.44L150.477 179.511C150.429 179.526 150.38 179.533 150.33 179.533Z" fill="black"/>
</g>
<path d="M144.569 182.907C144.569 182.907 149.917 183.472 153.669 182.161C153.669 182.161 153.64 185.684 149.407 186.031C145.174 186.378 144.569 182.907 144.569 182.907Z" fill="#F8FCFF"/>
<path d="M121.033 177.652L121.12 177.633C121.635 177.509 122.081 177.185 122.357 176.733C122.634 176.28 122.72 175.736 122.596 175.221C122.557 175.056 118.729 158.655 126.15 148.732C129.65 144.051 135.204 141.487 142.67 141.107C143.759 141.055 144.623 141.113 144.57 140.007C144.52 139.485 144.277 139.001 143.888 138.65C143.5 138.298 142.994 138.105 142.47 138.107C135.596 137.592 127.185 140.659 122.939 146.346C114.397 157.788 118.53 175.41 118.711 176.155C118.831 176.655 119.139 177.09 119.572 177.369C120.004 177.648 120.528 177.749 121.033 177.652Z" fill="#C1D8ED"/>
<path d="M123.879 187.617C129.172 187.617 133.463 183.326 133.463 178.033C133.463 172.74 129.172 168.449 123.879 168.449C118.586 168.449 114.295 172.74 114.295 178.033C114.295 183.326 118.586 187.617 123.879 187.617Z" fill="#C1D8ED"/>
<path d="M120.935 187.905C126.228 187.905 130.519 183.614 130.519 178.321C130.519 173.028 126.228 168.737 120.935 168.737C115.642 168.737 111.351 173.028 111.351 178.321C111.351 183.614 115.642 187.905 120.935 187.905Z" fill="#DEE8F5"/>
<path d="M122.093 183.379C122.554 185.478 123.151 187.546 123.879 189.568C125.036 191.483 141.419 190.619 141.419 190.619" stroke="#DEE8F5" stroke-width="3" stroke-linecap="round" stroke-linejoin="round"/>
<path d="M141.069 192.997H143.1C144.395 192.997 145.445 191.947 145.445 190.652C145.445 189.357 144.395 188.307 143.1 188.307H141.069C139.774 188.307 138.724 189.357 138.724 190.652C138.724 191.947 139.774 192.997 141.069 192.997Z" fill="#C1D8ED"/>
<path d="M267.151 209.948L279.646 200.478H395.845V123.879H267.151V209.948Z" fill="#DEE8F5"/>
<path d="M525.707 121.904C559.37 121.904 586.659 94.6149 586.659 60.952C586.659 27.2891 559.37 0 525.707 0C492.044 0 464.755 27.2891 464.755 60.952C464.755 94.6149 492.044 121.904 525.707 121.904Z" fill="#DEE8F5"/>
<path d="M491.3 78.6439C491.3 78.6439 486.467 70.9669 486.665 68.8879C486.863 66.8089 492.903 64.7059 492.903 64.7059C492.903 64.7059 492.029 62.8679 491.25 60.8499C490.35 58.5209 489.579 55.9499 490.422 55.6989C491.235 55.4519 492.468 57.5649 493.598 60.0209C495.05 63.1749 496.331 66.8929 496.331 66.8929C496.331 66.8929 496.464 63.2209 497.822 63.4549C498.38 63.5549 498.616 64.2139 498.622 66.8469C498.622 69.8469 499.091 74.5229 499.091 74.5229L491.3 78.6439Z" fill="#E98862"/>
<path d="M506.644 113.059C505.244 113.058 503.876 112.64 502.716 111.858C501.555 111.076 500.653 109.966 500.127 108.669L487.478 77.5168L500.517 72.2168L504.347 81.6488L507.354 66.6238L521.154 69.3858L513.547 107.4C513.249 108.883 512.482 110.232 511.358 111.245C510.234 112.258 508.814 112.882 507.308 113.025C507.086 113.048 506.864 113.059 506.644 113.059Z" fill="#367CFF"/>
<path d="M483.807 87.7998L491.631 86.5508C491.939 86.5018 492.233 86.3883 492.493 86.2177C492.754 86.0472 492.976 85.8234 493.144 85.5611C493.313 85.2987 493.423 85.0038 493.47 84.6956C493.516 84.3874 493.497 84.073 493.413 83.7728L488.491 66.1058C488.345 65.5823 488.012 65.1307 487.554 64.8373C487.097 64.5438 486.547 64.429 486.011 64.5148L478.188 65.7638C477.88 65.8128 477.586 65.9263 477.325 66.0969C477.064 66.2674 476.843 66.4912 476.674 66.7534C476.506 67.0157 476.395 67.3106 476.348 67.6188C476.302 67.927 476.321 68.2415 476.405 68.5418L481.328 86.2088C481.474 86.732 481.807 87.1833 482.264 87.4766C482.721 87.77 483.27 87.885 483.807 87.7998Z" fill="#C1D8ED"/>
<path d="M496.407 83.172L491.793 89.433C491.793 89.433 479.393 86.947 478.227 77.392C478.093 76.292 478.209 73.249 479.571 73.657C483.12 74.721 487.539 80.168 490.637 80.892C489.93 79.626 489.067 77.839 489.624 77.512C491.086 76.653 495.02 81.84 496.407 83.172Z" fill="#E98862"/>
<path d="M556.472 104.552C556.466 107.41 556.756 110.261 557.337 113.059C549.838 117.604 541.447 120.481 532.737 121.494C524.026 122.506 515.2 121.63 506.858 118.926C507.893 113.338 508.35 107.658 508.22 101.977C508.213 101.596 508.207 101.209 508.194 100.815L488.657 92.1999L494.33 79.3229L506.613 84.7389C505.141 71.4489 505.096 59.4249 520.018 58.7789C520.425 58.7599 521.077 58.7469 521.918 58.7339C522.086 62.2839 544.069 62.2709 544.534 58.6499C550.743 58.6569 555.834 60.5609 558.785 63.5099C568.948 73.6749 556.472 90.9999 556.472 104.552Z" fill="#367CFF"/>
<path d="M521.916 58.7329C522.084 62.2829 524.016 67.5049 529.971 67.8979C537.91 68.4209 544.071 62.2699 544.532 58.6489H544.513C536.7 58.6489 526.473 58.6619 521.916 58.7329Z" fill="#E98862"/>
<path d="M538.5 50.4258C538.493 50.3088 538.493 50.1928 538.493 50.0758C538.493 48.8988 538.538 47.6168 538.655 46.2198L537.192 45.9478L528.324 44.2998C528.499 46.5983 528.462 48.908 528.214 51.1998C528.188 51.4588 528.156 51.7248 528.114 51.9898C528.112 52.0139 528.108 52.0377 528.101 52.0608C528.05 52.4098 527.991 52.7608 527.927 53.1088C527.888 53.3358 527.842 53.5618 527.791 53.7888C527.739 54.0798 527.668 54.3648 527.591 54.6498C527.514 54.9348 527.436 55.2128 527.345 55.4908C527.254 55.7688 527.17 56.0408 527.067 56.3058C526.878 56.8297 526.648 57.3383 526.381 57.8268V57.8328C525.891 58.7908 525.203 59.6335 524.362 60.3048H540.62C539.6 58.5538 538.555 55.5188 538.5 50.4258Z" fill="#E98862"/>
<path opacity="0.15" d="M526.372 57.8449L534.961 51.2739L528.215 51.2039C528.02 53.5131 527.395 55.7655 526.372 57.8449Z" fill="black"/>
<path d="M544.527 40.9368C543.811 45.0708 541.555 48.9858 537.909 50.3208C533.58 51.9058 530.373 52.0128 525.382 52.0128C518.571 52.0128 518.796 44.9128 518.605 37.7518C518.413 30.5648 518.984 22.8518 521.676 20.3518C527.05 15.3518 542.82 18.5188 544.738 26.8798C545.73 31.1998 545.208 36.9998 544.527 40.9368Z" fill="#E98862"/>
<path d="M514.954 24.5069C514.587 24.4356 514.239 24.2875 513.933 24.0723C513.627 23.8571 513.37 23.5796 513.178 23.2581C512.987 22.9366 512.866 22.5783 512.823 22.2067C512.78 21.8351 512.816 21.4586 512.929 21.1019C513.435 19.2579 515.798 19.6669 515.798 19.6669C515.798 19.6669 513.56 19.2579 513.56 17.3039C513.56 16.0729 514.506 13.9879 517.36 15.1799C520.586 16.3426 524.069 16.5955 527.429 15.9109C529.072 15.5525 530.739 15.3185 532.417 15.2109H532.426C534.353 15.1784 536.275 15.4356 538.126 15.9739C543.315 17.5269 551.17 22.1809 549.5 32.7299C547.639 44.4999 542.115 48.9999 539.684 50.4459C539.54 50.5326 539.378 50.5855 539.211 50.6006C539.044 50.6157 538.876 50.5925 538.719 50.5329C538.562 50.4733 538.42 50.3787 538.305 50.2564C538.19 50.1341 538.105 49.9872 538.055 49.8269C537.365 47.6199 536.176 42.0679 536.51 30.6189C520.557 29.8369 515.967 29.5989 515.967 29.5989C515.967 29.5989 512.211 29.7399 512.211 26.9989C512.197 26.646 512.261 26.2944 512.397 25.9687C512.534 25.6431 512.74 25.3513 513.002 25.1138C513.263 24.8763 513.573 24.6989 513.911 24.5941C514.248 24.4893 514.604 24.4595 514.954 24.5069Z" fill="#0F1011"/>
<path d="M528.337 37.7519C528.854 37.7519 529.274 37.3324 529.274 36.8149C529.274 36.2974 528.854 35.8779 528.337 35.8779C527.819 35.8779 527.4 36.2974 527.4 36.8149C527.4 37.3324 527.819 37.7519 528.337 37.7519Z" fill="#0F1011"/>
<path d="M520.939 37.1448C521.456 37.1448 521.876 36.7252 521.876 36.2078C521.876 35.6903 521.456 35.2708 520.939 35.2708C520.421 35.2708 520.002 35.6903 520.002 36.2078C520.002 36.7252 520.421 37.1448 520.939 37.1448Z" fill="#0F1011"/>
<path d="M519.315 34.2099L521.799 34.1789C521.912 34.1735 522.019 34.1247 522.097 34.0427C522.175 33.9607 522.219 33.8517 522.219 33.7383C522.219 33.625 522.175 33.516 522.097 33.434C522.019 33.352 521.912 33.3032 521.799 33.2979H521.793L519.309 33.3288C519.196 33.335 519.089 33.3844 519.011 33.467C518.934 33.5495 518.891 33.6589 518.892 33.7722C518.892 33.8856 518.937 33.9943 519.016 34.0758C519.094 34.1573 519.202 34.2053 519.315 34.2099Z" fill="#0F1011"/>
<path d="M530.361 35.1149C530.468 35.1144 530.572 35.0745 530.652 35.0027C530.733 34.9309 530.784 34.8322 530.796 34.7253C530.808 34.6183 530.781 34.5106 530.719 34.4225C530.657 34.3343 530.566 34.2719 530.461 34.2469L528.012 33.6569C527.955 33.6409 527.895 33.6367 527.836 33.6443C527.777 33.652 527.721 33.6714 527.67 33.7014C527.619 33.7314 527.574 33.7714 527.539 33.8191C527.504 33.8667 527.478 33.9209 527.464 33.9786C527.451 34.0362 527.448 34.096 527.458 34.1545C527.468 34.2129 527.49 34.2688 527.521 34.3188C527.553 34.3687 527.595 34.4118 527.644 34.4453C527.693 34.4788 527.748 34.5022 527.806 34.5139L530.254 35.1029C530.289 35.1115 530.325 35.1156 530.361 35.1149Z" fill="#0F1011"/>
<path d="M533.215 39.1089C533.167 39.632 533.223 40.1594 533.38 40.6607C533.537 41.162 533.792 41.6272 534.129 42.0294C534.467 42.4316 534.882 42.7629 535.348 43.004C535.815 43.2452 536.325 43.3915 536.848 43.4344C537.372 43.4774 537.899 43.4162 538.398 43.2543C538.898 43.0924 539.361 42.8331 539.76 42.4913C540.158 42.1495 540.486 41.7321 540.722 41.2631C540.959 40.7941 541.1 40.2828 541.138 39.7589C541.19 39.2369 541.136 38.7098 540.98 38.209C540.824 37.7082 540.568 37.2439 540.229 36.8439C539.889 36.4439 539.473 36.1162 539.004 35.8805C538.536 35.6448 538.024 35.5059 537.501 35.4719C534.668 35.3799 533.394 36.9209 533.215 39.1089Z" fill="#E98862"/>
<g opacity="0.15">
<path d="M524.175 42.0149C524.253 42.0164 524.329 41.9896 524.388 41.9396C524.448 41.8895 524.488 41.8195 524.5 41.7425C524.512 41.6655 524.496 41.5866 524.455 41.5205C524.413 41.4545 524.349 41.4056 524.275 41.3829L522.368 40.7969L523.702 37.8269C523.737 37.7486 523.74 37.6594 523.709 37.579C523.679 37.4987 523.618 37.4337 523.539 37.3984C523.461 37.3631 523.372 37.3605 523.291 37.3909C523.211 37.4214 523.146 37.4826 523.111 37.5609L521.627 40.8659C521.608 40.9078 521.599 40.9531 521.599 40.9989C521.599 41.0447 521.609 41.09 521.628 41.1317C521.647 41.1735 521.674 41.2107 521.708 41.2411C521.743 41.2715 521.783 41.2942 521.827 41.3079L524.08 41.9999C524.111 42.0098 524.143 42.0148 524.175 42.0149Z" fill="black"/>
</g>
<path d="M527.9 44.1998C525.924 44.3978 523.929 44.2345 522.013 43.7178C522.132 44.3808 522.467 44.9858 522.966 45.4387C523.465 45.8915 524.099 46.1668 524.771 46.2218C525.442 46.2768 526.113 46.1083 526.679 45.7426C527.245 45.377 527.674 44.8346 527.9 44.1998Z" fill="#F8FCFF"/>
<path d="M568.3 492.023C561.737 490.139 556.8 484.267 554.833 477.723C552.866 471.179 553.562 464.086 555.479 457.532C557.044 452.184 559.415 447.014 559.999 441.472C561.945 423.018 544.046 404.164 552.469 387.63C555.193 382.284 560.469 378.105 561.404 372.179C562.182 367.279 559.768 362.515 558.567 357.7C556.916 351.074 557.753 343.554 562.052 338.248C566.351 332.942 574.475 330.623 580.399 334.021C588.148 338.466 588.819 349.439 586.828 358.146C584.837 366.853 581.146 375.812 583.579 384.406C585.898 392.598 593.445 398.767 594.798 407.172C595.923 414.16 592.512 420.972 591.013 427.89C588.658 438.762 591.055 450.031 591.158 461.154C591.261 472.277 588.12 484.755 568.3 492.023Z" fill="#8DDBE0"/>
<path d="M558.17 493.08C554.264 491.839 550.759 489.58 548.015 486.536C545.271 483.493 543.386 479.773 542.554 475.76C541.269 469.141 542.846 461.707 539.224 456.02C534.315 448.32 529.281 447.444 523.17 440.653C513.77 430.21 513.444 425.585 514.063 406.245C514.326 398.066 503.032 388.835 507.009 380.977C510.509 374.054 521.165 374.018 527.209 378.89C533.253 383.762 535.902 391.571 538.535 398.872C541.168 406.173 544.485 413.895 551.157 417.858C555.157 420.234 560.396 421.332 562.607 425.428C564.383 428.719 563.488 432.735 562.774 436.406C560.98 445.633 561.429 456.888 569.174 462.217C572.667 464.617 577.242 465.449 580.114 468.569C582.954 471.655 583.414 476.226 583.219 480.414C582.842 488.467 580.623 496.327 576.733 503.388" fill="#DEE8F5"/>
<path d="M567.508 499.505C564.093 495.437 562.035 490.403 561.621 485.107C561.207 479.812 562.458 474.519 565.2 469.97C569.94 462.46 578.774 457.287 580.629 448.601C582.281 440.865 577.699 432.871 579.071 425.081C580.563 416.609 588.389 411.05 594.605 405.105C596.223 403.66 597.615 401.98 598.733 400.121C601.468 395.2 600.705 389.163 601.633 383.61C603.411 372.977 612.172 363.545 622.809 361.787C632.138 360.246 638.82 365.605 638.82 375.474C638.82 387.166 630.062 392.174 625.593 397.474C619.176 405.137 615.769 414.876 616.012 424.869C616.327 436.031 621.079 447.915 616.002 457.86C612.276 465.16 604.317 469.05 598.063 474.346C593.338 478.395 589.491 483.368 586.76 488.959C584.029 494.551 582.471 500.642 582.182 506.858" fill="#F3F5FD"/>
<path d="M597.595 481.173H541.34V537.428H597.595V481.173Z" fill="#0CBC8B"/>
<g opacity="0.42">
<path d="M597.595 492.142H541.34V503.123H597.595V492.142Z" fill="white"/>
</g>
<path d="M443.746 106.422L428.09 94.9081C428.09 94.9081 359.507 94.9081 325.215 94.9081V21.1201H443.746V106.422Z" fill="#C1D8ED"/>
<path d="M432.343 35.9231H336.618V42.5101H432.343V35.9231Z" fill="white"/>
<path d="M432.343 54.3662H336.618V60.9532H432.343V54.3662Z" fill="white"/>
<path d="M432.343 72.8081H336.618V79.3951H432.343V72.8081Z" fill="white"/>
<path d="M384.118 139.622H278.818V145.492H384.118V139.622Z" fill="white"/>
<path d="M384.118 158.877H278.818V164.747H384.118V158.877Z" fill="white"/>
<path d="M384.118 178.133H278.818V184.003H384.118V178.133Z" fill="white"/>
</g>
<defs>
<clipPath id="clip0_17_203">
<rect width="638.821" height="538.187" fill="white"/>
</clipPath>
</defs>
</svg>
