<svg width="20" height="20" viewBox="0 0 20 20" fill="none" xmlns="http://www.w3.org/2000/svg">
<path d="M17.6667 18.6667V0H2.33333V18.6667H0V20H20V18.6667H17.6667ZM16.3333 18.6667H10.6667V16H9.33333V18.6667H3.66667V1.33333H16.3333V18.6667Z" fill="currentColor"/>
<path d="M7.33333 12H6V13.3333H7.33333V12Z" fill="currentColor"/>
<path d="M10.6667 12H9.33334V13.3333H10.6667V12Z" fill="currentColor"/>
<path d="M14 12H12.6667V13.3333H14V12Z" fill="currentColor"/>
<path d="M7.33333 8H6V9.33333H7.33333V8Z" fill="currentColor"/>
<path d="M10.6667 8H9.33334V9.33333H10.6667V8Z" fill="currentColor"/>
<path d="M14 8H12.6667V9.33333H14V8Z" fill="currentColor"/>
<path d="M7.33333 4H6V5.33333H7.33333V4Z" fill="currentColor"/>
<path d="M10.6667 4H9.33334V5.33333H10.6667V4Z" fill="currentColor"/>
<path d="M14 4H12.6667V5.33333H14V4Z" fill="currentColor"/>
</svg>
