<svg width="20" height="19" viewBox="0 0 20 19" fill="none" xmlns="http://www.w3.org/2000/svg">
<path d="M19 2.33333H15.3333V0H14V2.33333H6V0H4.66667V2.33333H1C0.734878 2.33364 0.480704 2.4391 0.293234 2.62657C0.105765 2.81404 0.000308769 3.06821 0 3.33333V17.3333C0.000308769 17.5985 0.105765 17.8526 0.293234 18.0401C0.480704 18.2276 0.734878 18.333 1 18.3333H19C19.2651 18.333 19.5193 18.2276 19.7068 18.0401C19.8942 17.8526 19.9997 17.5985 20 17.3333V3.33333C19.9997 3.06821 19.8942 2.81404 19.7068 2.62657C19.5193 2.4391 19.2651 2.33364 19 2.33333ZM18.6667 17H1.33333V3.66667H4.66667V5.33333H6V3.66667H14V5.33333H15.3333V3.66667H18.6667V17Z" fill="currentColor"/>
<path d="M5.33333 7.66699H4V9.00033H5.33333V7.66699Z" fill="currentColor"/>
<path d="M8.99999 7.66699H7.66666V9.00033H8.99999V7.66699Z" fill="currentColor"/>
<path d="M12.3333 7.66699H11V9.00033H12.3333V7.66699Z" fill="currentColor"/>
<path d="M16 7.66699H14.6667V9.00033H16V7.66699Z" fill="currentColor"/>
<path d="M5.33333 10.667H4V12.0003H5.33333V10.667Z" fill="currentColor"/>
<path d="M8.99999 10.667H7.66666V12.0003H8.99999V10.667Z" fill="currentColor"/>
<path d="M12.3333 10.667H11V12.0003H12.3333V10.667Z" fill="currentColor"/>
<path d="M16 10.667H14.6667V12.0003H16V10.667Z" fill="currentColor"/>
<path d="M5.33333 13.667H4V15.0003H5.33333V13.667Z" fill="currentColor"/>
<path d="M8.99999 13.667H7.66666V15.0003H8.99999V13.667Z" fill="currentColor"/>
<path d="M12.3333 13.667H11V15.0003H12.3333V13.667Z" fill="currentColor"/>
<path d="M16 13.667H14.6667V15.0003H16V13.667Z" fill="currentColor"/>
</svg>
