<svg width="15" height="17" viewBox="0 0 15 17" fill="none" xmlns="http://www.w3.org/2000/svg">
<path d="M12.4558 10.9801C12.0661 10.9802 11.6816 11.0699 11.3321 11.2423C10.9826 11.4147 10.6774 11.6652 10.4402 11.9744L4.95265 8.85984C5.13704 8.32484 5.13704 7.74351 4.95265 7.20851L10.4402 4.09399C10.8233 4.59096 11.3766 4.92871 11.9937 5.04225C12.6108 5.15579 13.248 5.0371 13.7829 4.70901C14.3177 4.38093 14.7123 3.86664 14.8908 3.2651C15.0692 2.66355 15.0189 2.01727 14.7495 1.4506C14.4801 0.883927 14.0106 0.436913 13.4315 0.195571C12.8523 -0.0457715 12.2043 -0.0643887 11.6122 0.143301C11.0201 0.350991 10.5258 0.770314 10.2243 1.32058C9.92277 1.87085 9.83543 2.51318 9.97905 3.12397L4.39798 6.29159C4.04874 5.92007 3.59592 5.66206 3.09826 5.55102C2.6006 5.43998 2.08106 5.48104 1.60702 5.66887C1.13298 5.85669 0.726311 6.18262 0.439761 6.60439C0.153211 7.02615 0 7.52428 0 8.03418C0 8.54407 0.153211 9.04221 0.439761 9.46397C0.726311 9.88573 1.13298 10.2117 1.60702 10.3995C2.08106 10.5873 2.6006 10.6284 3.09826 10.5173C3.59592 10.4063 4.04874 10.1483 4.39798 9.77676L9.97908 12.9444C9.85876 13.4586 9.90144 13.9975 10.1012 14.4863C10.301 14.9752 10.6479 15.3897 11.0939 15.6725C11.5399 15.9553 12.0628 16.0922 12.5902 16.0644C13.1175 16.0366 13.6231 15.8453 14.0369 15.5172C14.4506 15.189 14.752 14.7402 14.8992 14.2331C15.0464 13.7259 15.0321 13.1856 14.8583 12.6869C14.6845 12.1882 14.3599 11.756 13.9294 11.4502C13.4989 11.1443 12.9839 10.98 12.4558 10.9801ZM12.4558 1.07106C12.7471 1.07106 13.0319 1.15745 13.2741 1.3193C13.5163 1.48115 13.7051 1.7112 13.8166 1.98035C13.9281 2.2495 13.9573 2.54566 13.9004 2.83139C13.8436 3.11712 13.7033 3.37957 13.4973 3.58557C13.2913 3.79157 13.0289 3.93186 12.7431 3.98869C12.4574 4.04553 12.1612 4.01636 11.8921 3.90487C11.6229 3.79339 11.3929 3.60459 11.231 3.36236C11.0692 3.12014 10.9828 2.83535 10.9828 2.54403C10.9832 2.15351 11.1386 1.7791 11.4147 1.50296C11.6909 1.22682 12.0653 1.07149 12.4558 1.07106ZM2.54672 9.50714C2.2554 9.50714 1.97062 9.42076 1.72839 9.2589C1.48616 9.09705 1.29737 8.86701 1.18588 8.59786C1.07439 8.32871 1.04522 8.03254 1.10206 7.74682C1.15889 7.46109 1.29918 7.19863 1.50518 6.99263C1.71118 6.78663 1.97363 6.64635 2.25936 6.58951C2.54509 6.53268 2.84125 6.56185 3.1104 6.67333C3.37955 6.78482 3.6096 6.97361 3.77145 7.21584C3.9333 7.45807 4.01969 7.74285 4.01969 8.03418C4.01926 8.4247 3.86393 8.7991 3.58779 9.07524C3.31165 9.35138 2.93725 9.50671 2.54672 9.50714ZM12.4558 14.9973C12.1644 14.9973 11.8797 14.9109 11.6374 14.7491C11.3952 14.5872 11.2064 14.3572 11.0949 14.088C10.9834 13.8189 10.9543 13.5227 11.0111 13.237C11.0679 12.9512 11.2082 12.6888 11.4142 12.4828C11.6202 12.2768 11.8827 12.1365 12.1684 12.0797C12.4541 12.0228 12.7503 12.052 13.0195 12.1635C13.2886 12.275 13.5187 12.4638 13.6805 12.706C13.8424 12.9482 13.9287 13.233 13.9287 13.5243C13.9283 13.9148 13.773 14.2893 13.4968 14.5654C13.2207 14.8415 12.8463 14.9969 12.4558 14.9973Z" fill="currentColor"/>
</svg>
