<svg width="15" height="15" viewBox="0 0 15 15" fill="none" xmlns="http://www.w3.org/2000/svg">
<path d="M3.35798 15.0005H0.248045V4.98553H3.35798V15.0005ZM1.80114 3.61941C0.806815 3.61941 0 2.79546 0 1.80114C0 0.806815 0.806279 0 1.80114 0C2.79599 0 3.60227 0.806279 3.60227 1.80114C3.60227 2.79546 2.79546 3.61941 1.80114 3.61941ZM14.9973 15.0005H11.8944V10.1254C11.8944 8.96336 11.8708 7.47348 10.2775 7.47348C8.66067 7.47348 8.41262 8.73567 8.41262 10.0418V15.0005H5.3059V4.98553H8.28833V6.35166H8.33173C8.74692 5.56466 9.76106 4.73428 11.274 4.73428C14.4214 4.73428 15 6.80703 15 9.49909V15.0005H14.9973Z" fill="currentColor"/>
</svg>
