<svg width="15" height="21" viewBox="0 0 15 21" fill="none" xmlns="http://www.w3.org/2000/svg">
<path d="M7.49966 4.74414C6.95379 4.74414 6.42017 4.90601 5.9663 5.20928C5.51242 5.51255 5.15867 5.9436 4.94977 6.44792C4.74087 6.95224 4.68622 7.50718 4.79271 8.04257C4.89921 8.57795 5.16207 9.06973 5.54806 9.45572C5.93405 9.84171 6.42583 10.1046 6.96121 10.2111C7.4966 10.3176 8.05154 10.2629 8.55586 10.054C9.06018 9.84511 9.49123 9.49136 9.7945 9.03748C10.0978 8.58361 10.2596 8.04999 10.2596 7.50412C10.2588 6.77238 9.96776 6.07086 9.45034 5.55344C8.93292 5.03602 8.2314 4.74497 7.49966 4.74414V4.74414ZM7.49966 8.88411C7.22672 8.88411 6.95992 8.80318 6.73298 8.65154C6.50604 8.49991 6.32916 8.28438 6.22471 8.03222C6.12027 7.78006 6.09294 7.50259 6.14618 7.2349C6.19943 6.96721 6.33086 6.72132 6.52386 6.52832C6.71685 6.33533 6.96274 6.20389 7.23044 6.15065C7.49813 6.0974 7.7756 6.12473 8.02776 6.22918C8.27992 6.33363 8.49544 6.5105 8.64708 6.73744C8.79872 6.96438 8.87965 7.23118 8.87965 7.50412C8.87923 7.86999 8.7337 8.22075 8.47499 8.47946C8.21629 8.73816 7.86553 8.88369 7.49966 8.88411V8.88411Z" fill="#999999"/>
<path d="M12.8032 2.19613C11.4919 0.885159 9.74148 0.106388 7.88975 0.010122C6.03802 -0.0861437 4.21627 0.50692 2.77609 1.67485C1.33591 2.84278 0.379411 4.50279 0.0911869 6.33448C-0.197037 8.16617 0.20345 10.0397 1.21535 11.5935L6.42943 19.598C6.54546 19.7761 6.70411 19.9224 6.891 20.0237C7.07789 20.125 7.2871 20.1781 7.49968 20.1781C7.71226 20.1781 7.92147 20.125 8.10836 20.0237C8.29524 19.9224 8.4539 19.7761 8.56993 19.598L13.7842 11.5935C14.7231 10.1521 15.1381 8.43183 14.9595 6.72092C14.7809 5.01002 14.0196 3.4125 12.8032 2.19613V2.19613ZM12.6279 10.8402L7.4997 18.7126L2.37144 10.8402C0.801701 8.43045 1.13838 5.20559 3.17196 3.17191C3.74029 2.60358 4.41498 2.15275 5.15754 1.84516C5.90009 1.53758 6.69596 1.37927 7.4997 1.37927C8.30344 1.37927 9.09931 1.53758 9.84186 1.84516C10.5844 2.15275 11.2591 2.60358 11.8274 3.17191C13.861 5.20559 14.1977 8.43045 12.6279 10.8402Z" fill="#999999"/>
</svg>
