<svg width="15" height="15" viewBox="0 0 15 15" fill="none" xmlns="http://www.w3.org/2000/svg">
<path d="M14.5711 1.5587L14.5463 1.54321L11.4139 0L8.03302 4.50788L9.5885 6.58198C9.54195 7.36417 9.21024 8.10216 8.65617 8.65623C8.10209 9.2103 7.3641 9.542 6.5819 9.58853L4.50784 8.03306L0 11.4139L1.53037 14.5201L1.54325 14.5463L1.55877 14.5711C1.64044 14.7027 1.75442 14.8112 1.88988 14.8862C2.02534 14.9613 2.17776 15.0005 2.33263 15H3.1409C4.69826 15 6.24038 14.6932 7.67919 14.0973C9.118 13.5013 10.4253 12.6278 11.5266 11.5265C12.6278 10.4253 13.5013 9.11797 14.0973 7.67916C14.6933 6.24034 15 4.69823 15 3.14087V2.33256C15.0005 2.17769 14.9613 2.02527 14.8863 1.88981C14.8112 1.75436 14.7027 1.64037 14.5711 1.5587ZM13.8424 3.14087C13.8424 9.04173 9.04173 13.8424 3.1409 13.8424H2.48688L1.46294 11.7638L4.50806 9.47994L6.20342 10.7514H6.39633C7.55104 10.7501 8.65809 10.2908 9.47459 9.47434C10.2911 8.65783 10.7504 7.55079 10.7517 6.39608V6.20316L9.48019 4.50784L11.7638 1.46291L13.8424 2.48702V3.14087Z" fill="currentColor"/>
</svg>
