<svg width="96" height="95" viewBox="0 0 96 95" fill="none" xmlns="http://www.w3.org/2000/svg">
<path d="M85.6402 74.6205C91.6422 69.2712 95.0407 62.1411 95.0407 54.742C95.0407 46.8786 91.3596 39.5246 84.6751 34.0333C78.1695 28.6907 69.5584 25.748 60.4269 25.748C51.2953 25.748 42.6842 28.6907 36.1795 34.0337C29.4951 39.5246 25.814 46.8786 25.814 54.742C25.814 62.6055 29.4951 69.9595 36.1795 75.4508C42.6842 80.7938 51.2953 83.7362 60.4269 83.7362C61.6436 83.7362 62.8678 83.6825 64.0819 83.5758L66.1559 85.3735C73.301 91.565 82.4386 94.9735 91.8931 94.9738H95.0397V88.276L94.1182 87.3547C90.4827 83.7084 87.6017 79.3812 85.6402 74.6205V74.6205ZM70.2776 80.6173L66.116 77.0103L64.7283 77.1804C63.3011 77.355 61.8647 77.4425 60.4269 77.4426C44.8117 77.4426 32.1072 67.2591 32.1072 54.742C32.1072 42.225 44.8117 32.0413 60.4269 32.0413C76.042 32.0413 88.7465 42.2248 88.7465 54.742C88.7465 60.9783 85.6353 66.8003 79.9859 71.1356L78.1736 72.5262L79.0098 74.893C80.7235 79.727 83.2424 84.2363 86.4599 88.2302C80.468 87.23 74.8684 84.5957 70.2776 80.6173V80.6173Z" fill="currentColor"/>
<path d="M9.33047 59.8645C12.276 56.136 14.5886 51.9487 16.176 47.4701L17.0059 45.115L15.1952 43.7254C9.86796 39.6376 6.93412 34.151 6.93412 28.2765C6.93412 16.4719 18.9324 6.8682 33.6804 6.8682C44.53 6.8682 53.891 12.066 58.0819 19.5137C58.8601 19.4759 59.6417 19.4547 60.4268 19.4547C62.0036 19.4547 63.566 19.5312 65.1141 19.6842C63.4945 15.4884 60.6818 11.6582 56.8148 8.48203C50.6077 3.38312 42.3927 0.574951 33.6804 0.574951C24.9682 0.574951 16.7532 3.38312 10.5457 8.48203C4.1584 13.7288 0.640869 20.7586 0.640869 28.2765C0.640869 35.317 3.85672 42.101 9.53992 47.204C7.68526 51.6673 4.97526 55.7246 1.56263 59.1472L0.640869 60.0688V66.6541H3.7875C9.60621 66.6534 15.3449 65.2983 20.5494 62.6962C19.9787 60.5332 19.6443 58.3146 19.5521 56.0795C16.3932 57.9308 12.9333 59.212 9.33047 59.8645V59.8645Z" fill="currentColor"/>
</svg>
