<svg width="20" height="19" viewBox="0 0 20 19" fill="none" xmlns="http://www.w3.org/2000/svg">
<path d="M19 2.33333H15.3333V0H14V2.33333H6V0H4.66667V2.33333H1C0.734878 2.33364 0.480704 2.4391 0.293234 2.62657C0.105765 2.81404 0.000308769 3.06821 0 3.33333V17.3333C0.000308769 17.5985 0.105765 17.8526 0.293234 18.0401C0.480704 18.2276 0.734878 18.333 1 18.3333H19C19.2651 18.333 19.5193 18.2276 19.7068 18.0401C19.8942 17.8526 19.9997 17.5985 20 17.3333V3.33333C19.9997 3.06821 19.8942 2.81404 19.7068 2.62657C19.5193 2.4391 19.2651 2.33364 19 2.33333ZM18.6667 17H1.33333V3.66667H4.66667V5.33333H6V3.66667H14V5.33333H15.3333V3.66667H18.6667V17Z" fill="currentColor"/>
<path d="M9.47495 11.3905L7.2089 9.12449L6.26611 10.0673L9.47495 13.2761L14.7089 8.04216L13.7661 7.09937L9.47495 11.3905Z" fill="currentColor"/>
</svg>
