<svg width="20" height="20" viewBox="0 0 20 20" fill="none" xmlns="http://www.w3.org/2000/svg">
<path d="M18.9999 0H6.33325C6.06804 0 5.81368 0.105357 5.62615 0.292893C5.43861 0.48043 5.33325 0.734784 5.33325 1V13.6667C5.33325 13.9319 5.43861 14.1862 5.62615 14.3738C5.81368 14.5613 6.06804 14.6667 6.33325 14.6667H18.9999C19.2651 14.6667 19.5195 14.5613 19.707 14.3738C19.8946 14.1862 19.9999 13.9319 19.9999 13.6667V1C19.9999 0.734784 19.8946 0.48043 19.707 0.292893C19.5195 0.105357 19.2651 0 18.9999 0ZM18.6666 13.3333H6.66659V1.33333H18.6666V13.3333Z" fill="currentColor"/>
<path d="M3.99984 16.0001V2.66675H2.6665V16.3334C2.6665 16.5986 2.77186 16.853 2.9594 17.0405C3.14693 17.2281 3.40129 17.3334 3.6665 17.3334H17.3332V16.0001H3.99984Z" fill="currentColor"/>
<path d="M1.33333 18.6666V5.33325H0V18.9999C0 19.2651 0.105357 19.5195 0.292893 19.707C0.48043 19.8946 0.734784 19.9999 1 19.9999H14.6667V18.6666H1.33333Z" fill="currentColor"/>
</svg>
