<svg width="20" height="22" viewBox="0 0 20 22" fill="none" xmlns="http://www.w3.org/2000/svg">
<path d="M9.99983 6.70044C9.23259 6.70044 8.48258 6.92795 7.84465 7.35421C7.20671 7.78046 6.7095 8.38631 6.4159 9.09515C6.12229 9.80398 6.04546 10.584 6.19515 11.3365C6.34483 12.089 6.71429 12.7802 7.2568 13.3227C7.79932 13.8652 8.49053 14.2347 9.24303 14.3843C9.99552 14.534 10.7755 14.4572 11.4843 14.1636C12.1932 13.87 12.799 13.3728 13.2253 12.7348C13.6515 12.0969 13.879 11.3469 13.879 10.5797C13.8779 9.55119 13.4688 8.56517 12.7416 7.83793C12.0143 7.11068 11.0283 6.70161 9.99983 6.70044ZM9.99983 13.0483C9.51159 13.0483 9.03431 12.9035 8.62835 12.6322C8.22239 12.361 7.90599 11.9754 7.71914 11.5244C7.5323 11.0733 7.48342 10.5769 7.57867 10.0981C7.67392 9.6192 7.90903 9.17934 8.25427 8.8341C8.59951 8.48886 9.03937 8.25375 9.51823 8.1585C9.99709 8.06325 10.4934 8.11213 10.9445 8.29898C11.3956 8.48582 11.7811 8.80222 12.0524 9.20818C12.3236 9.61414 12.4684 10.0914 12.4684 10.5797C12.4677 11.2341 12.2074 11.8616 11.7446 12.3244C11.2818 12.7872 10.6543 13.0475 9.99983 13.0483Z" fill="currentColor"/>
<path d="M19.6781 13.5032L18.2776 12.3503C18.5259 11.183 18.5259 9.97644 18.2776 8.8091L19.6781 7.65622C19.8396 7.52388 19.9487 7.33835 19.9859 7.13288C20.0231 6.9274 19.986 6.71539 19.8811 6.53482L18.4435 4.04493C18.3396 3.86376 18.1745 3.72553 17.9779 3.65501C17.7813 3.58449 17.5661 3.58629 17.3707 3.66009L15.6708 4.29695C14.7853 3.49689 13.7407 2.8931 12.6054 2.5252L12.3071 0.736747C12.2733 0.530634 12.1673 0.343284 12.0079 0.208277C11.8486 0.0732712 11.6463 -0.00056499 11.4375 3.25561e-06H8.56234C8.35349 -0.000557758 8.15126 0.0732754 7.9919 0.208271C7.83255 0.343267 7.72647 0.530602 7.69269 0.736703L7.3946 2.5252C6.25932 2.89309 5.21465 3.49688 4.32914 4.29695L2.62911 3.66C2.43374 3.58625 2.21849 3.58448 2.02193 3.65501C1.82537 3.72553 1.66034 3.86375 1.55642 4.04488L0.118861 6.53495C0.0140166 6.71554 -0.0231122 6.92755 0.0141241 7.13302C0.0513605 7.33849 0.16053 7.524 0.322079 7.65631L1.72243 8.8091C1.47416 9.97644 1.47416 11.183 1.72243 12.3503L0.321947 13.5032C0.160423 13.6355 0.0512838 13.821 0.0140724 14.0265C-0.023139 14.232 0.0140077 14.444 0.118861 14.6246L1.55646 17.1145C1.6604 17.2956 1.82545 17.4338 2.02204 17.5044C2.21863 17.5749 2.4339 17.5731 2.62929 17.4993L4.32918 16.8624C5.21469 17.6625 6.25936 18.2663 7.39465 18.6342L7.69273 20.4226C7.7265 20.6287 7.83257 20.8161 7.99192 20.9511C8.15127 21.0861 8.35349 21.1599 8.56234 21.1594H11.4375C11.6463 21.16 11.8485 21.0861 12.0079 20.9511C12.1673 20.8161 12.2733 20.6288 12.3071 20.4227L12.6052 18.6342C13.7405 18.2663 14.7852 17.6625 15.6707 16.8624L17.3707 17.4994C17.5661 17.5731 17.7813 17.5749 17.9779 17.5044C18.1744 17.4338 18.3394 17.2956 18.4434 17.1145L19.8808 14.6244C19.9857 14.4439 20.0229 14.232 19.9858 14.0265C19.9486 13.8211 19.8395 13.6355 19.6781 13.5032ZM17.4459 16.0211L15.3252 15.2266L15.004 15.5499C14.1205 16.4405 13.0153 17.0792 11.8026 17.4002L11.3618 17.5164L10.9895 19.7488H9.01065L8.63851 17.5164L8.19769 17.4002C6.98494 17.0792 5.87979 16.4405 4.99623 15.5499L4.67509 15.2266L2.554 16.0211L1.56475 14.3074L3.31168 12.8692L3.19266 12.4296C2.86534 11.218 2.86534 9.94134 3.19266 8.72979L3.31168 8.29021L1.56475 6.85207L2.55422 5.13825L4.67496 5.93279L4.9961 5.60949C5.87966 4.71892 6.98481 4.08021 8.19756 3.75923L8.63838 3.64303L9.01048 1.41063H10.9895L11.3616 3.64303L11.8025 3.75923C13.0152 4.08021 14.1204 4.71892 15.0039 5.60949L15.3251 5.93279L17.4458 5.13825L18.4353 6.85203L16.6884 8.29021L16.8074 8.72979C17.1347 9.94134 17.1347 11.218 16.8074 12.4296L16.6884 12.8692L18.4353 14.3073L17.4459 16.0211Z" fill="currentColor"/>
</svg>
