<svg width="300" height="290" viewBox="0 0 300 290" fill="none" xmlns="http://www.w3.org/2000/svg">
<g clip-path="url(#clip0_10_1137)">
<path d="M256.153 4.31335H204.585V71.4349H256.153V4.31335Z" fill="#F4F4F4"/>
<path d="M256.153 71.4352H257.826V4.31366H256.153V71.4352Z" fill="#F4F4F4"/>
<path opacity="0.05" d="M256.153 71.4352H257.826V4.31366H256.153V71.4352Z" fill="#292A2E"/>
<path opacity="0.05" d="M246.759 16.5405H213.979V59.2081H246.759V16.5405Z" fill="#292A2E"/>
<path opacity="0.03" d="M246.759 16.5405H245.051V59.2081H246.759V16.5405Z" fill="#292A2E"/>
<path d="M298.327 87.9415H256.153V130.503H298.327V87.9415Z" fill="#F4F4F4"/>
<path opacity="0.05" d="M290.645 95.6946H263.836V122.75H290.645V95.6946Z" fill="#292A2E"/>
<path d="M298.327 130.503H300V87.9415H298.327V130.503Z" fill="#F4F4F4"/>
<path opacity="0.05" d="M298.327 130.503H300V87.9415H298.327V130.503Z" fill="#292A2E"/>
<path opacity="0.03" d="M290.645 95.6946H288.936V122.75H290.645V95.6946Z" fill="#292A2E"/>
<path d="M146.086 0H5.59671V140.489H146.086V0Z" fill="#F4F4F4"/>
<path d="M147.696 0H146.086V140.489H147.696V0Z" fill="#F4F4F4"/>
<path opacity="0.05" d="M147.696 0H146.086V140.489H147.696V0Z" fill="#292A2E"/>
<path opacity="0.05" d="M112.052 96.8086V60.0521H81.9426V81.4067H35.3036V119.218H15.4813V140.489H35.3036H39.1224H139.328V96.8086H112.052Z" fill="#292A2E"/>
<path opacity="0.34" d="M107.734 64.043H85.8076V68.0339H107.734V64.043Z" fill="#FFFFFA"/>
<path opacity="0.34" d="M107.734 72.313H85.8076V76.3039H107.734V72.313Z" fill="#FFFFFA"/>
<path opacity="0.34" d="M107.734 80.5831H85.8076V84.574H107.734V80.5831Z" fill="#FFFFFA"/>
<path opacity="0.34" d="M135.44 100.683H131.399V104.674H135.44V100.683Z" fill="#FFFFFA"/>
<path opacity="0.34" d="M135.44 108.953H131.399V112.944H135.44V108.953Z" fill="#FFFFFA"/>
<path opacity="0.34" d="M135.44 117.223H131.399V121.214H135.44V117.223Z" fill="#FFFFFA"/>
<path opacity="0.34" d="M127.964 100.683H123.922V104.674H127.964V100.683Z" fill="#FFFFFA"/>
<path opacity="0.34" d="M127.964 108.953H123.922V112.944H127.964V108.953Z" fill="#FFFFFA"/>
<path opacity="0.34" d="M127.964 117.223H123.922V121.214H127.964V117.223Z" fill="#FFFFFA"/>
<path opacity="0.34" d="M120.689 100.683H116.648V104.674H120.689V100.683Z" fill="#FFFFFA"/>
<path opacity="0.34" d="M120.689 108.953H116.648V112.944H120.689V108.953Z" fill="#FFFFFA"/>
<path opacity="0.34" d="M120.689 117.223H116.648V121.214H120.689V117.223Z" fill="#FFFFFA"/>
<path d="M146.086 69.4566H117.817V0H115.479V69.4566H39.1224V0H36.7844V69.4566H5.59671V71.7946H36.7844V140.489H39.1224V71.7946H115.479V140.489H117.817V71.7946H146.086V69.4566Z" fill="white"/>
<path d="M151.683 140.32H0V144.992H151.683V140.32Z" fill="#F4F4F4"/>
<path opacity="0.1" d="M151.683 140.32H0V144.992H151.683V140.32Z" fill="#292A2E"/>
<path opacity="0.1" d="M153.873 140.32H151.683V144.992H153.873V140.32Z" fill="#292A2E"/>
<path opacity="0.1" d="M153.873 140.32H151.683V144.992H153.873V140.32Z" fill="#292A2E"/>
<path opacity="0.05" d="M225.843 283.178H218.038V288.39H225.843V283.178Z" fill="#292A2E"/>
<path opacity="0.05" d="M274.833 283.178H267.029V288.39H274.833V283.178Z" fill="#292A2E"/>
<path d="M281.987 203.772H210.885V283.178H281.987V203.772Z" fill="#F4F4F4"/>
<path opacity="0.03" d="M281.987 203.772H210.885V283.178H281.987V203.772Z" fill="#292A2E"/>
<path d="M263.103 203.772H192.002V283.178H263.103V203.772Z" fill="#F4F4F4"/>
<path opacity="0.05" d="M206.959 283.178H199.155V288.39H206.959V283.178Z" fill="#292A2E"/>
<path opacity="0.05" d="M255.95 283.178H248.146V288.39H255.95V283.178Z" fill="#292A2E"/>
<path opacity="0.7" d="M259.278 208.681H195.826V228.821H259.278V208.681Z" fill="white"/>
<path opacity="0.7" d="M259.278 233.751H195.826V253.89H259.278V233.751Z" fill="white"/>
<path opacity="0.7" d="M259.278 258.82H195.826V278.959H259.278V258.82Z" fill="white"/>
<path opacity="0.05" d="M227.552 221.569C229.109 221.569 230.371 220.308 230.371 218.751C230.371 217.195 229.109 215.933 227.552 215.933C225.996 215.933 224.734 217.195 224.734 218.751C224.734 220.308 225.996 221.569 227.552 221.569Z" fill="#292A2E"/>
<path opacity="0.05" d="M227.552 246.639C229.109 246.639 230.371 245.377 230.371 243.82C230.371 242.264 229.109 241.002 227.552 241.002C225.996 241.002 224.734 242.264 224.734 243.82C224.734 245.377 225.996 246.639 227.552 246.639Z" fill="#292A2E"/>
<path opacity="0.05" d="M227.552 271.708C229.109 271.708 230.371 270.446 230.371 268.89C230.371 267.333 229.109 266.071 227.552 266.071C225.996 266.071 224.734 267.333 224.734 268.89C224.734 270.446 225.996 271.708 227.552 271.708Z" fill="#292A2E"/>
<path d="M33.4172 249.815C33.3778 249.816 33.3388 249.808 33.3025 249.793C33.2661 249.778 33.2331 249.756 33.2053 249.728C32.783 249.306 32.0946 241.558 30.2406 218.491C29.4821 209.053 28.7655 200.138 28.2425 194.72C28.2053 194.333 28.0552 194.288 28.006 194.273C27.29 194.058 25.1133 195.774 23.8979 197.277C23.8479 197.339 23.7754 197.379 23.6964 197.387C23.6173 197.395 23.5381 197.372 23.4763 197.322C23.4144 197.272 23.375 197.199 23.3666 197.12C23.3582 197.041 23.3816 196.962 23.4316 196.9C24.2354 195.906 26.8548 193.301 28.1783 193.699C28.4451 193.779 28.7778 194.012 28.8377 194.663C29.3613 200.085 30.0779 209.002 30.8367 218.443C31.9633 232.461 33.2395 248.341 33.6591 249.341C33.6912 249.386 33.7104 249.439 33.7144 249.494C33.7185 249.548 33.7074 249.603 33.6822 249.653C33.6571 249.702 33.6189 249.743 33.5719 249.771C33.5249 249.8 33.4708 249.815 33.4157 249.815H33.4172Z" fill="#494949"/>
<path d="M27.4725 204.662C32.4458 200.676 34.0941 194.471 31.1542 190.803C28.2143 187.136 21.7993 187.394 16.8261 191.381C11.8528 195.367 10.2045 201.572 13.1444 205.24C16.0843 208.907 22.4992 208.649 27.4725 204.662Z" fill="#0CBC8B"/>
<path opacity="0.2" d="M27.4725 204.662C32.4458 200.676 34.0941 194.471 31.1542 190.803C28.2143 187.136 21.7993 187.394 16.8261 191.381C11.8528 195.367 10.2045 201.572 13.1444 205.24C16.0843 208.907 22.4992 208.649 27.4725 204.662Z" fill="white"/>
<path d="M14.5381 206.172C14.5097 206.172 14.4818 206.164 14.4578 206.149C14.4338 206.133 14.4146 206.112 14.4025 206.086C14.3904 206.06 14.3859 206.031 14.3895 206.003C14.3931 205.975 14.4046 205.948 14.4228 205.926L28.5961 188.835C28.6087 188.819 28.6242 188.807 28.6416 188.798C28.659 188.789 28.678 188.783 28.6977 188.781C28.7173 188.779 28.737 188.781 28.7558 188.787C28.7747 188.793 28.7921 188.802 28.8073 188.815C28.8224 188.827 28.835 188.843 28.8442 188.86C28.8533 188.878 28.859 188.897 28.8608 188.916C28.8627 188.936 28.8606 188.956 28.8548 188.975C28.849 188.993 28.8395 189.011 28.8269 189.026L14.6535 206.118C14.6395 206.135 14.6218 206.148 14.6019 206.158C14.5819 206.167 14.5602 206.172 14.5381 206.172Z" fill="white"/>
<path d="M36.5078 246.152C36.4743 246.152 36.441 246.146 36.4095 246.134C36.3344 246.108 36.2728 246.053 36.2381 245.982C36.2035 245.91 36.1987 245.828 36.2249 245.753L41.5488 230.442C41.7056 229.992 41.9727 229.589 42.3257 229.269C42.6787 228.949 43.1063 228.723 43.5694 228.611C44.0325 228.5 44.5162 228.506 44.9762 228.629C45.4363 228.753 45.858 228.99 46.2027 229.319L49.0175 232.008C49.075 232.062 49.1083 232.138 49.1102 232.217C49.112 232.297 49.0822 232.374 49.0272 232.431C48.9723 232.489 48.8968 232.522 48.8173 232.524C48.7378 232.526 48.6608 232.496 48.6033 232.441L45.7888 229.752C45.5166 229.493 45.1837 229.305 44.8205 229.208C44.4573 229.11 44.0755 229.105 43.7099 229.194C43.3443 229.282 43.0067 229.46 42.728 229.713C42.4493 229.966 42.2384 230.284 42.1147 230.639L36.791 245.95C36.7706 246.009 36.7323 246.06 36.6816 246.096C36.6308 246.132 36.5701 246.152 36.5078 246.152Z" fill="#494949"/>
<path d="M56.8805 240.484C60.5661 237.567 60.3471 231.15 56.3912 226.153C52.4354 221.155 46.2407 219.468 42.5551 222.386C38.8694 225.303 39.0885 231.719 43.0443 236.717C47.0001 241.715 53.1948 243.401 56.8805 240.484Z" fill="#0CBC8B"/>
<path d="M30.998 248.839C30.9307 248.839 30.8653 248.816 30.8125 248.775C30.7596 248.733 30.7224 248.675 30.7067 248.609L21.7721 211.252C21.711 210.998 21.5809 210.765 21.3961 210.579C21.2113 210.394 20.9789 210.263 20.7245 210.201C20.4702 210.139 20.2036 210.149 19.9543 210.228C19.7049 210.308 19.4823 210.455 19.311 210.653L16.5567 213.835C16.5313 213.866 16.5 213.892 16.4646 213.911C16.4291 213.929 16.3903 213.941 16.3504 213.944C16.3105 213.948 16.2703 213.943 16.2322 213.931C16.1942 213.918 16.1589 213.898 16.1286 213.872C16.0983 213.846 16.0736 213.814 16.0559 213.778C16.0382 213.742 16.0279 213.703 16.0255 213.663C16.0232 213.623 16.0289 213.583 16.0423 213.545C16.0557 213.508 16.0765 213.473 16.1035 213.443L18.8575 210.261C19.1009 209.979 19.4173 209.771 19.7718 209.657C20.1262 209.544 20.5051 209.531 20.8666 209.619C21.2282 209.707 21.5585 209.893 21.8211 210.156C22.0838 210.42 22.2686 210.751 22.3554 211.113L31.2893 248.47C31.3078 248.547 31.2948 248.629 31.2532 248.696C31.2116 248.764 31.1448 248.812 31.0675 248.831C31.0447 248.836 31.0214 248.839 30.998 248.839Z" fill="#494949"/>
<path d="M27.7014 222.135C28.7875 215.854 25.9131 210.113 21.2813 209.312C16.6495 208.511 12.0143 212.954 10.9282 219.234C9.84212 225.515 12.7165 231.255 17.3483 232.056C21.98 232.857 26.6153 228.415 27.7014 222.135Z" fill="#0CBC8B"/>
<path d="M33.4172 249.815C33.4049 249.815 33.3926 249.815 33.3803 249.813C33.3413 249.809 33.3035 249.796 33.2692 249.777C33.2349 249.757 33.2048 249.731 33.1806 249.7C33.1563 249.669 33.1384 249.634 33.1279 249.596C33.1174 249.558 33.1145 249.518 33.1193 249.479L38.8245 203.157C38.8867 202.653 39.0933 202.177 39.4195 201.787C39.7457 201.397 40.1776 201.109 40.6632 200.959C41.1489 200.808 41.6676 200.802 42.1571 200.939C42.6466 201.076 43.0861 201.352 43.4226 201.733L49.9436 209.119C49.9697 209.148 49.9896 209.183 50.0024 209.22C50.0152 209.257 50.0205 209.296 50.0181 209.336C50.0156 209.375 50.0054 209.413 49.9881 209.449C49.9708 209.484 49.9467 209.516 49.9172 209.542C49.8877 209.568 49.8533 209.588 49.8161 209.601C49.7789 209.613 49.7395 209.619 49.7002 209.616C49.6609 209.614 49.6224 209.604 49.5871 209.586C49.5517 209.569 49.5201 209.545 49.494 209.515L42.973 202.13C42.713 201.835 42.3733 201.622 41.995 201.516C41.6167 201.41 41.2157 201.415 40.8404 201.531C40.465 201.648 40.1312 201.87 39.8792 202.171C39.6271 202.473 39.4674 202.841 39.4194 203.231L33.7142 249.552C33.7053 249.625 33.6702 249.692 33.6155 249.74C33.5608 249.789 33.4903 249.815 33.4172 249.815Z" fill="#494949"/>
<path d="M56.6312 213.223C58.9064 209.11 56.2294 203.274 50.652 200.189C45.0746 197.104 38.7088 197.937 36.4336 202.051C34.1584 206.164 36.8354 211.999 42.4128 215.084C47.9902 218.169 54.356 217.336 56.6312 213.223Z" fill="#0CBC8B"/>
<path opacity="0.2" d="M56.8805 240.484C60.5661 237.567 60.3471 231.15 56.3912 226.153C52.4354 221.155 46.2407 219.468 42.5551 222.386C38.8694 225.303 39.0885 231.719 43.0443 236.717C47.0001 241.715 53.1948 243.401 56.8805 240.484Z" fill="white"/>
<path opacity="0.5" d="M27.7014 222.135C28.7875 215.854 25.9131 210.113 21.2813 209.312C16.6495 208.511 12.0143 212.954 10.9282 219.234C9.84212 225.515 12.7165 231.255 17.3483 232.056C21.98 232.857 26.6153 228.415 27.7014 222.135Z" fill="white"/>
<path opacity="0.5" d="M56.6312 213.223C58.9064 209.11 56.2294 203.274 50.652 200.189C45.0746 197.104 38.7088 197.937 36.4336 202.051C34.1584 206.164 36.8354 211.999 42.4128 215.084C47.9902 218.169 54.356 217.336 56.6312 213.223Z" fill="white"/>
<path d="M40.7139 289.119H26.1194L23.7007 242.424H43.1322L40.7139 289.119Z" fill="#292A2E"/>
<path opacity="0.3" d="M40.7139 289.119H26.1194L23.7007 242.424H43.1322L40.7139 289.119Z" fill="white"/>
<path d="M56.8815 240.634C56.8589 240.634 56.8366 240.629 56.8162 240.619C56.7959 240.609 56.778 240.595 56.764 240.577L42.4381 222.479C42.4258 222.464 42.4168 222.446 42.4114 222.427C42.406 222.408 42.4044 222.388 42.4067 222.369C42.4089 222.349 42.415 222.33 42.4246 222.313C42.4342 222.296 42.4471 222.281 42.4625 222.268C42.4779 222.256 42.4956 222.247 42.5145 222.242C42.5335 222.236 42.5533 222.235 42.5728 222.237C42.5924 222.239 42.6113 222.245 42.6285 222.255C42.6457 222.265 42.6608 222.277 42.673 222.293L56.999 240.391C57.0165 240.413 57.0275 240.44 57.0306 240.468C57.0337 240.496 57.0288 240.524 57.0166 240.549C57.0043 240.575 56.9851 240.596 56.9612 240.611C56.9373 240.626 56.9097 240.634 56.8815 240.634Z" fill="white"/>
<path d="M55.6788 214.673C55.6469 214.673 55.6159 214.662 55.5904 214.643L37.2585 201.258C37.2264 201.234 37.2049 201.199 37.1988 201.16C37.1927 201.12 37.2024 201.08 37.2259 201.048C37.2493 201.016 37.2846 200.995 37.3238 200.988C37.3631 200.982 37.4032 200.992 37.4354 201.016L55.7672 214.401C55.7923 214.42 55.8109 214.446 55.8203 214.476C55.8297 214.507 55.8294 214.539 55.8194 214.569C55.8095 214.598 55.7904 214.624 55.7649 214.643C55.7394 214.661 55.7087 214.671 55.6773 214.671L55.6788 214.673Z" fill="white"/>
<path d="M16.6037 231.861C16.5906 231.861 16.5776 231.859 16.565 231.856C16.527 231.845 16.4945 231.82 16.4748 231.786C16.4551 231.752 16.4497 231.711 16.4598 231.673L22.2954 209.808C22.3002 209.789 22.3088 209.771 22.3207 209.755C22.3326 209.739 22.3476 209.725 22.3647 209.715C22.3818 209.705 22.4008 209.698 22.4205 209.696C22.4402 209.693 22.4603 209.694 22.4795 209.699C22.4987 209.705 22.5167 209.713 22.5325 209.726C22.5482 209.738 22.5614 209.753 22.5712 209.77C22.581 209.788 22.5873 209.807 22.5896 209.826C22.592 209.846 22.5904 209.866 22.5849 209.885L16.7494 231.749C16.7408 231.782 16.7219 231.81 16.6955 231.83C16.6692 231.85 16.6369 231.861 16.6037 231.861Z" fill="white"/>
<path d="M222.43 16.4949H50.1924C45.2267 16.4949 41.2012 20.5204 41.2012 25.4861V215.492C41.2012 220.458 45.2267 224.483 50.1924 224.483H222.43C227.395 224.483 231.421 220.458 231.421 215.492V25.4861C231.421 20.5204 227.395 16.4949 222.43 16.4949Z" fill="white"/>
<path d="M222.26 224.529H50.0209C47.5577 224.526 45.1962 223.546 43.4544 221.805C41.7127 220.063 40.7329 217.701 40.73 215.238V25.232C40.7329 22.7687 41.7127 20.4072 43.4544 18.6655C45.1962 16.9237 47.5577 15.9439 50.0209 15.9411H222.26C224.723 15.9438 227.084 16.9236 228.826 18.6654C230.568 20.4072 231.548 22.7687 231.55 25.232V215.238C231.548 217.701 230.568 220.063 228.826 221.805C227.084 223.546 224.723 224.526 222.26 224.529ZM50.0209 16.5405C47.7166 16.5432 45.5075 17.4598 43.8781 19.0891C42.2487 20.7185 41.3322 22.9277 41.3295 25.232V215.238C41.3321 217.542 42.2486 219.752 43.878 221.381C45.5074 223.01 47.7166 223.927 50.0209 223.93H222.26C224.564 223.927 226.773 223.01 228.402 221.381C230.032 219.752 230.948 217.542 230.951 215.238V25.232C230.948 22.9277 230.032 20.7185 228.402 19.0891C226.773 17.4598 224.564 16.5432 222.26 16.5405H50.0209Z" fill="#292A2E"/>
<path d="M231.25 25.2307V32.1803H41.0318V25.2307C41.0318 22.8461 41.9791 20.5592 43.6653 18.873C45.3515 17.1868 47.6384 16.2396 50.023 16.2396H222.259C224.644 16.2396 226.931 17.1868 228.617 18.873C230.303 20.5592 231.25 22.8461 231.25 25.2307Z" fill="#292A2E"/>
<path opacity="0.1" d="M72.7479 87.376C84.8882 87.376 94.7299 77.5343 94.7299 65.394C94.7299 53.2538 84.8882 43.4121 72.7479 43.4121C60.6076 43.4121 50.766 53.2538 50.766 65.394C50.766 77.5343 60.6076 87.376 72.7479 87.376Z" fill="#367CFF"/>
<path opacity="0.2" d="M72.7479 64.4482C76.9646 64.4482 80.3829 61.0299 80.3829 56.8132C80.3829 52.5965 76.9646 49.1782 72.7479 49.1782C68.5312 49.1782 65.1129 52.5965 65.1129 56.8132C65.1129 61.0299 68.5312 64.4482 72.7479 64.4482Z" fill="#367CFF"/>
<path opacity="0.2" d="M89.2734 79.8893C87.2103 82.2416 84.6688 84.1264 81.8187 85.4175C78.9687 86.7086 75.8758 87.3763 72.7469 87.376C69.6181 87.3757 66.5253 86.7074 63.6755 85.4158C60.8257 84.1242 58.2845 82.239 56.2218 79.8863C57.2785 76.3232 59.4585 73.197 62.4368 70.9739C65.4151 68.7509 69.0322 67.55 72.7487 67.5503C76.4653 67.5506 80.0821 68.7522 83.06 70.9758C86.0379 73.1994 88.2174 76.326 89.2734 79.8893Z" fill="#367CFF"/>
<path opacity="0.2" d="M83.1307 102.372H53.3357C52.2604 102.372 51.3888 103.243 51.3888 104.319C51.3888 105.394 52.2604 106.266 53.3357 106.266H83.1307C84.2059 106.266 85.0775 105.394 85.0775 104.319C85.0775 103.243 84.2059 102.372 83.1307 102.372Z" fill="#367CFF"/>
<path opacity="0.1" d="M153.927 44.8885H107.095C105.346 44.8885 103.928 46.3061 103.928 48.0549V54.6223C103.928 56.3711 105.346 57.7887 107.095 57.7887H153.927C155.676 57.7887 157.094 56.3711 157.094 54.6223V48.0549C157.094 46.3061 155.676 44.8885 153.927 44.8885Z" fill="#367CFF"/>
<path opacity="0.2" d="M175.623 64.9205H105.427C104.599 64.9205 103.928 65.5914 103.928 66.4191C103.928 67.2467 104.599 67.9176 105.427 67.9176H175.623C176.45 67.9176 177.121 67.2467 177.121 66.4191C177.121 65.5914 176.45 64.9205 175.623 64.9205Z" fill="#367CFF"/>
<path opacity="0.2" d="M175.623 73.9117H105.427C104.599 73.9117 103.928 74.5826 103.928 75.4102C103.928 76.2379 104.599 76.9088 105.427 76.9088H175.623C176.45 76.9088 177.121 76.2379 177.121 75.4102C177.121 74.5826 176.45 73.9117 175.623 73.9117Z" fill="#367CFF"/>
<path opacity="0.2" d="M163.634 82.9029H105.427C104.599 82.9029 103.928 83.5738 103.928 84.4014C103.928 85.229 104.599 85.9 105.427 85.9H163.634C164.462 85.9 165.133 85.229 165.133 84.4014C165.133 83.5738 164.462 82.9029 163.634 82.9029Z" fill="#367CFF"/>
<path opacity="0.1" d="M127.378 111.882H54.2033C52.6489 111.882 51.3888 113.142 51.3888 114.697V121.65C51.3888 123.205 52.6489 124.465 54.2033 124.465H127.378C128.933 124.465 130.193 123.205 130.193 121.65V114.697C130.193 113.142 128.933 111.882 127.378 111.882Z" fill="#367CFF"/>
<path opacity="0.2" d="M172.85 102.372H143.055C141.98 102.372 141.108 103.243 141.108 104.319C141.108 105.394 141.98 106.266 143.055 106.266H172.85C173.925 106.266 174.797 105.394 174.797 104.319C174.797 103.243 173.925 102.372 172.85 102.372Z" fill="#367CFF"/>
<path opacity="0.1" d="M217.097 111.882H143.922C142.368 111.882 141.108 113.142 141.108 114.697V121.65C141.108 123.205 142.368 124.465 143.922 124.465H217.097C218.652 124.465 219.912 123.205 219.912 121.65V114.697C219.912 113.142 218.652 111.882 217.097 111.882Z" fill="#367CFF"/>
<path opacity="0.2" d="M83.1307 134.868H53.3357C52.2604 134.868 51.3888 135.739 51.3888 136.815C51.3888 137.89 52.2604 138.761 53.3357 138.761H83.1307C84.2059 138.761 85.0775 137.89 85.0775 136.815C85.0775 135.739 84.2059 134.868 83.1307 134.868Z" fill="#367CFF"/>
<path opacity="0.1" d="M127.378 144.378H54.2033C52.6489 144.378 51.3888 145.638 51.3888 147.193V154.146C51.3888 155.701 52.6489 156.961 54.2033 156.961H127.378C128.933 156.961 130.193 155.701 130.193 154.146V147.193C130.193 145.638 128.933 144.378 127.378 144.378Z" fill="#367CFF"/>
<path opacity="0.2" d="M172.85 134.868H143.055C141.98 134.868 141.108 135.739 141.108 136.815C141.108 137.89 141.98 138.761 143.055 138.761H172.85C173.925 138.761 174.797 137.89 174.797 136.815C174.797 135.739 173.925 134.868 172.85 134.868Z" fill="#367CFF"/>
<path opacity="0.1" d="M217.097 144.378H143.922C142.368 144.378 141.108 145.638 141.108 147.193V154.146C141.108 155.701 142.368 156.961 143.922 156.961H217.097C218.652 156.961 219.912 155.701 219.912 154.146V147.193C219.912 145.638 218.652 144.378 217.097 144.378Z" fill="#367CFF"/>
<path opacity="0.2" d="M83.1307 167.364H53.3357C52.2604 167.364 51.3888 168.235 51.3888 169.311C51.3888 170.386 52.2604 171.257 53.3357 171.257H83.1307C84.2059 171.257 85.0775 170.386 85.0775 169.311C85.0775 168.235 84.2059 167.364 83.1307 167.364Z" fill="#367CFF"/>
<path opacity="0.1" d="M127.378 176.874H54.2033C52.6489 176.874 51.3888 178.134 51.3888 179.688V186.642C51.3888 188.197 52.6489 189.457 54.2033 189.457H127.378C128.933 189.457 130.193 188.197 130.193 186.642V179.688C130.193 178.134 128.933 176.874 127.378 176.874Z" fill="#367CFF"/>
<path opacity="0.2" d="M172.85 167.364H143.055C141.98 167.364 141.108 168.235 141.108 169.311C141.108 170.386 141.98 171.257 143.055 171.257H172.85C173.925 171.257 174.797 170.386 174.797 169.311C174.797 168.235 173.925 167.364 172.85 167.364Z" fill="#367CFF"/>
<path opacity="0.1" d="M217.097 176.874H143.922C142.368 176.874 141.108 178.134 141.108 179.688V186.642C141.108 188.197 142.368 189.457 143.922 189.457H217.097C218.652 189.457 219.912 188.197 219.912 186.642V179.688C219.912 178.134 218.652 176.874 217.097 176.874Z" fill="#367CFF"/>
<path opacity="0.2" d="M159.01 199.26H113.271C111.426 199.26 109.929 200.757 109.929 202.602V208.771C109.929 210.617 111.426 212.113 113.271 212.113H159.01C160.856 212.113 162.352 210.617 162.352 208.771V202.602C162.352 200.757 160.856 199.26 159.01 199.26Z" fill="#367CFF"/>
<path d="M144.12 53.7337L148.963 59.4539L148.663 58.4717C148.573 58.1528 148.607 57.8114 148.758 57.5165C148.91 57.2216 149.168 56.9953 149.48 56.8833C149.643 56.8311 149.815 56.8127 149.985 56.8291C150.156 56.8455 150.321 56.8965 150.471 56.979C150.621 57.0614 150.753 57.1735 150.858 57.3085C150.963 57.4435 151.04 57.5985 151.084 57.7641L153.298 66.1017C153.577 67.1541 153.434 68.2741 152.9 69.2228C152.365 70.1714 151.481 70.8736 150.436 71.1796C149.223 71.5347 147.931 71.5194 146.726 71.1357C145.521 70.7519 144.459 70.0172 143.675 69.0256L140.129 64.5267C139.941 64.2966 139.837 64.0083 139.836 63.7106C139.836 63.4129 139.938 63.1242 140.126 62.8933C140.3 62.6881 140.535 62.544 140.797 62.482C141.059 62.42 141.334 62.4433 141.581 62.5486C141.586 62.5289 141.597 62.5108 141.611 62.4965C141.626 62.4838 141.643 62.475 141.662 62.4707C141.681 62.4664 141.7 62.4668 141.719 62.4719L141.062 61.6417C140.861 61.3984 140.754 61.0905 140.762 60.7748C140.771 60.4592 140.893 60.1571 141.106 59.9244C141.325 59.7011 141.619 59.5669 141.93 59.548C142.242 59.5291 142.55 59.6267 142.794 59.8219C142.796 59.8087 142.8 59.7959 142.806 59.7842L142.537 59.4437C142.361 59.2105 142.264 58.9268 142.262 58.6347C142.26 58.3425 142.351 58.0574 142.524 57.8214C142.734 57.5674 143.036 57.4061 143.364 57.3718C143.692 57.3376 144.021 57.4332 144.279 57.6383L144.296 57.6212L142.261 55.2178C142.157 55.0946 142.079 54.9514 142.032 54.7969C141.985 54.6425 141.969 54.48 141.987 54.3195C142.005 54.159 142.055 54.0037 142.135 53.8632C142.214 53.7227 142.322 53.5999 142.45 53.5023C142.706 53.322 143.021 53.2456 143.331 53.2886C143.641 53.3316 143.923 53.4907 144.12 53.7337Z" fill="#E98862"/>
<path opacity="0.2" d="M144.23 57.7731C144.235 57.7861 144.242 57.798 144.251 57.8085L146.257 60.121C146.267 60.1328 146.279 60.1425 146.293 60.1495C146.307 60.1566 146.322 60.1608 146.338 60.1619C146.353 60.1631 146.369 60.1612 146.384 60.1563C146.398 60.1514 146.412 60.1436 146.424 60.1335C146.436 60.1233 146.445 60.1109 146.452 60.097C146.459 60.0831 146.464 60.0679 146.465 60.0523C146.466 60.0368 146.464 60.0212 146.459 60.0064C146.454 59.9916 146.447 59.9779 146.436 59.9661L144.433 57.6544C144.414 57.6351 144.389 57.6226 144.362 57.6191C144.336 57.6156 144.308 57.6213 144.285 57.6352C144.262 57.649 144.244 57.6703 144.235 57.6956C144.225 57.7208 144.224 57.7486 144.233 57.7743L144.23 57.7731Z" fill="#0C0C0C"/>
<path opacity="0.2" d="M142.797 59.8774C142.802 59.8899 142.809 59.9016 142.818 59.9118L144.379 61.74C144.399 61.7619 144.428 61.775 144.458 61.7765C144.488 61.7781 144.518 61.768 144.541 61.7483C144.564 61.7287 144.579 61.701 144.582 61.6709C144.585 61.6408 144.577 61.6107 144.558 61.5866L142.998 59.7584C142.979 59.737 142.954 59.7227 142.927 59.7181C142.899 59.7135 142.87 59.7189 142.846 59.7333C142.822 59.7477 142.804 59.7701 142.795 59.7967C142.786 59.8233 142.787 59.8522 142.797 59.8783L142.797 59.8774Z" fill="#0C0C0C"/>
<path opacity="0.2" d="M141.579 62.6281C141.584 62.6416 141.592 62.6541 141.601 62.6649L142.36 63.5113C142.371 63.5229 142.383 63.5323 142.397 63.539C142.411 63.5458 142.426 63.5497 142.442 63.5505C142.457 63.5514 142.473 63.5492 142.488 63.5441C142.502 63.5389 142.516 63.531 142.527 63.5206C142.539 63.5103 142.548 63.4977 142.555 63.4837C142.562 63.4697 142.566 63.4546 142.567 63.4391C142.567 63.4236 142.565 63.408 142.56 63.3934C142.555 63.3787 142.547 63.3652 142.537 63.3537L141.779 62.507C141.761 62.4869 141.736 62.4738 141.709 62.4699C141.682 62.466 141.654 62.4716 141.631 62.4857C141.607 62.4998 141.59 62.5216 141.58 62.5473C141.571 62.573 141.571 62.6012 141.581 62.6269L141.579 62.6281Z" fill="#0C0C0C"/>
<path d="M202.786 111.106L160.501 108.147C158.975 108.04 157.511 107.504 156.278 106.599C155.045 105.694 154.094 104.459 153.535 103.035L140.165 69.0256L155.227 63.1046L166.726 92.3592L203.914 94.9619L202.786 111.106Z" fill="#367CFF"/>
<path d="M227.337 275.492C227.337 275.492 225.984 282.505 219.417 282.897C212.849 283.29 214.273 288.52 214.273 288.52H239.37V275.981L227.337 275.492Z" fill="#367CFF"/>
<path d="M235.078 147.538C235.078 147.538 234.999 145.43 235.016 150.213C235.078 168.054 235.388 188.433 236.144 200.358C237.361 219.528 240.478 279.969 240.478 279.969L223.986 279.83L208.002 146.813L235.078 147.538Z" fill="#262626"/>
<path d="M197.978 275.492C197.978 275.492 196.625 282.505 190.057 282.897C183.49 283.29 184.914 288.52 184.914 288.52H210.011V275.981L197.978 275.492Z" fill="#367CFF"/>
<path d="M189.993 148.924C189.993 148.924 188.532 209.901 188.746 212.881L194.879 279.506L211.098 279.806L209.518 210.47C209.518 210.47 210.632 191.344 215.253 173.585C217.618 164.47 219.041 155.136 219.5 145.731L189.993 148.924Z" fill="#262626"/>
<path d="M235.258 147.537L235.311 147.54C235.311 147.54 235.272 146.5 235.258 147.537Z" fill="#333333"/>
<path d="M187.671 115.078C188.011 119.073 189.666 144.002 189.993 148.924H235.059C235.314 144.485 236.457 125.075 237.423 116.394C238.344 108.111 240.152 103.964 238.827 101.515C236.661 97.5127 230.743 95.1998 226.708 94.6535C224.244 94.3199 220.538 94.0807 220.538 94.0807C220.538 94.0807 220.224 100.429 212.742 100.782C202.556 101.262 203.236 94.0807 203.186 94.0807C201.536 94.0807 191.927 94.8567 189.803 96.4922C186.087 99.3525 186.949 106.61 187.671 115.078Z" fill="#367CFF"/>
<path d="M187.049 110.071C187.011 110.071 186.974 110.056 186.946 110.03C186.918 110.004 186.901 109.968 186.899 109.929L186.537 103.584C186.535 103.545 186.548 103.506 186.575 103.476C186.601 103.446 186.638 103.428 186.678 103.426C186.717 103.424 186.756 103.438 186.786 103.464C186.815 103.491 186.833 103.528 186.836 103.567L187.2 109.912C187.202 109.952 187.188 109.991 187.162 110.02C187.136 110.05 187.098 110.068 187.059 110.07L187.049 110.071Z" fill="#0C0C0C"/>
<path d="M244.803 148.663C246.129 148.662 247.435 148.342 248.61 147.729C249.785 147.115 250.795 146.227 251.552 145.139C252.31 144.052 252.794 142.797 252.963 141.483C253.132 140.168 252.981 138.832 252.522 137.588C252.057 136.325 241.142 107.421 239.063 102.065L223.677 108.299C224.846 111.311 229.078 122.725 232.48 131.92L226.829 131.305L225.051 147.665L243.913 148.614C244.209 148.646 244.506 148.662 244.803 148.663Z" fill="#367CFF"/>
<path d="M197.817 93.5335C197.868 93.5269 199.25 98.7292 210.039 97.9197C217.507 97.3601 219.33 92.2762 219.5 92.2762C218.695 92.1051 217.387 91.9273 217.029 91.7367C215.853 91.1049 214.996 90.3356 214.565 88.6848C214.228 87.3937 214.056 82.4237 214.056 79.9301L202.563 82.5127C202.723 85.3257 203.844 91.8464 199.914 93.0006C199.261 93.1912 198.557 93.3668 197.817 93.5335Z" fill="#E98862"/>
<path d="M202.961 88.0425C207.492 88.4001 213.312 86.4871 214.417 80.4423L215.415 74.9876C216.521 68.9429 214.242 63.4619 208.552 62.421C202.86 61.3801 197.71 65.5022 196.604 71.547L196.163 73.9618C195.738 76.2815 194.877 87.4048 202.961 88.0425Z" fill="#E98862"/>
<path d="M198.76 82.4926C199.573 78.4064 199.946 75.68 199.903 72.8037C198.757 70.7957 199.058 68.4879 199.319 67.4917C198.53 67.9929 197.603 68.2308 196.67 68.1711C196.67 68.1711 198.564 60.5682 205.002 58.5224C206.186 58.0615 209.209 57.4794 213.223 58.03C216.637 58.4981 225.053 61.051 226.255 70.5256V70.531C226.295 70.8451 227.103 79.5747 228.713 83.7631C230.878 89.3936 233.918 91.143 233.841 97.6394C233.742 105.996 218.38 107.108 209.116 106.483C199.851 105.858 194.678 102.811 194.61 96.7889C194.539 90.0416 197.133 90.6683 198.76 82.4926Z" fill="#0A0A0A"/>
<path d="M236.023 116.562L234.916 148.92L235.215 148.93L236.322 116.573L236.023 116.562Z" fill="#0C0C0C"/>
<path d="M18.128 289.119H283.402C283.432 289.121 283.461 289.116 283.489 289.105C283.517 289.094 283.542 289.078 283.563 289.058C283.585 289.037 283.602 289.012 283.613 288.985C283.625 288.958 283.631 288.928 283.631 288.899C283.631 288.869 283.625 288.84 283.613 288.812C283.602 288.785 283.585 288.76 283.563 288.74C283.542 288.719 283.517 288.703 283.489 288.692C283.461 288.682 283.432 288.677 283.402 288.678H18.128C18.0983 288.677 18.0688 288.682 18.041 288.692C18.0133 288.703 17.988 288.719 17.9666 288.74C17.9452 288.76 17.9282 288.785 17.9166 288.812C17.905 288.84 17.899 288.869 17.899 288.899C17.899 288.928 17.905 288.958 17.9166 288.985C17.9282 289.012 17.9452 289.037 17.9666 289.058C17.988 289.078 18.0133 289.094 18.041 289.105C18.0688 289.116 18.0983 289.121 18.128 289.119Z" fill="#292A2E"/>
<path d="M216.455 168.577C216.455 168.577 215.771 181.524 215.646 184.564C215.353 191.594 215.251 198.872 215.251 207.124L212.651 185.491C212.651 185.491 214.552 178.711 216.455 168.577Z" fill="#0A0A0A"/>
</g>
<defs>
<clipPath id="clip0_10_1137">
<rect width="300" height="289.119" fill="white"/>
</clipPath>
</defs>
</svg>
