<svg width="450" height="331" viewBox="0 0 450 331" fill="none" xmlns="http://www.w3.org/2000/svg">
<g clip-path="url(#clip0_17_912)">
<path d="M418.955 314.31C436.64 314.31 450.75 296.531 449.969 275.236C448.948 247.392 437.135 208.076 390.574 168.787C333.795 120.873 362.5 -9.02147 241.86 0.496547C121.22 10.0146 147.934 101.845 80.4568 157.542C19.1992 208.107 0.00330774 238.576 0 276.951C0 297.594 13.9168 314.31 31.0437 314.31H418.955Z" fill="#F3F5FD"/>
<path d="M371.658 7.58203H71.618V224.868H371.658V7.58203Z" fill="#DEE8F5"/>
<path d="M371.658 7.58203H71.618V25.4807H371.658V7.58203Z" fill="#C1D8ED"/>
<path d="M361.608 21.0226C364.089 21.0226 366.099 19.012 366.099 16.5318C366.099 14.0516 364.089 12.041 361.608 12.041C359.128 12.041 357.118 14.0516 357.118 16.5318C357.118 19.012 359.128 21.0226 361.608 21.0226Z" fill="white"/>
<path d="M209.914 109.688V92.9226C209.914 92.6064 209.788 92.3032 209.565 92.0796C209.341 91.856 209.038 91.7303 208.722 91.7301H196.411C196.141 91.729 195.879 91.6365 195.669 91.4676C195.458 91.2987 195.311 91.0634 195.251 90.8001C194.118 85.9588 192.201 81.335 189.577 77.1116C189.434 76.8827 189.372 76.6119 189.402 76.3434C189.432 76.0749 189.552 75.8245 189.743 75.633L198.447 66.9265C198.558 66.8159 198.646 66.6845 198.706 66.5398C198.766 66.3952 198.797 66.2401 198.797 66.0836C198.797 65.927 198.766 65.772 198.706 65.6273C198.646 65.4827 198.558 65.3513 198.447 65.2407L186.589 53.3819C186.366 53.1584 186.062 53.0328 185.746 53.0328C185.43 53.0328 185.127 53.1584 184.903 53.3819L176.196 62.0889C176.005 62.2797 175.754 62.3998 175.486 62.4299C175.217 62.4599 174.946 62.398 174.717 62.2543C170.495 59.6296 165.872 57.7123 161.032 56.5782C160.768 56.5185 160.533 56.3713 160.364 56.1605C160.195 55.9497 160.102 55.6879 160.101 55.4178V43.1075C160.101 42.7912 159.975 42.4879 159.752 42.2643C159.528 42.0407 159.225 41.915 158.909 41.915H142.141C141.825 41.915 141.522 42.0407 141.298 42.2643C141.074 42.4879 140.949 42.7912 140.949 43.1075V55.4178C140.948 55.6879 140.855 55.9497 140.686 56.1605C140.517 56.3713 140.282 56.5185 140.018 56.5782C135.177 57.7118 130.554 59.6283 126.331 62.2521C126.102 62.396 125.831 62.4579 125.562 62.4279C125.294 62.3979 125.043 62.2776 124.852 62.0867L116.145 53.3763C116.034 53.2656 115.902 53.1778 115.758 53.1178C115.613 53.0579 115.458 53.0271 115.301 53.0271C115.145 53.0271 114.99 53.0579 114.845 53.1178C114.7 53.1778 114.569 53.2656 114.458 53.3763L102.605 65.234C102.495 65.3447 102.407 65.4761 102.347 65.6207C102.287 65.7653 102.256 65.9204 102.256 66.077C102.256 66.2335 102.287 66.3886 102.347 66.5332C102.407 66.6778 102.495 66.8092 102.605 66.9199L111.312 75.6264C111.502 75.8183 111.622 76.0688 111.651 76.3373C111.681 76.6058 111.618 76.8764 111.475 77.105C108.851 81.3288 106.935 85.9526 105.802 90.794C105.742 91.0569 105.595 91.2919 105.385 91.4608C105.175 91.6296 104.914 91.7224 104.644 91.724H92.3338C92.0176 91.7242 91.7144 91.8499 91.4908 92.0735C91.2672 92.2971 91.1415 92.6003 91.1414 92.9165V109.682C91.1414 109.999 91.267 110.302 91.4906 110.525C91.7142 110.749 92.0175 110.875 92.3338 110.875H104.644C104.914 110.876 105.175 110.969 105.385 111.138C105.595 111.307 105.742 111.542 105.802 111.805C106.935 116.646 108.851 121.27 111.475 125.493C111.619 125.722 111.681 125.992 111.652 126.261C111.622 126.529 111.503 126.78 111.312 126.972L102.605 135.679C102.382 135.903 102.256 136.206 102.256 136.522C102.256 136.838 102.382 137.141 102.605 137.365L114.458 149.217C114.569 149.328 114.7 149.416 114.845 149.476C114.99 149.536 115.145 149.567 115.301 149.567C115.458 149.567 115.613 149.536 115.758 149.476C115.902 149.416 116.034 149.328 116.145 149.217L124.851 140.511C125.042 140.32 125.293 140.2 125.561 140.17C125.83 140.14 126.101 140.202 126.33 140.346C130.553 142.97 135.177 144.886 140.018 146.019C140.281 146.079 140.516 146.226 140.685 146.436C140.854 146.646 140.947 146.907 140.949 147.177V159.487C140.949 159.644 140.979 159.799 141.039 159.944C141.099 160.089 141.187 160.22 141.298 160.331C141.409 160.442 141.54 160.529 141.685 160.589C141.829 160.649 141.985 160.68 142.141 160.68H158.906C159.063 160.68 159.218 160.649 159.363 160.589C159.508 160.529 159.639 160.442 159.75 160.331C159.861 160.22 159.948 160.089 160.008 159.944C160.068 159.799 160.099 159.644 160.099 159.487V147.189C160.1 146.919 160.192 146.657 160.361 146.446C160.53 146.235 160.766 146.088 161.029 146.028C165.871 144.895 170.495 142.979 174.718 140.355C174.947 140.211 175.218 140.149 175.487 140.179C175.755 140.209 176.006 140.33 176.197 140.52L184.902 149.225C185.126 149.448 185.429 149.574 185.746 149.574C186.062 149.574 186.365 149.448 186.589 149.225L198.447 137.372C198.557 137.261 198.645 137.13 198.705 136.985C198.765 136.84 198.796 136.685 198.796 136.529C198.796 136.372 198.765 136.217 198.705 136.072C198.645 135.928 198.557 135.796 198.447 135.686L189.739 126.978C189.549 126.787 189.429 126.537 189.399 126.268C189.368 126 189.43 125.729 189.574 125.5C192.198 121.277 194.115 116.653 195.248 111.812C195.308 111.549 195.455 111.313 195.666 111.144C195.877 110.975 196.138 110.883 196.408 110.882H208.719C208.876 110.882 209.032 110.852 209.177 110.792C209.322 110.732 209.453 110.644 209.564 110.533C209.675 110.422 209.763 110.291 209.823 110.146C209.883 110.001 209.914 109.845 209.914 109.688ZM151.387 127.887C146.056 128.06 140.796 126.626 136.289 123.771C131.783 120.916 128.24 116.772 126.12 111.878C123.999 106.983 123.399 101.564 124.398 96.3239C125.397 91.084 127.949 86.2656 131.722 82.4946C135.495 78.7236 140.314 76.1742 145.555 75.1776C150.795 74.181 156.214 74.7832 161.108 76.9061C166.001 79.0289 170.144 82.5743 172.997 87.0816C175.849 91.589 177.281 96.8501 177.105 102.181C176.883 108.931 174.102 115.343 169.326 120.117C164.55 124.891 158.137 127.669 151.387 127.887Z" fill="white"/>
<path d="M279.25 166.737L276.972 156.503C276.95 156.408 276.911 156.317 276.854 156.237C276.798 156.157 276.727 156.089 276.644 156.036C276.561 155.984 276.469 155.948 276.373 155.931C276.276 155.914 276.178 155.917 276.082 155.938L268.568 157.61C268.403 157.646 268.231 157.625 268.079 157.551C267.927 157.477 267.806 157.353 267.733 157.2C266.384 154.399 264.585 151.837 262.41 149.616C262.291 149.496 262.216 149.339 262.198 149.171C262.179 149.003 262.218 148.834 262.309 148.691L266.44 142.193C266.546 142.026 266.581 141.824 266.539 141.631C266.496 141.438 266.378 141.27 266.211 141.164L257.361 135.537C257.194 135.431 256.992 135.396 256.799 135.439C256.606 135.482 256.438 135.599 256.332 135.766L252.201 142.264C252.109 142.407 251.972 142.514 251.812 142.569C251.652 142.623 251.478 142.621 251.319 142.564C248.384 141.537 245.302 140.995 242.193 140.961C242.024 140.96 241.86 140.903 241.728 140.797C241.596 140.691 241.504 140.544 241.467 140.379L239.794 132.865C239.773 132.769 239.733 132.679 239.677 132.599C239.62 132.518 239.549 132.45 239.466 132.398C239.384 132.345 239.291 132.309 239.195 132.292C239.098 132.276 239 132.278 238.904 132.299L228.675 134.577C228.482 134.62 228.314 134.738 228.208 134.905C228.102 135.072 228.066 135.274 228.109 135.467L229.782 142.981C229.818 143.146 229.797 143.319 229.722 143.47C229.648 143.622 229.524 143.744 229.372 143.816C226.571 145.166 224.009 146.964 221.788 149.139C221.668 149.258 221.511 149.333 221.343 149.352C221.175 149.37 221.006 149.331 220.863 149.241L214.365 145.106C214.198 145 213.995 144.965 213.802 145.008C213.61 145.051 213.442 145.169 213.335 145.335L207.712 154.184C207.606 154.351 207.571 154.553 207.614 154.746C207.657 154.939 207.775 155.107 207.941 155.213L214.439 159.345C214.581 159.436 214.689 159.573 214.743 159.733C214.798 159.894 214.796 160.068 214.739 160.227C213.712 163.162 213.17 166.244 213.136 169.354C213.136 169.522 213.078 169.686 212.972 169.818C212.867 169.95 212.719 170.042 212.555 170.079L205.04 171.752C204.944 171.773 204.854 171.813 204.774 171.869C204.694 171.925 204.625 171.997 204.573 172.079C204.52 172.162 204.485 172.254 204.468 172.351C204.451 172.447 204.453 172.546 204.474 172.641L206.753 182.876C206.774 182.971 206.814 183.062 206.87 183.142C206.927 183.222 206.998 183.29 207.081 183.343C207.163 183.395 207.255 183.431 207.352 183.448C207.448 183.465 207.547 183.462 207.643 183.441L215.157 181.769C215.322 181.732 215.494 181.753 215.646 181.828C215.797 181.902 215.919 182.026 215.991 182.179C217.341 184.98 219.139 187.542 221.315 189.763C221.434 189.883 221.508 190.04 221.527 190.208C221.545 190.376 221.506 190.545 221.416 190.688L217.281 197.185C217.175 197.352 217.14 197.554 217.183 197.747C217.226 197.94 217.344 198.108 217.511 198.215L226.357 203.838C226.439 203.89 226.532 203.926 226.628 203.943C226.724 203.96 226.823 203.958 226.919 203.936C227.014 203.915 227.105 203.875 227.185 203.819C227.265 203.763 227.334 203.691 227.386 203.608L231.517 197.111C231.609 196.968 231.746 196.861 231.906 196.807C232.066 196.752 232.24 196.753 232.399 196.81C235.334 197.839 238.417 198.38 241.526 198.414C241.695 198.414 241.859 198.472 241.99 198.578C242.122 198.684 242.214 198.831 242.252 198.996L243.924 206.51C243.945 206.605 243.985 206.696 244.042 206.776C244.098 206.856 244.169 206.924 244.252 206.977C244.334 207.03 244.427 207.065 244.523 207.082C244.62 207.099 244.718 207.097 244.814 207.075L255.048 204.798C255.143 204.776 255.234 204.737 255.314 204.68C255.394 204.624 255.462 204.553 255.515 204.47C255.568 204.387 255.603 204.295 255.62 204.199C255.637 204.102 255.635 204.003 255.614 203.908L253.941 196.394C253.905 196.229 253.926 196.056 254 195.905C254.075 195.753 254.198 195.631 254.351 195.559C257.152 194.209 259.714 192.411 261.936 190.236C262.056 190.117 262.213 190.042 262.381 190.024C262.549 190.005 262.718 190.044 262.861 190.134L269.358 194.266C269.44 194.318 269.533 194.354 269.629 194.371C269.725 194.388 269.824 194.386 269.92 194.365C270.015 194.343 270.106 194.303 270.186 194.247C270.266 194.191 270.335 194.12 270.387 194.037L276.015 185.19C276.067 185.108 276.103 185.016 276.12 184.919C276.137 184.823 276.135 184.724 276.113 184.628C276.092 184.533 276.052 184.442 275.996 184.362C275.94 184.282 275.868 184.214 275.785 184.161L269.287 180.026C269.145 179.935 269.038 179.798 268.983 179.638C268.928 179.478 268.93 179.304 268.987 179.144C270.015 176.21 270.556 173.127 270.591 170.018C270.591 169.849 270.649 169.686 270.755 169.554C270.861 169.422 271.008 169.33 271.173 169.293L278.687 167.62C278.878 167.576 279.044 167.459 279.149 167.294C279.255 167.129 279.291 166.929 279.25 166.737ZM245.998 185.798C242.767 186.629 239.362 186.468 236.223 185.338C233.085 184.207 230.359 182.16 228.399 179.46C226.44 176.76 225.338 173.534 225.235 170.2C225.133 166.866 226.036 163.578 227.827 160.763C229.617 157.949 232.212 155.738 235.276 154.418C238.339 153.097 241.729 152.728 245.004 153.359C248.28 153.99 251.29 155.591 253.644 157.955C255.997 160.319 257.586 163.335 258.203 166.614C258.985 170.763 258.158 175.055 255.892 178.618C253.625 182.181 250.088 184.748 245.998 185.798Z" fill="#C1D8ED"/>
<path d="M75.8811 231.652C75.8811 231.652 80.1437 229.392 79.1921 217.783L87.9995 216.15C87.9995 216.15 87.01 226.558 91.4655 229.862L75.8811 231.652Z" fill="#E98862"/>
<path opacity="0.15" d="M89.6611 227.688L82.3439 222.09L88.0911 222.03C88.2574 223.997 88.7899 225.916 89.6611 227.688Z" fill="black"/>
<path d="M74.1948 213.284C74.8045 216.806 76.7263 220.141 79.8328 221.277C83.5209 222.628 86.2526 222.72 90.5047 222.72C96.307 222.72 96.1151 216.668 96.2783 210.57C96.4437 204.45 95.9547 197.88 93.6614 195.747C89.0856 191.489 75.6491 194.185 74.015 201.308C73.1699 204.992 73.6143 209.931 74.1948 213.284Z" fill="#E98862"/>
<path d="M99.3881 199.287C99.3881 199.287 101.764 198.756 101.114 196.387C100.683 194.815 98.6693 195.164 98.6693 195.164C98.6693 195.164 100.576 194.815 100.576 193.151C100.576 192.103 99.7696 190.325 97.339 191.341C94.4866 192.532 91.2335 192.38 88.7604 191.963C87.3612 191.657 85.9409 191.457 84.5116 191.364H84.5039C82.8608 191.335 81.2227 191.554 79.6448 192.013C75.2235 193.337 68.5325 197.301 69.9548 206.288C71.5425 216.319 76.2494 220.155 78.3201 221.385C78.4426 221.459 78.5803 221.504 78.7227 221.516C78.8652 221.529 79.0087 221.509 79.1423 221.459C79.276 221.408 79.3964 221.327 79.4944 221.223C79.5925 221.119 79.6656 220.994 79.7082 220.857C80.2953 218.978 81.307 214.248 81.0241 204.494C94.6145 203.828 98.5248 203.625 98.5248 203.625C98.5248 203.625 101.722 203.745 101.722 201.408C101.722 199.071 99.3881 199.287 99.3881 199.287Z" fill="#0F1011"/>
<path d="M87.9872 210.572C88.4285 210.572 88.7863 210.214 88.7863 209.773C88.7863 209.331 88.4285 208.974 87.9872 208.974C87.5459 208.974 87.1881 209.331 87.1881 209.773C87.1881 210.214 87.5459 210.572 87.9872 210.572Z" fill="#0F1011"/>
<path d="M94.2894 210.054C94.7308 210.054 95.0885 209.696 95.0885 209.255C95.0885 208.814 94.7308 208.456 94.2894 208.456C93.8481 208.456 93.4904 208.814 93.4904 209.255C93.4904 209.696 93.8481 210.054 94.2894 210.054Z" fill="#0F1011"/>
<path d="M93.5571 207.151L95.6735 207.178" stroke="#0F1011" stroke-width="1.362" stroke-miterlimit="10" stroke-linecap="round"/>
<path d="M86.2635 207.949L88.3496 207.447" stroke="#0F1011" stroke-width="1.362" stroke-miterlimit="10" stroke-linecap="round"/>
<path d="M83.8319 211.727C83.8992 212.619 83.6108 213.501 83.0298 214.181C82.4487 214.861 81.6222 215.284 80.7306 215.357C79.839 215.43 78.9548 215.147 78.2711 214.57C77.5874 213.993 77.1597 213.169 77.0814 212.278C77.0374 211.833 77.0833 211.384 77.2165 210.958C77.3496 210.531 77.5672 210.136 77.8564 209.795C78.1455 209.454 78.5002 209.175 78.8995 208.974C79.2987 208.774 79.7342 208.655 80.1802 208.626C82.5937 208.55 83.6786 209.863 83.8319 211.727Z" fill="#E98862"/>
<g opacity="0.15">
<path d="M91.5328 214.203C91.4667 214.203 91.4029 214.179 91.3528 214.136C91.3028 214.093 91.2698 214.033 91.26 213.968C91.2502 213.903 91.2642 213.836 91.2993 213.78C91.3345 213.724 91.3886 213.683 91.4517 213.663L93.0769 213.165L91.9402 210.634C91.9113 210.567 91.9097 210.492 91.9359 210.424C91.9621 210.357 92.0138 210.302 92.08 210.272C92.1461 210.243 92.2213 210.24 92.2892 210.265C92.3572 210.291 92.4124 210.342 92.443 210.408L93.7076 213.223C93.7237 213.259 93.7319 213.297 93.7319 213.336C93.7318 213.375 93.7235 213.414 93.7074 213.45C93.6913 213.485 93.6678 213.517 93.6384 213.543C93.6091 213.569 93.5746 213.588 93.5373 213.599L91.6138 214.19C91.5876 214.199 91.5602 214.203 91.5328 214.203Z" fill="black"/>
</g>
<path d="M88.3568 216.063C88.3568 216.063 91.3051 216.374 93.3735 215.651C93.3735 215.651 93.3576 217.594 91.0239 217.785C88.6903 217.976 88.3568 216.063 88.3568 216.063Z" fill="#F8FCFF"/>
<path d="M110.5 316.911C111.547 316.736 123.364 314.717 123.364 314.717L121.415 303.306C121.415 303.306 109.631 305.319 108.587 305.494L110.5 316.911Z" fill="#E98862"/>
<path d="M130.104 327.857C130.154 328.165 130.14 328.479 130.064 328.781C129.987 329.082 129.848 329.365 129.657 329.611C129.466 329.857 129.226 330.061 128.953 330.21C128.68 330.359 128.379 330.45 128.068 330.477C127.639 330.515 127.207 330.43 126.824 330.23C126.441 330.031 126.123 329.727 125.908 329.353L119.231 316.808C119.102 316.565 119.028 316.297 119.013 316.023C118.997 315.748 119.042 315.474 119.142 315.218C120.105 313.179 120.387 310.885 119.947 308.673C119.535 306.962 118.649 305.402 117.392 304.171C117.27 304.064 117.181 303.925 117.135 303.77C117.089 303.615 117.088 303.45 117.133 303.295C117.177 303.139 117.265 302.999 117.386 302.892C117.507 302.784 117.656 302.713 117.816 302.687L124.314 301.598C124.506 301.566 124.702 301.572 124.891 301.616C125.081 301.66 125.26 301.741 125.418 301.854C125.576 301.968 125.71 302.111 125.812 302.276C125.915 302.441 125.984 302.625 126.015 302.817L130.104 327.857Z" fill="#C1D8ED"/>
<path d="M73.9185 286.046C69.0148 286.25 64.0201 286.393 59.0255 286.517L51.5191 286.682L44.0216 286.817L43.2746 286.83C40.1779 286.889 37.2185 288.119 34.9931 290.273C32.7677 292.427 31.4417 295.345 31.2825 298.438C31.1234 301.531 32.1429 304.569 34.1355 306.941C36.128 309.312 38.9455 310.839 42.0198 311.215L116.113 320.212L119.132 298.314L45.3695 286.927L43.3672 311.326L50.9799 311.818L58.5877 312.278C63.6679 312.571 68.7497 312.846 73.923 313.059L73.9185 286.046Z" fill="#262626"/>
<path d="M55.2281 312.116C65.4568 310.627 66.4744 310.352 66.8118 310.264L63.8034 299.084C63.8376 299.075 63.8817 299.063 63.9352 299.052C63.0967 299.235 57.898 300.029 53.5621 300.659L55.2281 312.116Z" fill="#E98862"/>
<path d="M42.4492 322.067C42.3418 322.359 42.2957 322.671 42.314 322.981C42.3322 323.292 42.4144 323.596 42.5553 323.874C42.6962 324.151 42.8929 324.397 43.1331 324.595C43.3732 324.793 43.6516 324.94 43.9509 325.025C44.3657 325.144 44.8058 325.142 45.2194 325.019C45.633 324.896 46.0029 324.658 46.2856 324.332L55.2226 313.283C55.3942 313.069 55.5176 312.82 55.5842 312.553C55.6508 312.287 55.6591 312.009 55.6085 311.739C55.0513 309.555 55.2098 307.249 56.0606 305.161C56.7905 303.56 57.9558 302.196 59.4234 301.225C59.5632 301.144 59.6769 301.024 59.7513 300.881C59.8257 300.737 59.8578 300.575 59.8438 300.414C59.8297 300.253 59.7701 300.099 59.672 299.971C59.5739 299.842 59.4412 299.744 59.2895 299.688L53.115 297.386C52.9329 297.318 52.7392 297.287 52.545 297.294C52.3508 297.301 52.1599 297.347 51.9833 297.428C51.8067 297.509 51.6478 297.624 51.5158 297.767C51.3839 297.909 51.2813 298.077 51.2142 298.259L42.4492 322.067Z" fill="#C1D8ED"/>
<path d="M90.3702 311.074C93.475 310.81 96.5782 310.62 99.6814 310.441C102.785 310.276 105.887 310.11 108.989 310L113.642 309.821L118.294 309.687C121.396 309.584 124.496 309.541 127.597 309.482L126.521 287.204C120.716 288.015 114.904 288.761 109.094 289.525C103.283 290.289 97.4664 290.993 91.6508 291.708L82.9228 292.735L74.1882 293.714C68.3616 294.34 62.535 294.962 56.6952 295.475L59.2581 317.432C65.0588 316.587 70.8716 315.85 76.6855 315.117L85.4113 314.059L94.1426 313.05C99.967 312.407 105.79 311.754 111.619 311.158C117.447 310.562 123.277 309.951 129.112 309.404C131.91 309.141 134.506 307.831 136.38 305.736C138.254 303.642 139.269 300.917 139.22 298.106C139.171 295.296 138.063 292.608 136.117 290.579C134.172 288.551 131.532 287.332 128.726 287.166L128.036 287.127C124.94 286.946 121.843 286.78 118.748 286.555L114.105 286.237L109.463 285.874C106.368 285.641 103.274 285.351 100.18 285.065C97.0865 284.764 93.9932 284.45 90.9011 284.063L90.3702 311.074Z" fill="#262626"/>
<path d="M62.6529 282.664L61.0211 310.066L108.151 309.512L104.593 285.252L62.6529 282.664Z" fill="#262626"/>
<path d="M47.6226 281.622C48.1181 282.374 48.7763 283.005 49.5485 283.468C50.3207 283.931 51.187 284.215 52.0836 284.298L59.6252 285C59.6285 285.091 59.6291 285.182 59.6352 285.275C60.2416 294.614 105.629 292.409 107.939 287.1C108.787 285.152 108.718 283.468 108.29 281.301L116.989 282.54C118 282.685 119.032 282.56 119.979 282.177C120.926 281.794 121.754 281.168 122.381 280.361C123.007 279.554 123.409 278.596 123.546 277.584C123.682 276.572 123.549 275.541 123.158 274.597L107.235 236.067C106.267 231.672 103.21 228.752 95.6255 228.425C95.2782 228.408 94.7214 228.397 94.0048 228.386C93.8614 231.418 75.0845 231.407 74.6876 228.314C69.3842 228.32 65.0345 229.946 62.5151 232.466C61.0048 233.898 59.9294 235.727 59.4124 237.744L46.9202 276.472C46.6442 277.328 46.564 278.236 46.6856 279.127C46.8072 280.019 47.1274 280.871 47.6226 281.622ZM106.059 269.287C105.866 267.358 105.735 265.173 105.703 262.682L108.581 269.647L106.059 269.287ZM64.4396 261.304C64.4661 261.72 64.4843 262.139 64.4843 262.561C64.4922 266.179 63.9444 269.777 62.8602 273.229L60.6589 273.024L64.4396 261.304Z" fill="#367CFF"/>
<path d="M78.3317 246.842L76.3834 275.884C76.3605 276.226 76.4081 276.569 76.5233 276.893C76.6385 277.216 76.8189 277.512 77.0532 277.763C77.2876 278.013 77.5709 278.213 77.8857 278.35C78.2004 278.486 78.5398 278.557 78.883 278.557H119.445C120.065 278.557 120.663 278.327 121.123 277.912C121.584 277.497 121.874 276.926 121.938 276.309L124.939 247.268C124.975 246.919 124.938 246.566 124.829 246.233C124.72 245.9 124.542 245.593 124.308 245.332C124.073 245.072 123.786 244.864 123.465 244.721C123.145 244.579 122.798 244.505 122.447 244.505H80.8312C80.1958 244.505 79.5842 244.746 79.1201 245.18C78.656 245.614 78.3742 246.208 78.3317 246.842Z" fill="#9EBCEA"/>
<path d="M116.057 275.06H73.4395C72.4737 275.06 71.6908 275.842 71.6908 276.808C71.6908 277.774 72.4737 278.557 73.4395 278.557H116.057C117.023 278.557 117.806 277.774 117.806 276.808C117.806 275.842 117.023 275.06 116.057 275.06Z" fill="#9EBCEA"/>
<path d="M101.735 265.39C103.867 265.39 105.595 263.662 105.595 261.531C105.595 259.4 103.867 257.672 101.735 257.672C99.6042 257.672 97.8765 259.4 97.8765 261.531C97.8765 263.662 99.6042 265.39 101.735 265.39Z" fill="white"/>
<path d="M96.1757 282.245C93.7004 283.772 89.8689 284.494 86.5281 284.758L86.3407 278.672C87.9119 278.628 90.3265 278.463 92.6916 278.556C93.76 277.685 94.3752 277.426 95.4723 276.329C96.6399 275.162 99.704 274.46 100.283 276.329C100.862 278.198 98.35 280.899 96.1757 282.245Z" fill="#E98862"/>
<path d="M94.0025 228.386C93.8592 231.418 92.2108 235.878 87.1224 236.214C80.3415 236.661 75.0822 231.407 74.6853 228.314H74.7018C81.378 228.314 90.1104 228.325 94.0025 228.386Z" fill="#E98862"/>
<path d="M111.877 219.959L118.95 215.489H152.475V188.203H111.877V219.959Z" fill="#0CBC8B"/>
<path d="M146.508 202.981L137.372 207.415V205.699L144.619 202.307V202.268L137.372 198.896V197.161L146.508 201.594V202.981Z" fill="white" stroke="white" stroke-width="0.811" stroke-miterlimit="10"/>
<path d="M133.612 208.185L128.909 194.211H130.566L135.269 208.185H133.612Z" fill="white" stroke="white" stroke-width="0.811" stroke-miterlimit="10"/>
<path d="M117.844 201.554L126.98 197.16V198.875L119.617 202.268V202.307L126.98 205.699V207.415L117.844 203.02V201.554Z" fill="white" stroke="white" stroke-width="0.811" stroke-miterlimit="10"/>
<path d="M362.834 308.667C361.612 298.403 361.612 297.348 361.612 297H373.19C373.19 296.965 373.19 296.92 373.19 296.865C373.23 297.722 373.814 302.949 374.332 307.3L362.834 308.667Z" fill="#E98862"/>
<path d="M408.963 310.053C408.963 310.053 408.924 298.064 408.924 297.002H420.501C420.501 298.06 420.54 310.015 420.54 310.015L408.963 310.053Z" fill="#E98862"/>
<path d="M378.957 305.013L358.559 304.666C359.407 283.186 359.551 258.617 359.779 236.386C359.842 230.876 360.258 225.375 361.025 219.918C364.306 196.365 366.447 172.945 370.865 149.53L371.012 149.573L371.442 146.635L413.383 144.044L415.569 171.451C415.569 171.451 421.033 266.244 423.524 304.359L403.198 306.076C399.536 268.707 393.869 214.256 390.383 174.998C386.38 194.111 383.657 213.901 380.177 232.851C379.48 256.57 378.892 281.364 378.957 305.013Z" fill="#262626"/>
<path d="M394.889 314.531C394.577 314.529 394.27 314.463 393.985 314.338C393.7 314.212 393.444 314.029 393.234 313.8C393.023 313.571 392.861 313.301 392.759 313.007C392.658 312.712 392.618 312.4 392.642 312.09C392.675 311.66 392.831 311.248 393.09 310.903C393.35 310.558 393.703 310.295 394.107 310.144L407.582 305.631C407.843 305.545 408.12 305.515 408.393 305.546C408.666 305.576 408.93 305.665 409.166 305.807C411.018 307.092 413.234 307.75 415.488 307.681C417.243 307.557 418.928 306.941 420.35 305.905C420.475 305.803 420.627 305.738 420.787 305.718C420.948 305.698 421.111 305.725 421.257 305.794C421.403 305.863 421.526 305.973 421.612 306.11C421.699 306.246 421.744 306.405 421.744 306.567V313.156C421.744 313.35 421.705 313.542 421.631 313.722C421.556 313.902 421.447 314.065 421.309 314.202C421.171 314.339 421.008 314.447 420.828 314.521C420.648 314.595 420.456 314.633 420.261 314.632L394.889 314.531Z" fill="#C1D8ED"/>
<path d="M348.728 314.531C348.416 314.529 348.109 314.463 347.824 314.338C347.539 314.212 347.283 314.029 347.072 313.8C346.861 313.571 346.7 313.301 346.598 313.007C346.496 312.712 346.456 312.4 346.481 312.09C346.514 311.66 346.67 311.248 346.929 310.903C347.189 310.558 347.542 310.295 347.946 310.144L361.421 305.631C361.682 305.545 361.959 305.515 362.232 305.546C362.505 305.576 362.769 305.665 363.004 305.807C364.857 307.092 367.073 307.749 369.327 307.681C371.082 307.557 372.767 306.941 374.189 305.905C374.314 305.802 374.466 305.738 374.627 305.718C374.787 305.698 374.95 305.725 375.096 305.794C375.242 305.863 375.365 305.973 375.451 306.11C375.538 306.246 375.583 306.405 375.583 306.567V313.156C375.583 313.35 375.544 313.543 375.47 313.722C375.395 313.902 375.286 314.065 375.148 314.202C375.01 314.339 374.847 314.448 374.667 314.521C374.487 314.595 374.295 314.633 374.1 314.632L348.728 314.531Z" fill="#C1D8ED"/>
<path d="M328.011 99.1182C328.011 99.1182 326.549 94.3033 323.621 92.3826C320.692 90.4619 320.699 92.6251 322 94.7934C323.301 96.9616 326.369 101.524 326.369 101.524" fill="#E98862"/>
<path d="M326.291 97.1086C326.291 97.1086 321.164 90.3955 318.165 90.3955C318.165 90.3955 313.333 92.7065 313.401 94.1994C313.504 96.4492 321.675 104.845 321.675 104.845L326.291 97.1086Z" fill="#E98862"/>
<path d="M356.368 131.798C355.053 131.798 353.778 131.351 352.752 130.53L319.962 104.294L327.195 95.2524L354.777 117.322L371.316 89.3271L381.283 95.2166L361.349 128.955C360.837 129.822 360.109 130.54 359.235 131.038C358.361 131.537 357.372 131.799 356.366 131.799L356.368 131.798Z" fill="#367CFF"/>
<path d="M368.723 148.481C371.033 153.79 416.42 155.995 417.027 146.656C417.413 140.713 412.175 135.526 412.175 123.943C412.175 112.36 422.832 97.5694 414.149 88.8866C411.63 86.3672 407.28 84.7409 401.977 84.7354C401.58 87.8281 382.803 87.8391 382.659 84.807C381.943 84.818 381.386 84.8291 381.039 84.8456C362.747 85.634 370.785 106.451 370.961 121.743C371.176 139.638 366.341 143.012 368.723 148.481Z" fill="#367CFF"/>
<path d="M382.659 84.8072C382.803 87.8392 384.451 92.2992 389.54 92.6355C396.32 93.082 401.58 87.8282 401.977 84.7355H401.96C395.284 84.7338 386.552 84.7465 382.659 84.8072Z" fill="#E98862"/>
<path d="M375.979 90.1785L373.656 79.7415C373.612 79.5446 373.492 79.3733 373.322 79.265C373.152 79.1568 372.945 79.1206 372.748 79.1643L365.085 80.8705C364.917 80.9072 364.741 80.8858 364.587 80.8098C364.432 80.7338 364.308 80.6077 364.234 80.4521C362.858 77.5952 361.024 74.9822 358.805 72.7164C358.684 72.5942 358.607 72.4344 358.589 72.2632C358.57 72.0919 358.61 71.9194 358.702 71.7737L362.916 65.1467C363.023 64.9767 363.059 64.771 363.015 64.5746C362.971 64.3783 362.851 64.2073 362.682 64.0992L353.657 58.3603C353.487 58.2529 353.281 58.2172 353.085 58.261C352.888 58.3048 352.717 58.4245 352.609 58.594L348.391 65.2178C348.298 65.3628 348.159 65.472 347.996 65.5276C347.833 65.5832 347.655 65.5818 347.493 65.5237C344.5 64.4758 341.357 63.9237 338.186 63.8892C338.013 63.8884 337.846 63.8294 337.712 63.7215C337.578 63.6137 337.484 63.4635 337.445 63.2954L335.74 55.6325C335.718 55.535 335.677 55.4427 335.62 55.3609C335.563 55.2792 335.49 55.2095 335.406 55.1559C335.321 55.1023 335.227 55.0658 335.129 55.0485C335.031 55.0313 334.93 55.0336 334.832 55.0553L324.395 57.3784C324.198 57.4224 324.027 57.5428 323.918 57.713C323.81 57.8832 323.774 58.0895 323.818 58.2864L325.527 65.9493C325.563 66.1176 325.542 66.2934 325.466 66.448C325.39 66.6027 325.264 66.7269 325.108 66.8005C322.252 68.1773 319.639 70.0111 317.373 72.2296C317.251 72.351 317.091 72.4273 316.92 72.4462C316.749 72.465 316.576 72.4252 316.43 72.3333L309.803 68.1192C309.633 68.0117 309.427 67.9759 309.231 68.0197C309.034 68.0635 308.863 68.1833 308.755 68.353L303.019 77.3776C302.912 77.5476 302.876 77.7532 302.92 77.9495C302.964 78.1458 303.083 78.3168 303.253 78.425L309.879 82.6385C310.024 82.7315 310.134 82.871 310.189 83.034C310.245 83.1971 310.244 83.3743 310.186 83.5366C309.138 86.5296 308.586 89.6736 308.551 92.8445C308.551 93.0168 308.492 93.1839 308.384 93.3182C308.276 93.4526 308.126 93.5464 307.958 93.5844L300.295 95.2906C300.098 95.3345 299.926 95.4547 299.818 95.6249C299.71 95.795 299.674 96.0012 299.717 96.198L302.041 106.636C302.085 106.832 302.205 107.004 302.375 107.112C302.546 107.22 302.752 107.257 302.949 107.213L310.611 105.507C310.78 105.47 310.956 105.491 311.11 105.567C311.265 105.643 311.389 105.769 311.463 105.925C312.839 108.782 314.673 111.395 316.892 113.66C317.013 113.783 317.089 113.942 317.108 114.114C317.127 114.285 317.087 114.458 316.995 114.603L312.782 121.23C312.674 121.4 312.639 121.606 312.682 121.802C312.726 121.999 312.846 122.17 313.016 122.278L322.037 128.014C322.207 128.122 322.413 128.158 322.609 128.114C322.805 128.07 322.976 127.95 323.084 127.781L327.298 121.154C327.391 121.009 327.531 120.9 327.694 120.844C327.857 120.788 328.034 120.789 328.196 120.847C331.189 121.896 334.333 122.448 337.504 122.482C337.676 122.483 337.843 122.542 337.978 122.65C338.112 122.757 338.206 122.908 338.244 123.076L339.95 130.739C339.994 130.935 340.114 131.107 340.284 131.215C340.454 131.323 340.661 131.359 340.857 131.316L351.295 128.992C351.492 128.948 351.663 128.828 351.771 128.658C351.88 128.488 351.916 128.282 351.872 128.085L350.166 120.422C350.129 120.253 350.15 120.077 350.226 119.923C350.302 119.768 350.429 119.644 350.584 119.57C353.441 118.194 356.054 116.36 358.32 114.141C358.442 114.02 358.602 113.944 358.774 113.925C358.945 113.907 359.118 113.946 359.263 114.038L365.89 118.251C366.06 118.359 366.265 118.395 366.462 118.351C366.658 118.307 366.829 118.187 366.937 118.018L372.677 108.996C372.73 108.911 372.767 108.817 372.784 108.719C372.801 108.621 372.799 108.52 372.777 108.422C372.756 108.325 372.715 108.232 372.658 108.151C372.6 108.069 372.527 107.999 372.443 107.945L365.815 103.731C365.67 103.638 365.561 103.499 365.506 103.336C365.45 103.173 365.451 102.996 365.509 102.834C366.558 99.8411 367.11 96.6973 367.145 93.5265C367.145 93.3541 367.204 93.1871 367.312 93.0527C367.42 92.9182 367.57 92.8242 367.738 92.7861L375.401 91.0804C375.597 91.0367 375.768 90.9174 375.876 90.7485C375.984 90.5796 376.022 90.3747 375.979 90.1785ZM342.065 109.619C338.77 110.465 335.297 110.302 332.096 109.149C328.895 107.996 326.115 105.907 324.116 103.154C322.118 100.401 320.994 97.1104 320.889 93.7099C320.785 90.3095 321.706 86.9562 323.532 84.0858C325.358 81.2153 328.005 78.9603 331.129 77.6137C334.254 76.267 337.711 75.8909 341.051 76.5343C344.392 77.1777 347.462 78.8108 349.863 81.2214C352.263 83.6321 353.883 86.7089 354.513 90.0523C355.31 94.2845 354.468 98.6617 352.156 102.295C349.844 105.929 346.237 108.547 342.065 109.619Z" fill="#0CBC8B"/>
<path d="M372.756 116.225C372.756 116.225 374.032 108.965 368.784 108.364C365.472 107.986 357.146 103.382 355.567 107.229C354.197 110.568 362.148 114.542 364.994 115.278C367.545 115.936 372.756 116.225 372.756 116.225Z" fill="#E98862"/>
<path d="M370.573 108.942C370.573 108.942 363.809 105.233 361.958 105.32C360.32 105.396 363.107 108.566 363.107 108.566L370.573 108.942Z" fill="#E98862"/>
<path d="M394.512 139.131C393.193 139.131 391.91 138.697 390.863 137.897L363.042 116.639L370.34 107.088L392.123 123.732L405.866 92.9609L416.842 97.863L399.999 135.571C399.526 136.631 398.756 137.531 397.782 138.163C396.808 138.794 395.672 139.13 394.512 139.13V139.131Z" fill="#367CFF"/>
<path d="M400.358 87.9384C400.358 87.9384 396.094 85.6781 397.046 74.0702L388.239 72.4395C388.239 72.4395 389.229 82.8467 384.773 86.1511L400.358 87.9384Z" fill="#E98862"/>
<g opacity="0.15">
<path d="M386.577 83.9728L393.896 78.375L388.15 78.3154C387.982 80.2827 387.449 82.2013 386.577 83.9728Z" fill="black"/>
</g>
<path d="M402.044 69.5694C401.434 73.0916 399.512 76.4264 396.405 77.5631C393.019 78.9069 389.355 79.4018 385.734 79.0047C376.092 78.2142 377.999 56.2916 382.577 52.0323C387.154 47.7731 400.589 50.4705 402.224 57.5932C403.069 61.278 402.624 66.217 402.044 69.5694Z" fill="#E98862"/>
<path d="M376.806 60.0544C376.806 60.0544 378.696 44.4722 395.81 48.2993C398.578 49.0331 401.042 50.6255 402.847 52.8474C403.527 51.4618 404.607 50.3118 405.947 49.5455C407.287 48.7793 408.826 48.4319 410.365 48.5483C411.904 48.6647 413.373 49.2395 414.582 50.1985C415.792 51.1575 416.686 52.4569 417.15 53.929C417.615 55.4011 417.627 56.9785 417.186 58.4578C416.746 59.9371 415.872 61.2505 414.678 62.2287C413.484 63.2068 412.024 63.8048 410.487 63.9456C408.95 64.0865 407.406 63.7636 406.054 63.0187C406.039 63.2392 406.022 63.4653 405.999 63.693C404.951 73.3405 396.922 78.1715 396.922 78.1715C396.922 78.1715 394.766 76.5391 395.533 60.9519C391.817 61.2689 383.312 61.7265 376.806 60.0544Z" fill="#0F1011"/>
<path d="M388.251 66.857C388.693 66.857 389.051 66.4992 389.051 66.0579C389.051 65.6165 388.693 65.2588 388.251 65.2588C387.81 65.2588 387.452 65.6165 387.452 66.0579C387.452 66.4992 387.81 66.857 388.251 66.857Z" fill="#0F1011"/>
<path d="M381.95 66.3404C382.391 66.3404 382.749 65.9826 382.749 65.5413C382.749 65.1 382.391 64.7422 381.95 64.7422C381.508 64.7422 381.151 65.1 381.151 65.5413C381.151 65.9826 381.508 66.3404 381.95 66.3404Z" fill="#0F1011"/>
<path d="M380.565 63.8398C380.466 63.8404 380.37 63.8014 380.299 63.7314C380.228 63.6614 380.188 63.5662 380.188 63.4666C380.187 63.367 380.226 63.2713 380.296 63.2005C380.366 63.1297 380.461 63.0896 380.561 63.089L382.677 63.0625H382.682C382.781 63.0619 382.877 63.1009 382.948 63.1709C383.018 63.2409 383.059 63.3362 383.059 63.4357C383.06 63.5353 383.021 63.631 382.951 63.7018C382.881 63.7727 382.786 63.8128 382.686 63.8134L380.57 63.8398H380.565Z" fill="#0F1011"/>
<path d="M389.976 64.6121C389.946 64.6121 389.916 64.6086 389.888 64.6016L387.801 64.0999C387.752 64.0889 387.707 64.0684 387.666 64.0395C387.626 64.0106 387.591 63.974 387.565 63.9318C387.539 63.8895 387.521 63.8425 387.513 63.7934C387.506 63.7444 387.507 63.6942 387.519 63.6459C387.531 63.5976 387.552 63.552 387.581 63.5119C387.611 63.4718 387.648 63.438 387.69 63.4123C387.733 63.3866 387.78 63.3697 387.829 63.3624C387.878 63.3552 387.929 63.3577 387.977 63.37L390.063 63.8717C390.152 63.8932 390.23 63.9467 390.283 64.022C390.335 64.0974 390.358 64.1893 390.348 64.2805C390.337 64.3717 390.293 64.4558 390.225 64.5169C390.156 64.578 390.068 64.6118 389.976 64.6121Z" fill="#0F1011"/>
<path d="M387.882 72.3488C387.882 72.3488 384.933 72.6597 382.865 71.9375C382.865 71.9375 382.882 73.8797 385.215 74.071C387.548 74.2623 387.882 72.3488 387.882 72.3488Z" fill="white"/>
<path d="M392.408 68.0118C392.348 68.8997 392.64 69.7754 393.221 70.4497C393.801 71.124 394.624 71.5426 395.511 71.615C396.398 71.6875 397.278 71.4079 397.96 70.8368C398.643 70.2657 399.073 69.4489 399.158 68.5631C399.202 68.1185 399.156 67.6695 399.023 67.2429C398.89 66.8163 398.672 66.4209 398.383 66.0802C398.094 65.7394 397.739 65.4603 397.34 65.2595C396.941 65.0588 396.505 64.9404 396.06 64.9114C393.645 64.8348 392.559 66.1479 392.408 68.0118Z" fill="#E98862"/>
<g opacity="0.15">
<path d="M384.705 70.4886C384.771 70.4887 384.835 70.465 384.885 70.4219C384.935 70.3789 384.968 70.3193 384.978 70.254C384.988 70.1887 384.974 70.122 384.939 70.0661C384.903 70.0102 384.849 69.9688 384.786 69.9495L383.162 69.4506L384.298 66.9201C384.328 66.8534 384.331 66.7775 384.305 66.7091C384.279 66.6407 384.226 66.5854 384.16 66.5555C384.093 66.5255 384.017 66.5233 383.949 66.5493C383.88 66.5753 383.825 66.6274 383.795 66.6941L382.531 69.5095C382.515 69.5452 382.507 69.5838 382.507 69.6229C382.507 69.662 382.515 69.7006 382.531 69.7362C382.547 69.7718 382.571 69.8036 382.6 69.8295C382.629 69.8553 382.664 69.8746 382.701 69.8861L384.624 70.4765C384.65 70.4845 384.678 70.4886 384.705 70.4886Z" fill="black"/>
</g>
<path d="M188.624 291.116H167.08C163.337 286.188 156.765 276.254 161.01 272.003C162.94 270.074 165.068 271.909 167.041 275.201C166.358 268.756 167.041 262.604 171.523 260.806C175.603 259.169 177.422 264.103 178.128 270.719C180.14 266.959 182.781 264.313 186.232 264.517C191.16 264.814 189.969 271.391 187.086 278.674C189.275 277.009 191.563 276.193 193.795 276.921C198.464 278.448 194.099 285.002 188.624 291.116Z" fill="#8DDBE0"/>
<path d="M187.5 314.31H167.633L164.307 291.117H190.826L187.5 314.31Z" fill="#C1D8ED"/>
</g>
<defs>
<clipPath id="clip0_17_912">
<rect width="450" height="330.487" fill="white"/>
</clipPath>
</defs>
</svg>
