<svg width="20" height="27" viewBox="0 0 20 27" fill="none" xmlns="http://www.w3.org/2000/svg">
<path d="M18.0217 17.8074L14.064 15.2349L15.5561 12.4993C15.9039 11.8605 16.0864 11.1448 16.087 10.4174V6.08695C16.087 4.47259 15.4457 2.92435 14.3041 1.78283C13.1626 0.641302 11.6144 0 10 0C8.38564 0 6.8374 0.641302 5.69588 1.78283C4.55435 2.92435 3.91305 4.47259 3.91305 6.08695V10.4174C3.91359 11.1448 4.09609 11.8605 4.44392 12.4994L5.93604 15.2349L1.97827 17.8074C1.37001 18.2011 0.870212 18.7412 0.524611 19.378C0.17901 20.0149 -0.00135945 20.7282 7.71459e-06 21.4528V26.0869H20V21.4528C20.0014 20.7282 19.821 20.0149 19.4754 19.378C19.1298 18.7412 18.63 18.2011 18.0217 17.8074ZM18.2609 24.3478H1.73914V21.4528C1.73832 21.0181 1.84655 20.59 2.05392 20.2079C2.26129 19.8258 2.56118 19.5018 2.92615 19.2655L8.23375 15.8156L5.97071 11.6666C5.76201 11.2833 5.65251 10.8539 5.65218 10.4174V6.08695C5.65218 4.93384 6.11025 3.82795 6.92563 3.01258C7.741 2.1972 8.84689 1.73913 10 1.73913C11.1531 1.73913 12.259 2.1972 13.0744 3.01258C13.8898 3.82795 14.3478 4.93384 14.3478 6.08695V10.4174C14.3475 10.8539 14.238 11.2833 14.0293 11.6666L11.7663 15.8156L17.074 19.2655C17.439 19.5018 17.7388 19.8258 17.9461 20.2079C18.1535 20.5901 18.2617 21.0181 18.2609 21.4528V24.3478Z" fill="currentColor"/>
</svg>
