<svg width="40" height="40" viewBox="0 0 40 40" fill="none" xmlns="http://www.w3.org/2000/svg">
<path d="M37.9998 0H12.6665C12.1361 0 11.6274 0.210714 11.2523 0.585787C10.8772 0.960859 10.6665 1.46957 10.6665 2V27.3333C10.6665 27.8638 10.8772 28.3725 11.2523 28.7475C11.6274 29.1226 12.1361 29.3333 12.6665 29.3333H37.9998C38.5303 29.3333 39.039 29.1226 39.4141 28.7475C39.7891 28.3725 39.9998 27.8638 39.9998 27.3333V2C39.9998 1.46957 39.7891 0.960859 39.4141 0.585787C39.039 0.210714 38.5303 0 37.9998 0ZM37.3332 26.6667H13.3332V2.66667H37.3332V26.6667Z" fill="currentColor"/>
<path d="M7.99992 31.9997V5.33301H5.33325V32.6663C5.33325 33.1968 5.54397 33.7055 5.91904 34.0806C6.29411 34.4556 6.80282 34.6663 7.33325 34.6663H34.6666V31.9997H7.99992Z" fill="currentColor"/>
<path d="M2.66667 37.3337V10.667H0V38.0003C0 38.5308 0.210714 39.0395 0.585787 39.4145C0.960859 39.7896 1.46957 40.0003 2 40.0003H29.3333V37.3337H2.66667Z" fill="currentColor"/>
</svg>
