<svg width="24" height="26" viewBox="0 0 24 26" fill="none" xmlns="http://www.w3.org/2000/svg">
<path d="M2.00004 24.6407C1.99704 24.9713 2.15051 25.2893 2.42677 25.5252C2.70304 25.761 3.07955 25.8953 3.47373 25.8986H20.5264C20.9205 25.8953 21.2971 25.761 21.5733 25.5252C21.8496 25.2893 22.003 24.9713 22 24.6407V7.86865H2.00004V24.6407ZM4.00004 9.54586H20V24.2214H4.00004V9.54586Z" fill="currentColor"/>
<path d="M8.5 11.2231H6.5V21.7057H8.5V11.2231Z" fill="currentColor"/>
<path d="M13 11.2231H11V21.7057H13V11.2231Z" fill="currentColor"/>
<path d="M17.5 11.2231H15.5V21.7057H17.5V11.2231Z" fill="currentColor"/>
<path d="M16.5 4.51394V1.99814C16.5 1.29277 15.907 0.740234 15.15 0.740234H8.85C8.093 0.740234 7.5 1.29277 7.5 1.99814V4.51394H0V6.19115H24V4.51394H16.5ZM9.5 2.41744H14.5V4.51394H9.5V2.41744Z" fill="currentColor"/>
</svg>
