<svg width="24" height="24" viewBox="0 0 24 24" fill="none" xmlns="http://www.w3.org/2000/svg">
<path d="M9.87005 5.66998L6.45005 7.74998L4.89005 5.18998C4.61652 4.73588 4.53345 4.19211 4.65894 3.67705C4.78442 3.162 5.1083 2.71737 5.56005 2.43998C6.01415 2.16645 6.55793 2.08338 7.07298 2.20886C7.58804 2.33435 8.03266 2.65823 8.31006 3.10998L9.87005 5.66998ZM11.8201 9.15998L8.66005 11.08C7.80344 11.5956 7.17242 12.415 6.89261 13.3748C6.6128 14.3347 6.70471 15.3648 7.15005 16.26L9.20005 20.44C9.86005 21.79 11.4601 22.26 12.7401 21.47L19.1701 17.56C20.4601 16.78 20.7701 15.15 19.8801 13.94L17.1101 10.2C15.9101 8.57998 13.6601 8.03998 11.8201 9.15998V9.15998Z" stroke="currentColor" stroke-width="1.5" stroke-linecap="round" stroke-linejoin="round"/>
<path d="M14.31 16.81L15.96 19.52M11.75 18.37L13.4 21.08M16.87 15.25L18.52 17.96M10.757 5.09802L5.63196 8.21802L7.71196 11.635L12.837 8.51502L10.757 5.09802V5.09802Z" stroke="currentColor" stroke-width="1.5" stroke-linecap="round" stroke-linejoin="round"/>
</svg>
