<svg width="20" height="20" viewBox="0 0 20 20" fill="none" xmlns="http://www.w3.org/2000/svg">
<path d="M17.6667 18.6667V0H2.33333V18.6667H0V20H20V18.6667H17.6667ZM16.3333 18.6667H10.6667V16H9.33333V18.6667H3.66667V1.33333H16.3333V18.6667Z" fill="currentColor"/>
<path d="M7.33333 12H6V13.3333H7.33333V12Z" fill="currentColor"/>
<path d="M10.6666 12H9.33325V13.3333H10.6666V12Z" fill="currentColor"/>
<path d="M14.0001 12H12.6667V13.3333H14.0001V12Z" fill="currentColor"/>
<path d="M7.33333 8H6V9.33333H7.33333V8Z" fill="currentColor"/>
<path d="M10.6666 8H9.33325V9.33333H10.6666V8Z" fill="currentColor"/>
<path d="M14.0001 8H12.6667V9.33333H14.0001V8Z" fill="currentColor"/>
<path d="M7.33333 4H6V5.33333H7.33333V4Z" fill="currentColor"/>
<path d="M10.6666 4H9.33325V5.33333H10.6666V4Z" fill="currentColor"/>
<path d="M14.0001 4H12.6667V5.33333H14.0001V4Z" fill="currentColor"/>
</svg>
