<svg width="645" height="502" viewBox="0 0 645 502" fill="none" xmlns="http://www.w3.org/2000/svg">
<g clip-path="url(#clip0_17_135)">
<path d="M644.63 501.4H0C10.174 415.6 86.321 424.541 122.473 412.682C143.013 405.952 159.183 386.338 176.173 370.051C236.863 311.871 354.573 311.244 485.773 383.682C509.535 396.802 536.453 402.637 563.591 402.092C598.049 401.4 644.63 448.809 644.63 501.4Z" fill="#F3F5FD"/>
<path d="M451.7 322.251H471.656V193.077H451.7V322.251Z" fill="#C1D8ED"/>
<path d="M451.7 322.251H465.989V193.077H451.7V322.251Z" fill="#D7E8F4"/>
<path d="M266.777 322.251H286.733V193.077H266.777V322.251Z" fill="#C1D8ED"/>
<path d="M266.778 322.251H281.067V193.077H266.778V322.251Z" fill="#D7E8F4"/>
<path d="M480.13 440.068H500.086V322.251H480.13V440.068Z" fill="#C1D8ED"/>
<path d="M480.131 440.068H494.42V322.251H480.131V440.068Z" fill="#D7E8F4"/>
<path d="M238.544 440.068H258.5V322.251H238.544V440.068Z" fill="#C1D8ED"/>
<path d="M238.544 440.068H252.833L252.833 322.251H238.544V440.068Z" fill="#D7E8F4"/>
<path d="M414.424 440.068H434.38V322.251H414.424V440.068Z" fill="#C1D8ED"/>
<path d="M414.425 440.068H428.714V322.251H414.425V440.068Z" fill="#D7E8F4"/>
<path d="M178.503 440.068H198.459L198.459 322.251H178.503V440.068Z" fill="#C1D8ED"/>
<path d="M178.504 440.068H192.793L192.793 322.251H178.504V440.068Z" fill="#D7E8F4"/>
<path d="M235.463 219.701L508.635 219.701V201.076L235.463 201.076V219.701Z" fill="#C1D8ED"/>
<path d="M235.463 257.628L508.635 257.628V239.003L235.463 239.003V257.628Z" fill="#C1D8ED"/>
<path d="M235.463 295.553L508.635 295.553V276.928L235.463 276.928V295.553Z" fill="#C1D8ED"/>
<path d="M229.797 219.701L502.969 219.701V201.076L229.797 201.076V219.701Z" fill="#D7E8F4"/>
<path d="M229.797 257.628L502.969 257.628V239.003L229.797 239.003V257.628Z" fill="#D7E8F4"/>
<path d="M229.797 295.553L502.969 295.553V276.928L229.797 276.928V295.553Z" fill="#D7E8F4"/>
<path d="M439.013 328.571H508.636V315.932H439.013V328.571Z" fill="#C1D8ED"/>
<path d="M439.012 315.932H168.403V328.571H439.012V315.932Z" fill="#D7E8F4"/>
<path d="M591.032 131.747L421.569 130.816C422.569 124.383 426.118 118.435 431.515 115.552C438.189 111.984 446.271 113.092 453.775 114.064C461.279 115.036 469.563 115.601 475.75 111.249C478.863 109.059 481.074 105.854 483.601 103.005C490.822 94.8548 502.169 89.3158 512.651 92.2648C517.926 93.7488 522.417 97.1748 527.413 99.4238C532.663 101.778 538.411 102.808 544.152 102.424C550.071 102.019 555.969 100.115 561.834 101.016C569.268 102.164 575.334 107.658 579.71 113.777C583.858 119.57 586.812 125.184 591.032 131.747Z" fill="#F3F5FD"/>
<path d="M207.406 92.7841H21.915C20.9893 91.0413 20.4753 89.1096 20.4123 87.1372C20.3494 85.1649 20.7393 83.2043 21.552 81.4061C22.3647 79.6078 23.5786 78.0197 25.1006 76.7636C26.6226 75.5075 28.4122 74.6169 30.332 74.1601C36.388 72.7231 43.232 75.6711 48.753 72.8011C53.036 70.5711 55.015 65.5391 55.927 60.8011C56.839 56.0631 57.1 51.0591 59.4 46.8171C63.267 39.6941 72.447 36.5171 80.373 38.2091C88.299 39.9011 94.883 45.6811 99.217 52.5301C101 55.3461 102.617 58.5301 105.557 60.1001C108.949 61.9131 113.172 61.0491 116.657 59.4261C120.142 57.8031 123.302 55.4681 126.957 54.2611C130.677 53.1169 134.663 53.1718 138.35 54.4181C142.037 55.6643 145.239 58.0387 147.502 61.2051C150.634 65.7831 151.945 72.0861 156.862 74.6511C158.95 75.5961 161.226 76.0517 163.517 75.9831C172.617 76.2031 181.975 74.0831 190.684 76.7321C194.511 77.9559 198.007 80.0385 200.905 82.8206C203.803 85.6028 206.027 89.0108 207.406 92.7841Z" fill="#F3F5FD"/>
<path d="M351.594 471.879L330.741 469.399C331.679 461.506 332.741 452.026 332.813 450.471C332.813 450.571 332.813 450.653 332.813 450.716H353.813C353.808 451.346 353.808 453.261 351.594 471.879Z" fill="#E98862"/>
<path d="M137.94 460.014L119.53 449.914C119.53 449.914 129.961 430.904 130.88 429.214L149.324 439.257C148.4 440.948 137.94 460.014 137.94 460.014Z" fill="#E98862"/>
<path d="M302 328.058C308.948 373.842 316.956 421.705 322.521 467.501L359.163 462.365C351.306 414.98 345.615 364.952 338.533 317.399C323.578 273.956 285.969 177.961 285.969 177.961L209.893 173.261C209.893 173.261 195.126 287.313 189.51 323.732L119.488 438.615L150.774 458.368L226.823 342.018C228.201 339.889 229.15 337.511 229.617 335.018C229.787 334.131 234.961 305.772 235.106 305.042C240.206 278.465 253.237 222.423 253.237 222.423C269.5 257.558 288.22 292.577 302 328.058Z" fill="#262626"/>
<path d="M156.476 479.356C156.973 479.625 157.521 479.787 158.084 479.834C158.647 479.881 159.214 479.812 159.749 479.63C160.284 479.448 160.775 479.157 161.193 478.777C161.611 478.396 161.945 477.933 162.176 477.417C162.496 476.703 162.605 475.912 162.49 475.137C162.375 474.363 162.042 473.638 161.529 473.046L143.978 454.167C143.637 453.803 143.221 453.517 142.759 453.329C142.298 453.14 141.8 453.053 141.302 453.074C137.235 453.515 133.134 452.639 129.602 450.574C126.916 448.852 124.768 446.41 123.402 443.526C123.292 443.254 123.107 443.019 122.868 442.848C122.629 442.678 122.347 442.579 122.054 442.562C121.761 442.546 121.469 442.614 121.213 442.757C120.957 442.901 120.747 443.114 120.608 443.372L114.892 453.872C114.723 454.182 114.618 454.522 114.581 454.872C114.544 455.223 114.576 455.578 114.677 455.915C114.777 456.253 114.944 456.568 115.166 456.842C115.388 457.115 115.663 457.342 115.973 457.509L156.476 479.356Z" fill="#C1D8ED"/>
<path d="M377.18 482.512C377.745 482.51 378.303 482.39 378.82 482.162C379.336 481.934 379.8 481.602 380.183 481.187C380.565 480.771 380.858 480.282 381.043 479.748C381.228 479.214 381.301 478.648 381.257 478.085C381.196 477.305 380.913 476.558 380.442 475.933C379.971 475.308 379.331 474.83 378.598 474.556L354.155 466.369C353.682 466.213 353.18 466.16 352.684 466.215C352.189 466.27 351.711 466.431 351.283 466.688C347.923 469.02 343.903 470.212 339.815 470.088C336.631 469.862 333.575 468.745 330.995 466.866C330.768 466.68 330.493 466.563 330.202 466.527C329.911 466.491 329.616 466.539 329.351 466.665C329.086 466.791 328.862 466.989 328.705 467.237C328.549 467.485 328.466 467.773 328.467 468.066V480.018C328.467 480.371 328.537 480.72 328.672 481.046C328.807 481.371 329.005 481.667 329.255 481.916C329.505 482.165 329.802 482.362 330.128 482.496C330.454 482.629 330.803 482.698 331.156 482.696L377.18 482.512Z" fill="#C1D8ED"/>
<path d="M239.578 68.8073C239.578 68.8073 247.651 65.4253 247.841 44.2993L264.02 42.7993C264.02 42.7993 260.52 61.4373 268.026 68.1393L239.578 68.8073Z" fill="#E98862"/>
<g opacity="0.15">
<path d="M265.124 63.9102L252.824 52.5942L263.215 53.4322C263.193 57.0133 263.841 60.567 265.124 63.9102Z" fill="black"/>
</g>
<path d="M239.553 35.3453C240.076 41.8083 242.999 48.1453 248.424 50.7153C254.32 53.6998 260.857 55.1967 267.464 55.0753C285.012 55.2323 285.172 15.3143 277.604 6.86925C270.036 -1.57575 245.322 1.08525 241.2 13.6833C239.066 20.2003 239.056 29.1943 239.553 35.3453Z" fill="#E98862"/>
<path d="M265.046 32.7193C265.846 32.7193 266.495 32.0706 266.495 31.2703C266.495 30.47 265.846 29.8213 265.046 29.8213C264.246 29.8213 263.597 30.47 263.597 31.2703C263.597 32.0706 264.246 32.7193 265.046 32.7193Z" fill="#0F1011"/>
<path d="M276.516 32.8223C277.317 32.8223 277.965 32.1736 277.965 31.3733C277.965 30.5731 277.317 29.9243 276.516 29.9243C275.716 29.9243 275.067 30.5731 275.067 31.3733C275.067 32.1736 275.716 32.8223 276.516 32.8223Z" fill="#0F1011"/>
<path d="M279.3 28.5263H279.291L275.473 28.1263C275.384 28.117 275.298 28.0904 275.219 28.0478C275.141 28.0052 275.071 27.9475 275.015 27.878C274.958 27.8086 274.916 27.7287 274.891 27.6429C274.865 27.5572 274.857 27.4673 274.866 27.3783C274.893 27.2021 274.984 27.0422 275.123 26.93C275.261 26.8178 275.436 26.7616 275.614 26.7723L279.432 27.1723C279.608 27.1946 279.768 27.2846 279.879 27.423C279.989 27.5615 280.041 27.7376 280.024 27.9139C280.007 28.0902 279.922 28.2529 279.787 28.3674C279.651 28.4819 279.477 28.5393 279.3 28.5273V28.5263Z" fill="#0F1011"/>
<path d="M262.17 28.3721C262.004 28.357 261.85 28.2815 261.735 28.1599C261.621 28.0384 261.556 27.8792 261.551 27.7125C261.547 27.5459 261.603 27.3834 261.711 27.2557C261.818 27.1281 261.968 27.0443 262.133 27.0201L265.985 26.4561C266.164 26.4296 266.346 26.4752 266.491 26.5828C266.636 26.6905 266.733 26.8514 266.759 27.0301C266.786 27.2089 266.74 27.3908 266.633 27.536C266.525 27.6811 266.364 27.7776 266.185 27.8041L262.333 28.3681C262.279 28.3756 262.225 28.377 262.17 28.3721Z" fill="#0F1011"/>
<path d="M248.268 49.9342C247.841 50.9622 247.568 51.4022 246.668 50.7492C243.129 48.1862 236.147 42.6742 234.929 24.2942C233.836 7.82419 244.461 2.04019 252.665 0.37819C259.737 -1.05481 273.939 1.70519 281.291 6.61619C286.745 10.2582 281.784 18.2432 281.784 18.2432C278.901 18.1142 280.224 10.5492 273.448 9.93219C268.21 9.45519 262.89 16.7852 257.967 16.5452C253.46 16.3252 252.289 18.9782 252.288 20.7452C252.286 31.4732 249.778 46.3002 248.268 49.9342Z" fill="#0F1011"/>
<path d="M257.218 34.118C257.189 35.7373 256.522 37.2796 255.361 38.4092C254.2 39.5388 252.641 40.1645 251.021 40.15C249.402 40.1355 247.854 39.482 246.713 38.3318C245.573 37.1815 244.934 35.6276 244.933 34.008C244.927 33.1973 245.084 32.3935 245.394 31.6446C245.705 30.8957 246.163 30.2169 246.742 29.6489C247.32 29.0808 248.007 28.635 248.762 28.338C249.516 28.0409 250.323 27.8988 251.133 27.92C255.5 28.175 257.249 30.726 257.218 34.118Z" fill="#E98862"/>
<g opacity="0.15">
<path d="M270.724 39.8572C270.773 39.862 270.823 39.8593 270.871 39.8492L274.442 39.0982C274.512 39.0838 274.577 39.0547 274.635 39.0129C274.692 38.9712 274.74 38.9177 274.775 38.856C274.81 38.7943 274.832 38.7259 274.838 38.6552C274.845 38.5846 274.836 38.5133 274.813 38.4462L272.991 33.1522C272.971 33.0886 272.938 33.0295 272.895 32.9787C272.852 32.9278 272.799 32.8862 272.739 32.8561C272.68 32.8261 272.615 32.8083 272.548 32.8039C272.481 32.7994 272.414 32.8083 272.351 32.8301C272.288 32.8518 272.23 32.886 272.18 32.9306C272.131 32.9752 272.09 33.0294 272.062 33.0898C272.034 33.1502 272.017 33.2157 272.015 33.2824C272.012 33.3491 272.023 33.4157 272.046 33.4782L273.682 38.2362L270.666 38.8702C270.549 38.8951 270.445 38.961 270.372 39.0562C270.3 39.1513 270.264 39.2692 270.271 39.3887C270.278 39.5081 270.327 39.621 270.411 39.707C270.494 39.793 270.605 39.8463 270.724 39.8572Z" fill="black"/>
</g>
<path d="M264.679 42.7002C264.679 42.7002 269.955 43.7462 273.807 42.7822C273.807 42.7822 273.458 46.2872 269.207 46.2492C264.956 46.2112 264.679 42.7002 264.679 42.7002Z" fill="white"/>
<path d="M281.719 7.2002C286.567 11.1282 284.948 17.6602 283.456 23.3202L277.064 22.7382L275.23 13.1902L271.113 22.1962L246.113 20.7892L250.246 8.7002" fill="#0F1011"/>
<path d="M231.498 53.8421C239.233 53.8421 245.504 47.5714 245.504 39.8361C245.504 32.1008 239.233 25.8301 231.498 25.8301C223.763 25.8301 217.492 32.1008 217.492 39.8361C217.492 47.5714 223.763 53.8421 231.498 53.8421Z" fill="#0F1011"/>
<path d="M317.561 98.9473C317.561 98.9473 325.585 87.4083 325.426 84.1773C325.267 80.9463 316.068 77.2623 316.068 77.2623C316.068 77.2623 317.551 74.4793 318.899 71.4113C320.456 67.8713 321.833 63.9533 320.546 63.4973C319.306 63.0573 317.246 66.2413 315.325 69.9613C312.855 74.7413 310.608 80.4043 310.608 80.4043C310.608 80.4043 310.662 74.7113 308.543 74.9773C307.673 75.0863 307.261 76.0963 307.071 80.1703C306.855 84.8123 305.801 92.0173 305.801 92.0173L317.561 98.9473Z" fill="#E98862"/>
<path d="M291.377 151.126C293.544 151.225 295.691 150.676 297.544 149.547C299.397 148.419 300.871 146.764 301.777 144.793L323.564 97.4753L303.757 88.3563L297.157 102.683L293.57 79.2153L272.016 82.5153L281.094 141.887C281.448 144.205 282.54 146.347 284.207 147.995C285.875 149.642 288.03 150.709 290.351 151.035C290.694 151.079 291.036 151.109 291.377 151.126Z" fill="#367CFF"/>
<path d="M328.512 113.654L316.491 111.168C316.018 111.07 315.572 110.873 315.18 110.591C314.789 110.308 314.461 109.946 314.22 109.528C313.978 109.11 313.827 108.646 313.777 108.166C313.727 107.685 313.779 107.2 313.93 106.741L322.801 79.7412C323.064 78.9417 323.612 78.2669 324.34 77.8453C325.069 77.4238 325.927 77.2849 326.751 77.4552L338.772 79.9422C339.245 80.0401 339.692 80.2367 340.083 80.5192C340.475 80.8018 340.802 81.1638 341.044 81.5817C341.286 81.9996 341.436 82.4638 341.486 82.944C341.536 83.4242 341.484 83.9095 341.333 84.3682L332.462 111.363C332.2 112.164 331.653 112.84 330.924 113.262C330.196 113.685 329.337 113.824 328.512 113.654Z" fill="#C1D8ED"/>
<path d="M309.339 105.6L316.039 115.616C316.039 115.616 335.411 112.648 337.889 97.9431C338.174 96.2491 338.21 91.5301 336.072 92.0661C330.505 93.4611 323.28 101.578 318.434 102.48C319.617 100.571 321.079 97.8661 320.241 97.3201C318.036 95.8811 311.58 103.631 309.339 105.6Z" fill="#E98862"/>
<path d="M214.191 70.7401C218.966 66.3841 226.982 63.7981 236.591 64.2281C237.054 69.8651 271.078 71.4441 271.591 65.9611C272.891 66.0411 273.897 66.1071 274.524 66.1611C297.572 68.2141 296.652 86.8231 293.438 107.289L312.824 99.7791L320.7 120.111L289.847 132.063C289.8 132.663 289.757 133.263 289.723 133.857C287.848 166.265 296.329 172.78 291.559 182.492C286.934 191.92 204.507 192.149 204.183 175.176C203.977 164.376 213.897 155.41 214.859 134.422C215.821 113.434 197.737 85.7531 214.191 70.7401Z" fill="#367CFF"/>
<path d="M271.59 65.961C271.079 71.444 267.722 79.388 258.473 79.575C246.149 79.822 237.055 69.865 236.593 64.228H236.623C248.72 64.784 264.542 65.528 271.59 65.961Z" fill="#E98862"/>
<path d="M79.674 440.068H48.083C42.597 432.842 32.983 418.282 39.197 412.068C42.024 409.241 45.138 411.93 48.034 416.743C47.034 407.314 48.034 398.289 54.597 395.66C60.577 393.26 63.246 400.493 64.284 410.19C67.23 404.674 71.104 400.8 76.155 401.096C83.381 401.531 81.632 411.169 77.411 421.844C80.611 419.402 83.974 418.206 87.236 419.274C94.076 421.515 87.691 431.113 79.674 440.068Z" fill="#8DDBE0"/>
<path d="M614.573 440.068H527.129C522.329 427.108 536.743 420.716 541.329 429.115C538.596 424.105 537.869 417.755 543.545 413.667C549.494 410.426 556.656 414.131 557.753 419.992C556.294 412.187 563.241 404.409 570.973 402.64C590.817 398.104 595.242 418.432 593.443 421.627C598.681 412.315 620.351 423.809 614.573 440.068Z" fill="#8DDBE0"/>
</g>
<defs>
<clipPath id="clip0_17_135">
<rect width="644.63" height="501.399" fill="white"/>
</clipPath>
</defs>
</svg>
