<svg width="32" height="32" viewBox="0 0 32 32" fill="none" xmlns="http://www.w3.org/2000/svg">
<path d="M7.99999 26.6668H13.8667C14.2909 26.6663 14.6975 26.4975 14.9975 26.1976C15.2974 25.8976 15.4662 25.491 15.4667 25.0668V11.2001C15.4662 10.7759 15.2974 10.3692 14.9975 10.0693C14.6975 9.76932 14.2909 9.60059 13.8667 9.6001H7.99999C7.5758 9.60059 7.16912 9.76932 6.86917 10.0693C6.56922 10.3692 6.40049 10.7759 6.39999 11.2001V25.0668C6.40049 25.491 6.56922 25.8976 6.86917 26.1976C7.16912 26.4975 7.5758 26.6663 7.99999 26.6668ZM8.53333 11.7334H13.3333V24.5334H8.53333V11.7334Z" fill="currentColor"/>
<path d="M27.1999 0H21.3332C20.9091 0.00049403 20.5024 0.169224 20.2024 0.469175C19.9025 0.769126 19.7337 1.17581 19.7332 1.6V25.0667C19.7337 25.4909 19.9025 25.8975 20.2024 26.1975C20.5024 26.4974 20.9091 26.6662 21.3332 26.6667H27.1999C27.6241 26.6662 28.0308 26.4974 28.3307 26.1975C28.6307 25.8975 28.7994 25.4909 28.7999 25.0667V1.6C28.7994 1.17581 28.6307 0.769126 28.3307 0.469175C28.0308 0.169224 27.6241 0.00049403 27.1999 0ZM26.6666 24.5333H21.8666V2.13333H26.6666V24.5333Z" fill="currentColor"/>
<path d="M2.13333 0H0V32H32V29.8667H2.13333V0Z" fill="currentColor"/>
</svg>
