<svg width="24" height="33" viewBox="0 0 24 33" fill="none" xmlns="http://www.w3.org/2000/svg">
<path d="M11.9995 7.59009C11.1261 7.59009 10.2723 7.84908 9.54609 8.33431C8.81988 8.81955 8.25388 9.50923 7.91964 10.3161C7.58541 11.1231 7.49796 12.011 7.66835 12.8676C7.83874 13.7242 8.25932 14.511 8.8769 15.1286C9.49449 15.7462 10.2813 16.1668 11.138 16.3372C11.9946 16.5076 12.8825 16.4201 13.6894 16.0859C14.4963 15.7516 15.186 15.1856 15.6712 14.4594C16.1564 13.7332 16.4154 12.8795 16.4154 12.0061C16.4141 10.8353 15.9484 9.71283 15.1206 8.88497C14.2927 8.0571 13.1702 7.59142 11.9995 7.59009ZM11.9995 14.214C11.5628 14.214 11.1359 14.0845 10.7728 13.8419C10.4097 13.5993 10.1267 13.2545 9.95955 12.851C9.79244 12.4476 9.74871 12.0036 9.83391 11.5753C9.9191 11.147 10.1294 10.7536 10.4382 10.4448C10.747 10.136 11.1404 9.92569 11.5687 9.8405C11.997 9.7553 12.441 9.79903 12.8444 9.96615C13.2479 10.1333 13.5927 10.4163 13.8353 10.7794C14.078 11.1425 14.2075 11.5694 14.2075 12.0061C14.2068 12.5914 13.9739 13.1527 13.56 13.5666C13.1461 13.9805 12.5849 14.2134 11.9995 14.214Z" fill="currentColor"/>
<path d="M20.4852 3.51381C18.3871 1.41625 15.5864 0.17022 12.6236 0.0161953C9.66083 -0.13783 6.74603 0.811072 4.44174 2.67976C2.13746 4.54845 0.607058 7.20446 0.145899 10.1352C-0.31526 13.0659 0.325519 16.0635 1.94457 18.5496L10.2871 31.3568C10.4727 31.6418 10.7266 31.8759 11.0256 32.038C11.3246 32.2001 11.6594 32.2849 11.9995 32.2849C12.3396 32.2849 12.6744 32.2001 12.9734 32.038C13.2724 31.8759 13.5262 31.6418 13.7119 31.3568L22.0547 18.5496C23.557 16.2434 24.2209 13.4909 23.9351 10.7535C23.6494 8.01603 22.4313 5.46 20.4852 3.51381ZM20.2047 17.3444L11.9995 29.9402L3.7943 17.3444C1.28272 13.4887 1.8214 8.32894 5.07514 5.07506C5.98446 4.16572 7.06398 3.4444 8.25206 2.95226C9.44015 2.46013 10.7135 2.20683 11.9995 2.20683C13.2855 2.20683 14.5589 2.46013 15.747 2.95226C16.9351 3.4444 18.0146 4.16572 18.9239 5.07506C22.1776 8.32894 22.7163 13.4887 20.2047 17.3444Z" fill="currentColor"/>
</svg>
