<svg width="15" height="21" viewBox="0 0 15 21" fill="none" xmlns="http://www.w3.org/2000/svg">
<path d="M7.49973 4.7439C6.95386 4.7439 6.42024 4.90577 5.96636 5.20904C5.51249 5.51231 5.15873 5.94336 4.94984 6.44768C4.74094 6.952 4.68629 7.50694 4.79278 8.04232C4.89927 8.57771 5.16214 9.06949 5.54813 9.45548C5.93412 9.84147 6.4259 10.1043 6.96128 10.2108C7.49667 10.3173 8.05161 10.2627 8.55593 10.0538C9.06025 9.84487 9.4913 9.49112 9.79457 9.03724C10.0978 8.58336 10.2597 8.04975 10.2597 7.50388C10.2589 6.77214 9.96783 6.07061 9.45041 5.5532C8.93299 5.03578 8.23146 4.74473 7.49973 4.7439ZM7.49973 8.88387C7.22679 8.88387 6.95998 8.80293 6.73305 8.6513C6.50611 8.49966 6.32923 8.28414 6.22478 8.03198C6.12033 7.77982 6.09301 7.50235 6.14625 7.23465C6.1995 6.96696 6.33093 6.72107 6.52393 6.52808C6.71692 6.33508 6.96281 6.20365 7.2305 6.1504C7.4982 6.09716 7.77567 6.12448 8.02783 6.22893C8.27999 6.33338 8.49551 6.51026 8.64715 6.7372C8.79878 6.96413 8.87972 7.23094 8.87972 7.50388C8.8793 7.86974 8.73377 8.2205 8.47506 8.47921C8.21635 8.73792 7.86559 8.88345 7.49973 8.88387Z" fill="currentColor"/>
<path d="M12.8032 2.19613C11.4919 0.885159 9.74148 0.106388 7.88975 0.010122C6.03802 -0.0861437 4.21627 0.50692 2.77609 1.67485C1.33591 2.84278 0.379411 4.50279 0.0911869 6.33448C-0.197037 8.16617 0.20345 10.0397 1.21535 11.5935L6.42943 19.598C6.54546 19.7761 6.70411 19.9224 6.891 20.0237C7.07789 20.125 7.2871 20.1781 7.49968 20.1781C7.71226 20.1781 7.92147 20.125 8.10836 20.0237C8.29524 19.9224 8.4539 19.7761 8.56993 19.598L13.7842 11.5935C14.7231 10.1521 15.1381 8.43183 14.9595 6.72092C14.7809 5.01002 14.0196 3.4125 12.8032 2.19613ZM12.6279 10.8402L7.4997 18.7126L2.37144 10.8402C0.801701 8.43045 1.13838 5.20559 3.17196 3.17191C3.74029 2.60358 4.41498 2.15275 5.15754 1.84516C5.90009 1.53758 6.69596 1.37927 7.4997 1.37927C8.30344 1.37927 9.09931 1.53758 9.84186 1.84516C10.5844 2.15275 11.2591 2.60358 11.8274 3.17191C13.861 5.20559 14.1977 8.43045 12.6279 10.8402Z" fill="currentColor"/>
</svg>
