<svg width="25" height="25" viewBox="0 0 25 25" fill="none" xmlns="http://www.w3.org/2000/svg">
<path d="M22.5104 19.6099C24.0999 18.1933 25 16.305 25 14.3455C25 12.263 24.0251 10.3154 22.2548 8.86119C20.5319 7.44631 18.2514 6.66699 15.8331 6.66699C13.4148 6.66699 11.1343 7.44631 9.41169 8.86129C7.64145 10.3154 6.66656 12.263 6.66656 14.3455C6.66656 16.428 7.64145 18.3756 9.41169 19.8298C11.1343 21.2448 13.4148 22.0241 15.8331 22.0241C16.1554 22.0241 16.4796 22.0099 16.8011 21.9816L17.3504 22.4577C19.2426 24.0974 21.6625 25 24.1664 25.0001H24.9997V23.2263L24.7556 22.9823C23.7929 22.0167 23.0299 20.8707 22.5104 19.6099ZM18.4419 21.1981L17.3398 20.2428L16.9723 20.2879C16.5943 20.3341 16.2139 20.3573 15.8331 20.3573C11.6978 20.3573 8.33321 17.6604 8.33321 14.3455C8.33321 11.0306 11.6978 8.33364 15.8331 8.33364C19.9685 8.33364 23.3331 11.0305 23.3331 14.3455C23.3331 15.9971 22.5091 17.5389 21.013 18.687L20.533 19.0553L20.7545 19.6821C21.2083 20.9623 21.8754 22.1565 22.7275 23.2142C21.1407 22.9493 19.6577 22.2517 18.4419 21.1981Z" fill="currentColor"/>
<path d="M2.30128 15.7017C3.08134 14.7143 3.6938 13.6054 4.11418 12.4193L4.33397 11.7956L3.85444 11.4276C2.44362 10.345 1.66665 8.89199 1.66665 7.33623C1.66665 4.21001 4.84417 1.66665 8.74991 1.66665C11.6232 1.66665 14.1023 3.0432 15.2122 5.01557C15.4183 5.00557 15.6253 4.99995 15.8332 4.99995C16.2508 4.99995 16.6645 5.02021 17.0745 5.06073C16.6456 3.94954 15.9007 2.93518 14.8766 2.09404C13.2328 0.74369 11.0572 0 8.74991 0C6.44264 0 4.26704 0.74369 2.6231 2.09404C0.931553 3.48356 0 5.34526 0 7.33623C0 9.20079 0.851658 10.9974 2.35675 12.3488C1.86557 13.5308 1.14788 14.6053 0.244112 15.5118L0 15.7558V17.4998H0.833325C2.3743 17.4996 3.89409 17.1408 5.27239 16.4517C5.12126 15.8788 5.0327 15.2913 5.00828 14.6993C4.17172 15.1896 3.25542 15.5289 2.30128 15.7017Z" fill="currentColor"/>
</svg>
