<svg width="35" height="35" viewBox="0 0 35 35" fill="none" xmlns="http://www.w3.org/2000/svg">
<path d="M13.8542 20.0521C13.8542 21.4667 14.9479 22.6042 16.2896 22.6042H19.0312C20.1979 22.6042 21.1458 21.6125 21.1458 20.3729C21.1458 19.0458 20.5625 18.5646 19.7021 18.2583L15.3125 16.7271C14.4521 16.4208 13.8687 15.9542 13.8687 14.6125C13.8687 13.3875 14.8167 12.3812 15.9833 12.3812H18.725C20.0667 12.3812 21.1604 13.5187 21.1604 14.9333M17.5 10.9375V24.0625" stroke="currentColor" stroke-width="1.5" stroke-linecap="round" stroke-linejoin="round"/>
<path d="M32.0833 17.4998C32.0833 25.5498 25.55 32.0832 17.5 32.0832C9.44999 32.0832 2.91666 25.5498 2.91666 17.4998C2.91666 9.44984 9.44999 2.9165 17.5 2.9165M32.0833 8.74984V2.9165H26.25M24.7917 10.2082L32.0833 2.9165" stroke="currentColor" stroke-width="1.5" stroke-linecap="round" stroke-linejoin="round"/>
</svg>
