<svg width="25" height="22" viewBox="0 0 25 22" fill="none" xmlns="http://www.w3.org/2000/svg">
<path d="M0.387684 20.7308L0.392276 20.7346C0.514039 20.8375 0.658848 20.9191 0.818374 20.9749C0.977901 21.0307 1.149 21.0594 1.32183 21.0596C1.46726 21.0595 1.61169 21.0394 1.74935 21L9.2444 18.8679L23.6269 6.80669C24.5061 6.0693 25.0001 5.0692 25 4.0264C24.9999 2.98361 24.5059 1.98355 23.6266 1.24622C22.7473 0.508884 21.5547 0.0946809 20.3112 0.0947266C19.0677 0.0947722 17.8752 0.509063 16.996 1.24646L2.61346 13.3077L0.0711639 19.5928C-0.00891845 19.7883 -0.0217011 19.9987 0.0342817 20.2C0.0902645 20.4012 0.212746 20.5852 0.387684 20.7308ZM18.1903 2.24796C18.7536 1.7792 19.5154 1.51672 20.309 1.518C21.1025 1.51928 21.8631 1.78421 22.4242 2.25478C22.9854 2.72535 23.3013 3.36321 23.3028 4.02868C23.3043 4.69416 22.9913 5.33302 22.4323 5.80537L20.541 7.39143L16.2989 3.83402L18.1903 2.24796ZM4.08655 14.0754L15.1046 4.83552L19.3467 8.39293L8.32856 17.6327L1.90875 19.459L4.08655 14.0754Z" fill="currentColor"/>
</svg>
