<svg width="22" height="29" viewBox="0 0 22 29" fill="none" xmlns="http://www.w3.org/2000/svg">
<path d="M19.8239 19.5881L15.4704 16.7584L17.1117 13.7493C17.4943 13.0466 17.6951 12.2593 17.6956 11.4592V6.69565C17.6956 4.91985 16.9902 3.21679 15.7345 1.96111C14.4789 0.705432 12.7758 0 11 0C9.2242 0 7.52114 0.705432 6.26546 1.96111C5.00979 3.21679 4.30435 4.91985 4.30435 6.69565V11.4592C4.30495 12.2593 4.50569 13.0466 4.88831 13.7493L6.52964 16.7584L2.17609 19.5881C1.50701 20.0213 0.957234 20.6153 0.577072 21.3158C0.196911 22.0164 -0.0014954 22.801 8.48604e-06 23.5981V28.6956H22V23.5981C22.0015 22.801 21.8031 22.0164 21.4229 21.3158C21.0428 20.6153 20.493 20.0213 19.8239 19.5881ZM20.087 26.7826H1.91305V23.5981C1.91216 23.1199 2.03121 22.649 2.25932 22.2287C2.48742 21.8084 2.8173 21.452 3.21876 21.1921L9.05713 17.3971L6.56778 12.8333C6.33822 12.4116 6.21777 11.9393 6.2174 11.4592V6.69565C6.2174 5.42722 6.72128 4.21075 7.61819 3.31383C8.5151 2.41692 9.73157 1.91304 11 1.91304C12.2684 1.91304 13.4849 2.41692 14.3818 3.31383C15.2787 4.21075 15.7826 5.42722 15.7826 6.69565V11.4592C15.7822 11.9393 15.6618 12.4116 15.4322 12.8333L12.9429 17.3971L18.7814 21.1921C19.1828 21.452 19.5127 21.8084 19.7408 22.2287C19.9688 22.6491 20.0879 23.1199 20.087 23.5981V26.7826Z" fill="currentColor"/>
</svg>
