<svg width="117" height="106" viewBox="0 0 117 106" fill="none" xmlns="http://www.w3.org/2000/svg">
<path d="M101.891 17.3781L93.8167 9.30422L116.904 9.27968L116.895 0.357666L78.981 0.397814V38.2762H87.9031V16.008L95.5818 23.6868C101.523 29.6288 105.571 37.198 107.213 45.4387C108.856 53.6794 108.02 62.222 104.811 69.988C101.602 77.7539 96.164 84.3949 89.1835 89.0725C82.203 93.75 73.993 96.2544 65.5902 96.2693L65.6058 105.191C75.7719 105.173 85.7046 102.143 94.1499 96.4843C102.595 90.8252 109.174 82.7906 113.057 73.3951C116.939 63.9995 117.95 53.6643 115.963 43.6944C113.976 33.7245 109.079 24.5669 101.891 17.3781V17.3781Z" fill="currentColor"/>
<path d="M52.2228 9.27968L52.2072 0.357666C42.0412 0.375745 32.1084 3.40562 23.6631 9.06473C15.2179 14.7238 8.63871 22.7584 4.75644 32.154C0.874164 41.5495 -0.137153 51.8847 1.85018 61.8547C3.83751 71.8246 8.73438 80.9821 15.9225 88.1709L24.0209 96.2693H0.913421V105.191H38.832V67.2728H29.91V89.541L22.2312 81.8622C16.2899 75.9202 12.2424 68.351 10.5998 60.1103C8.9572 51.8696 9.79314 43.327 13.0021 35.561C16.211 27.7951 21.6491 21.1541 28.6296 16.4766C35.6101 11.799 43.82 9.29463 52.2228 9.27968Z" fill="currentColor"/>
</svg>
