<svg width="24" height="24" viewBox="0 0 24 24" fill="none" xmlns="http://www.w3.org/2000/svg">
<path d="M23.1799 19.1858L19.1258 15.1316L16.0074 13.8432C17.0457 12.3666 17.602 10.6051 17.6 8.79998C17.6 3.94764 13.6523 0 8.79998 0C3.94764 0 0 3.94764 0 8.79998C0 13.6523 3.94764 17.6 8.79998 17.6C10.6208 17.602 12.3969 17.0361 13.8809 15.9811L15.1659 19.0911L19.22 23.1455C19.48 23.4055 19.7886 23.6118 20.1283 23.7525C20.4681 23.8932 20.8322 23.9657 21.1999 23.9657C21.5676 23.9657 21.9317 23.8933 22.2714 23.7526C22.6111 23.6119 22.9198 23.4056 23.1798 23.1456C23.4398 22.8856 23.6461 22.577 23.7868 22.2372C23.9276 21.8975 24 21.5334 24 21.1657C24 20.798 23.9276 20.4339 23.7869 20.0942C23.6462 19.7545 23.4399 19.4458 23.1799 19.1858ZM1.6 8.79998C1.6 4.82999 4.82999 1.6 8.79998 1.6C12.77 1.6 16 4.82999 16 8.79998C16 12.77 12.77 16 8.79998 16C4.82999 16 1.6 12.77 1.6 8.79998ZM22.0485 22.0141C21.8233 22.2389 21.5181 22.3651 21.2 22.3651C20.8818 22.3651 20.5766 22.2389 20.3514 22.0141L16.5228 18.1856L15.3281 15.2938L18.22 16.4885L22.0486 20.3171C22.2733 20.5423 22.3995 20.8475 22.3994 21.1656C22.3994 21.4838 22.2732 21.7889 22.0485 22.0141Z" fill="currentColor"/>
</svg>
