<svg width="24" height="24" viewBox="0 0 24 24" fill="none" xmlns="http://www.w3.org/2000/svg">
<path d="M22.3536 3.67429L22.7071 3.32072L22.3535 2.96716L21.0327 1.64643L20.6791 1.29291L20.3256 1.64645L12 9.97204L3.6744 1.64645L3.32087 1.29291L2.96731 1.64643L1.64646 2.96716L1.29288 3.32072L1.64645 3.67429L9.9721 11.9999L1.64645 20.3256L1.29288 20.6792L1.64646 21.0327L2.96731 22.3535L3.32087 22.707L3.6744 22.3534L12 14.0278L20.3256 22.3534L20.6791 22.707L21.0327 22.3535L22.3535 21.0327L22.7071 20.6792L22.3536 20.3256L14.0279 11.9999L22.3536 3.67429Z" fill="currentColor" stroke="currentColor"/>
</svg>
